<svg id="Layer_1" data-name="Layer 1" xmlns="http://www.w3.org/2000/svg" viewBox="0 0 200 200"><defs><style>.cls-1{fill:#b1b1b2;}</style></defs><title>charts and icons</title><path class="cls-1" d="M47.25,73.31q0-13.75,7.42-21,6.41-6.41,16.84-6.41a21.62,21.62,0,0,1,16.34,7.19,23.7,23.7,0,0,1,6.76,16.77,43.68,43.68,0,0,1-4.4,19.08Q87.81,94,79,106.46q-2.4,3.4-7.11,10.58L69.27,121q-2.55,3.86-3.86,6.1a5.1,5.1,0,0,0-.62,1.39H93.45v14.29H47V129.37q0-.46,3.19-5.34,1.47-2.23,3.34-4.93l3.8-5.47q3.32-4.56,10.44-14.6A96.15,96.15,0,0,0,77.84,82,29.51,29.51,0,0,0,80.54,70.3a11.61,11.61,0,0,0-2.47-7.49,8.64,8.64,0,0,0-7-3.24q-6.1,0-8.65,7a16.18,16.18,0,0,0-.85,5.56v3.71H47.25V73.31Z"/><path class="cls-1" d="M158.49,142.84H142.82L131.61,112l-11.29,30.83H104.65l19-48.67L104.65,46h16.15l10.82,29.9L142.35,46H158.5l-19,48.13Z"/></svg>