<?xml version="1.0" encoding="utf-8"?>
<!-- Generator: Adobe Illustrator 19.2.1, SVG Export Plug-In . SVG Version: 6.00 Build 0)  -->
<!DOCTYPE svg PUBLIC "-//W3C//DTD SVG 1.1//EN" "http://www.w3.org/Graphics/SVG/1.1/DTD/svg11.dtd">
<svg version="1.1" id="Layer_1" xmlns="http://www.w3.org/2000/svg" xmlns:xlink="http://www.w3.org/1999/xlink" x="0px" y="0px"
	 viewBox="0 0 592 410.7" style="enable-background:new 0 0 592 410.7;" xml:space="preserve">
<style type="text/css">
	.st0{clip-path:url(#SVGID_2_);}
	.st1{clip-path:url(#SVGID_4_);enable-background:new    ;}
	.st2{clip-path:url(#SVGID_6_);}
	.st3{clip-path:url(#SVGID_8_);}
	.st4{clip-path:url(#SVGID_10_);fill:#EE4343;}
	.st5{clip-path:url(#SVGID_12_);}
	.st6{clip-path:url(#SVGID_14_);fill:#EE4343;}
	.st7{clip-path:url(#SVGID_16_);}
	.st8{clip-path:url(#SVGID_18_);fill:#EE4343;}
	.st9{clip-path:url(#SVGID_20_);}
	.st10{clip-path:url(#SVGID_22_);fill:#EE4343;}
	.st11{opacity:0.2784;clip-path:url(#SVGID_24_);enable-background:new    ;}
	.st12{clip-path:url(#SVGID_26_);}
	.st13{clip-path:url(#SVGID_28_);}
	.st14{opacity:0.7523;clip-path:url(#SVGID_30_);fill:#FF3E3E;}
	.st15{opacity:0.21;clip-path:url(#SVGID_32_);enable-background:new    ;}
	.st16{clip-path:url(#SVGID_34_);}
	.st17{clip-path:url(#SVGID_36_);}
	.st18{opacity:0.6084;clip-path:url(#SVGID_38_);fill:#C62C2C;}
	.st19{opacity:0.2784;clip-path:url(#SVGID_40_);enable-background:new    ;}
	.st20{clip-path:url(#SVGID_42_);}
	.st21{clip-path:url(#SVGID_44_);}
	.st22{opacity:0.7523;clip-path:url(#SVGID_46_);fill:#FF3E3E;}
	.st23{opacity:0.2784;clip-path:url(#SVGID_48_);enable-background:new    ;}
	.st24{clip-path:url(#SVGID_50_);}
	.st25{clip-path:url(#SVGID_52_);}
	.st26{opacity:0.6084;clip-path:url(#SVGID_54_);fill:#C62C2C;}
	.st27{opacity:0.2784;clip-path:url(#SVGID_56_);enable-background:new    ;}
	.st28{clip-path:url(#SVGID_58_);}
	.st29{clip-path:url(#SVGID_60_);}
	.st30{opacity:0.7523;clip-path:url(#SVGID_62_);fill:#FF3E3E;}
	.st31{opacity:0.2784;clip-path:url(#SVGID_64_);enable-background:new    ;}
	.st32{clip-path:url(#SVGID_66_);}
	.st33{clip-path:url(#SVGID_68_);}
	.st34{opacity:0.6084;clip-path:url(#SVGID_70_);fill:#C62C2C;}
	.st35{clip-path:url(#SVGID_72_);}
	.st36{clip-path:url(#SVGID_74_);fill:#FF3E3E;}
	.st37{opacity:0.2754;clip-path:url(#SVGID_76_);enable-background:new    ;}
	.st38{clip-path:url(#SVGID_78_);}
	.st39{clip-path:url(#SVGID_80_);}
	.st40{opacity:0.6084;clip-path:url(#SVGID_82_);fill:#C62C2C;}
	.st41{opacity:0.278;clip-path:url(#SVGID_84_);enable-background:new    ;}
	.st42{clip-path:url(#SVGID_86_);}
	.st43{clip-path:url(#SVGID_88_);}
	.st44{opacity:0.7523;clip-path:url(#SVGID_90_);fill:#FF3E3E;}
	.st45{opacity:0.2784;clip-path:url(#SVGID_92_);enable-background:new    ;}
	.st46{clip-path:url(#SVGID_94_);}
	.st47{clip-path:url(#SVGID_96_);}
	.st48{opacity:0.6084;clip-path:url(#SVGID_98_);fill:#C62C2C;}
	.st49{opacity:0.2784;clip-path:url(#SVGID_100_);enable-background:new    ;}
	.st50{clip-path:url(#SVGID_102_);}
	.st51{clip-path:url(#SVGID_104_);}
	.st52{opacity:0.7523;clip-path:url(#SVGID_106_);fill:#FF3E3E;}
	.st53{opacity:0.2784;clip-path:url(#SVGID_108_);enable-background:new    ;}
	.st54{clip-path:url(#SVGID_110_);}
	.st55{clip-path:url(#SVGID_112_);}
	.st56{opacity:0.6084;clip-path:url(#SVGID_114_);fill:#C62C2C;}
	.st57{fill:#FF3E3E;}
</style>
<g>
	<defs>
		<rect id="SVGID_1_" x="44.9" y="12.7" width="47.5" height="336.1"/>
	</defs>
	<clipPath id="SVGID_2_">
		<use xlink:href="#SVGID_1_"  style="overflow:visible;"/>
	</clipPath>
	<g class="st0">
		<defs>
			<rect id="SVGID_3_" x="-532.3" y="-1999.4" width="1440" height="2768"/>
		</defs>
		<clipPath id="SVGID_4_">
			<use xlink:href="#SVGID_3_"  style="overflow:visible;"/>
		</clipPath>
		<g class="st1">
			<g>
				<defs>
					<rect id="SVGID_5_" x="44.7" y="12.6" width="48" height="337"/>
				</defs>
				<clipPath id="SVGID_6_">
					<use xlink:href="#SVGID_5_"  style="overflow:visible;"/>
				</clipPath>
				<g class="st2">
					<defs>
						<path id="SVGID_7_" d="M91.9,268.7c0.5-0.8,0.6-1.5,0.6-2.3c0-0.8-0.3-1.5-0.6-2.3c0.4-0.8,0.6-1.5,0.5-2.3
							c-0.1-0.8-0.3-1.5-0.6-2.3c0.4-0.8,0.5-1.5,0.4-2.3c0-0.4-0.1-0.8-0.3-1.1c-0.1-0.4-0.3-0.7-0.5-1.1c0.4-0.8,0.5-1.6,0.4-2.3
							c-0.1-0.8-0.4-1.5-0.8-2.2c0.1-0.3,0.2-0.5,0.3-0.8l-0.1,0c0.4-1.4-0.1-2.7-0.8-3.9c0.7-1.6,0.1-3.1-0.7-4.5
							c0.6-1.7,0-3.1-0.9-4.5c0.1-0.4,0.2-0.8,0.2-1.2c0-0.4-0.1-0.8-0.2-1.1c-0.2-0.7-0.6-1.4-1.1-2.1c0.2-0.9,0.1-1.6-0.1-2.4
							c-0.3-0.7-0.7-1.4-1.3-2c0.2-0.9,0-1.6-0.3-2.4c-0.2-0.4-0.4-0.7-0.6-1c-0.2-0.3-0.5-0.6-0.8-0.9c0.1-0.3,0.1-0.6,0.1-0.9
							l-0.1,0c0-0.4-0.1-0.7-0.2-1.1c-0.1-0.3-0.3-0.6-0.4-0.9c-0.2-0.3-0.4-0.6-0.6-0.8c-0.1-0.1-0.2-0.3-0.4-0.4
							c-0.1-0.1-0.3-0.2-0.4-0.4c0-0.9-0.2-1.7-0.6-2.3c-0.4-0.6-1-1.2-1.6-1.7c0-1.7-1-2.9-2.3-3.9c0-1.8-1-2.9-2.3-3.9
							c0-1.7-1-2.9-2.2-3.9c0.1-1.7-1-2.9-2.2-3.9c0-0.3,0-0.6,0-0.9l-0.1,0c-0.1-0.7-0.4-1.3-0.7-1.9c-0.4-0.5-0.9-1-1.4-1.4
							c0-0.9-0.2-1.6-0.6-2.2c-0.4-0.6-0.9-1.2-1.5-1.7c0.1-0.9-0.2-1.6-0.5-2.2c-0.4-0.6-0.9-1.2-1.5-1.7c0.1-1.7-0.8-2.9-1.9-4
							c0.2-1.7-0.7-2.9-1.8-4.1c0.1-0.4,0-0.8,0-1.2c-0.1-0.4-0.2-0.7-0.3-1.1c-0.3-0.7-0.8-1.3-1.4-1.9c0.1-0.3,0.1-0.6,0.1-0.8
							l-0.1,0c0-1.4-0.7-2.5-1.6-3.5c0.4-1.7-0.4-3-1.4-4.2c0.4-1.7-0.3-3-1.3-4.2c0.5-1.7-0.3-3-1.2-4.3c0.5-1.7-0.1-3-1-4.3
							c0.3-0.8,0.3-1.5,0.1-2.3c-0.2-0.7-0.5-1.4-1-2.1c0.1-0.3,0.2-0.5,0.3-0.8l-0.6,0.1l0.5-0.1c0.3-1.4-0.2-2.6-0.8-3.8
							c0.7-1.6,0.3-3-0.5-4.4c0.4-0.8,0.5-1.5,0.4-2.3c-0.1-0.7-0.4-1.5-0.7-2.2c0.4-0.8,0.5-1.5,0.4-2.3c-0.1-0.7-0.3-1.5-0.6-2.2
							c0.4-0.8,0.6-1.5,0.5-2.2c0-0.7-0.3-1.5-0.6-2.2c0.4-0.7,0.6-1.5,0.6-2.2c0-0.7-0.3-1.5-0.6-2.3c0.2-0.2,0.3-0.5,0.4-0.8l-1,0
							c-0.1,0.2-0.2,0.5-0.3,0.7c-0.1,0.3-0.3,0.6-0.5,0.9c-0.1,0.2-0.2,0.5-0.3,0.7c-0.5,0-0.6,0.8-1.3,1c0.2-0.6,0.4-1.2,0.5-1.7
							c0.2-0.4,0.5-0.7,0.7-1c0.1-0.2,0.3-0.5,0.5-0.7l-0.1,0c0.3-0.5,0.6-0.9,1-1.2l0.1,0.1l-0.3,1.1l0.9,0
							c0.5-1.3,0.3-2.6-0.2-3.9c1-1.5,0.7-2.9,0.2-4.5c1-1.4,0.7-3,0.2-4.5c1-1.4,0.7-3,0.2-4.5c1-1.4,0.8-2.9,0.3-4.5
							c1-1.4,0.8-2.9,0.3-4.5c0.2-0.2,0.3-0.5,0.4-0.7L51.3,95l0.7,0c0.6-1.3,0.4-2.6,0-3.9c1-1.4,0.8-2.9,0.3-4.5
							c1-1.4,0.8-2.9,0.3-4.5c1-1.4,0.8-3,0.3-4.5c1-1.4,0.8-2.9,0.3-4.5c1-1.4,0.8-3,0.3-4.5c0.2-0.2,0.3-0.5,0.4-0.7l-0.2,0l0.1,0
							c0.6-1.3,0.4-2.6-0.1-4c1-1.5,0.7-3,0.2-4.5c1-1.5,0.7-3,0.1-4.5c0.9-1.5,0.6-3,0-4.5c0.5-0.8,0.6-1.5,0.5-2.3
							c0-0.8-0.3-1.5-0.6-2.3c0.4-0.8,0.6-1.5,0.5-2.3c-0.1-0.8-0.3-1.5-0.7-2.3c0.2-0.3,0.3-0.5,0.4-0.8l-1,0.1
							c-0.1,0.3-0.2,0.5-0.3,0.7c-0.1,0.3-0.3,0.6-0.4,0.9c-0.1,0.2-0.2,0.5-0.2,0.8c-0.5,0.1-0.6,0.8-1.3,1.1
							c0.2-0.6,0.3-1.2,0.5-1.7c0.2-0.4,0.4-0.7,0.6-1.1c0.1-0.2,0.3-0.5,0.4-0.7l-0.1,0c0.2-0.5,0.6-0.9,0.9-1.3l0.1,0.1
							c-0.1,0.4-0.2,0.8-0.2,1.2l0.9,0c0.4-1.4,0.1-2.7-0.6-4c0.8-1.6,0.3-3.1-0.5-4.5c0.4-0.8,0.4-1.6,0.3-2.3
							c-0.2-0.8-0.5-1.5-0.9-2.2c0.3-0.8,0.3-1.6,0.1-2.4c-0.1-0.4-0.2-0.7-0.4-1.1c-0.2-0.4-0.4-0.7-0.6-1c0.5-1.7-0.2-3.1-1.2-4.5
							c0.4-1.7-0.4-3.2-1.5-4.4c0.1-0.3,0.1-0.6,0.1-0.9l-0.9,0.4c0,0.3,0,0.5,0,0.8c0,0.4-0.1,0.7-0.1,1c0,0.2,0,0.5,0,0.8
							c-0.5,0.2-0.3,1-0.9,1.4c0-0.7,0-1.2-0.1-1.7c0.1-0.4,0.2-0.8,0.2-1.2c0-0.3,0.1-0.5,0.2-0.8l-2.4,1c0.3,0.5,0.7,1,1.1,1.5
							c-0.2,0.8-0.1,1.5,0.2,2.2c0.1,0.3,0.3,0.7,0.5,1c0.2,0.3,0.4,0.6,0.7,1c-0.5,1.6,0.1,2.9,1,4.3c-0.6,1.6,0,2.9,0.8,4.3
							c-0.3,0.8-0.4,1.5-0.2,2.2c0.1,0.4,0.2,0.7,0.3,1.1c0.1,0.4,0.3,0.7,0.5,1.1c-0.8,1.6-0.3,3,0.4,4.4c-0.5,0.9-0.5,1.8-0.3,2.8
							l1.4-0.1L50,40.7c0.1,0.6,0.3,1.2,0.6,1.8c-0.4,0.7-0.6,1.5-0.5,2.2c0.1,0.7,0.3,1.5,0.6,2.2c-0.4,0.7-0.6,1.5-0.5,2.2
							c0,0.7,0.3,1.5,0.6,2.2c-0.5,0.7-0.6,1.5-0.6,2.2c0,0.7,0.2,1.5,0.5,2.3c-0.5,0.7-0.6,1.5-0.6,2.2c0,0.7,0.2,1.5,0.5,2.3
							c-1,1.4-0.7,2.9-0.2,4.5c-0.6,0.8-0.7,1.8-0.6,2.8l0,0c0,0.6,0.2,1.3,0.4,1.9c-1,1.4-0.8,2.9-0.3,4.5c-1,1.4-0.8,2.9-0.3,4.5
							c-1,1.4-0.8,2.9-0.3,4.5c-1,1.4-0.8,2.9-0.3,4.5c-1,1.4-0.8,2.9-0.3,4.5c-0.6,0.8-0.8,1.8-0.7,2.8l0,0c0,0.6,0.2,1.3,0.4,1.9
							c-1,1.4-0.8,2.9-0.3,4.5c-1,1.4-0.8,3-0.3,4.5c-1,1.4-0.8,3-0.2,4.5c-1,1.4-0.7,3-0.2,4.5c-0.5,0.7-0.7,1.5-0.6,2.2
							c0,0.8,0.2,1.5,0.5,2.3c-0.6,0.9-0.7,1.8-0.6,2.8l0,0c0.1,0.6,0.3,1.3,0.5,1.9c-0.5,0.7-0.6,1.5-0.6,2.2
							c0,0.8,0.3,1.5,0.6,2.3c-0.4,0.8-0.6,1.5-0.5,2.3c0.1,0.8,0.3,1.5,0.6,2.3c-0.4,0.8-0.5,1.5-0.5,2.3c0.1,0.8,0.3,1.5,0.7,2.3
							c-0.4,0.8-0.5,1.5-0.4,2.3c0.1,0.8,0.4,1.5,0.8,2.2c-0.8,1.6-0.3,3.1,0.5,4.6c-0.2,0.5-0.3,1-0.3,1.4c0,0.5,0.1,1,0.2,1.5l0,0
							c0.2,0.6,0.5,1.2,0.8,1.8c-0.6,1.6,0,3.1,0.9,4.5c-0.3,0.8-0.2,1.6,0,2.3c0.2,0.7,0.6,1.4,1.1,2.1c-0.2,0.8-0.2,1.6,0.1,2.3
							c0.2,0.7,0.7,1.4,1.2,2c-0.2,0.8-0.1,1.6,0.1,2.3c0.3,0.7,0.7,1.4,1.2,2c-0.2,0.9-0.1,1.6,0.2,2.3c0.1,0.4,0.3,0.7,0.6,1
							c0.2,0.3,0.5,0.6,0.8,0.9c-0.2,1,0,2,0.5,2.9l0,0c0.3,0.6,0.7,1.1,1.2,1.6c-0.1,0.9,0,1.6,0.3,2.3c0.3,0.7,0.9,1.3,1.4,1.9
							c-0.1,0.9,0.1,1.6,0.4,2.3c0.4,0.7,0.9,1.3,1.5,1.8c-0.2,1.8,0.8,3,2,4.1c-0.2,1.7,0.8,3,2.1,4c-0.1,0.9,0.2,1.6,0.6,2.3
							c0.4,0.6,1,1.2,1.6,1.7c-0.1,1,0.3,1.9,0.9,2.7l0.4-0.2l-0.4,0.2c0.4,0.5,0.9,1,1.4,1.4c-0.1,1.7,0.9,2.9,2.2,3.9
							c0,1.8,1,2.9,2.2,3.9c0,1.7,1,2.9,2.3,3.9c0,1.7,1,2.9,2.3,3.9c0,0.4,0,0.8,0.2,1.2c0.1,0.4,0.2,0.7,0.4,1
							c0.2,0.3,0.4,0.6,0.7,0.9c0.1,0.1,0.3,0.3,0.4,0.4c0.1,0.1,0.3,0.3,0.4,0.4c-0.1,0.5,0,1,0.1,1.4c0.1,0.2,0.2,0.4,0.3,0.6
							c0.1,0.2,0.2,0.4,0.3,0.6l0,0c0.3,0.5,0.7,1,1.2,1.5c-0.2,0.8-0.1,1.6,0.2,2.2c0.2,0.3,0.3,0.7,0.5,1c0.2,0.3,0.5,0.6,0.7,0.9
							c-0.1,0.4-0.1,0.8-0.1,1.2c0,0.4,0.1,0.7,0.2,1.1c0.2,0.7,0.7,1.3,1.1,2c-0.3,0.8-0.2,1.6,0,2.3c0.2,0.7,0.6,1.4,1,2
							c-0.3,0.8-0.3,1.5-0.1,2.3c0.1,0.4,0.2,0.7,0.4,1.1c0.2,0.3,0.4,0.7,0.6,1c-0.3,0.8-0.3,1.5-0.2,2.3c0.1,0.7,0.5,1.4,0.9,2.1
							c-0.5,0.9-0.4,1.9-0.2,2.8l2-0.2l-2,0.2c0.2,0.6,0.4,1.2,0.7,1.8c-0.7,1.5-0.4,3,0.4,4.4c-0.8,1.5-0.4,3,0.2,4.5
							c-0.8,1.5-0.5,3,0.1,4.4c-0.9,1.5-0.6,2.9,0,4.5c-0.5,0.7-0.6,1.5-0.6,2.2c0,0.7,0.2,1.5,0.5,2.3c-0.6,0.8-0.7,1.8-0.6,2.8
							l0,0c0,0.6,0.2,1.2,0.4,1.9c-1,1.4-0.8,2.9-0.4,4.4c-0.3,0.3-0.4,0.7-0.6,1.1c-0.1,0.4-0.2,0.7-0.2,1.1c0,0.7,0.1,1.5,0.3,2.3
							c-1.1,1.3-1,2.8-0.6,4.4c-1.1,1.3-1.1,2.8-0.8,4.4c-0.6,0.6-0.9,1.3-1,2c-0.1,0.4-0.1,0.7-0.1,1.1c0,0.4,0,0.8,0.1,1.2
							c-0.8,0.7-1.1,1.6-1.2,2.6l0,0c0,0.3-0.1,0.6-0.1,0.9c0,0.3,0,0.6,0,1c-0.6,0.6-1,1.2-1.2,1.9c-0.2,0.7-0.2,1.5-0.2,2.3
							c-0.6,0.6-1.1,1.2-1.3,1.9c-0.1,0.3-0.2,0.7-0.2,1.1c0,0.4-0.1,0.8-0.1,1.2c-0.3,0.2-0.6,0.5-0.8,0.8c-0.2,0.3-0.4,0.6-0.5,1
							c-0.3,0.7-0.4,1.4-0.4,2.2c-0.7,0.4-1.2,1-1.5,1.7c-0.3,0.7-0.5,1.4-0.6,2.2c-1.5,0.8-2,2.2-2.3,3.7c-0.9,0.4-1.6,1.1-2,2
							l2,1.4c0.5-0.2,1-0.4,1.5-0.4l0.1,0.1l-0.9,0.8l0,0c-0.2,0.1-0.4,0.3-0.7,0.4c-0.3,0.2-0.6,0.3-0.9,0.5
							c-0.2,0.1-0.4,0.3-0.7,0.4c-0.5-0.3-1,0.2-1.6,0c0.5-0.4,1-0.7,1.4-1c0.4-0.2,0.8-0.3,1.2-0.4c0.2-0.1,0.5-0.2,0.8-0.3
							l-2.1-1.5c-0.3,0.5-0.5,1.1-0.7,1.8c-0.8,0.3-1.4,0.8-1.8,1.4c-0.4,0.6-0.7,1.3-1,2.1c-0.8,0.3-1.4,0.8-1.8,1.3
							c-0.5,0.6-0.8,1.3-1,2.1c-1.6,0.5-2.4,1.8-3,3.3c-1.6,0.5-2.4,1.8-3,3.3c-0.8,0.2-1.4,0.7-1.9,1.2c-0.5,0.6-0.8,1.3-1.1,2
							c-1,0.2-1.2,0.7-1.4,1.5c-0.2,0.9,0.9,1.9,0.9,1.9c0.5-0.2,1-0.2,1.6-0.2l0,0.1c0,0,0.4,0.3,1-0.1c0.6-0.3,0.6-0.4,1.1-1.7
							c1.7-0.4,2.5-1.8,3.1-3.3c0.8-0.2,1.5-0.7,1.9-1.3c0.5-0.6,0.8-1.3,1.1-2.1c0.8-0.3,1.5-0.7,1.9-1.3c0.5-0.6,0.8-1.3,1.1-2.1
							c0.8-0.3,1.4-0.8,1.9-1.4c0.4-0.6,0.8-1.4,1-2.1c0.4-0.2,0.8-0.3,1.1-0.6c0.3-0.2,0.6-0.5,0.8-0.9c0.4-0.6,0.7-1.4,1-2.2
							c0.3-0.1,0.5-0.2,0.8-0.4l-0.1-0.1c1.2-0.8,1.8-2.1,2-3.5c0.4-0.2,0.7-0.4,1-0.7c0.3-0.3,0.5-0.6,0.7-0.9
							c0.4-0.7,0.6-1.5,0.7-2.3c0.4-0.2,0.7-0.5,1-0.8c0.3-0.3,0.5-0.6,0.6-1c0.2-0.4,0.3-0.7,0.4-1.1c0.1-0.4,0.1-0.8,0.2-1.2
							c1.5-1,1.8-2.6,1.8-4.2c0.7-0.6,1.1-1.2,1.3-2c0.1-0.2,0.1-0.4,0.1-0.6c0-0.2,0.1-0.4,0.1-0.6c0-0.4,0-0.8,0-1.2
							c0.3-0.3,0.6-0.6,0.8-0.9c0.2-0.3,0.3-0.7,0.4-1.1c0.2-0.7,0.2-1.5,0.1-2.4c0.2-0.2,0.4-0.4,0.6-0.6l-0.1,0
							c0.4-0.6,0.7-1.2,0.8-1.9c0.1-0.7,0.1-1.4,0-2.1c0.6-0.6,0.9-1.4,1.1-2.1c0.1-0.8,0.1-1.6-0.1-2.4c1.2-1.3,1.1-2.9,0.7-4.5
							c1.1-1.4,1-3,0.6-4.5c0.5-0.7,0.8-1.4,0.8-2.2c0-0.8-0.1-1.5-0.4-2.3c1-1.4,0.8-3,0.3-4.6c0.2-0.2,0.3-0.5,0.4-0.7l-0.7,0
							l0.6,0c0.3-0.7,0.4-1.3,0.3-2c0-0.7-0.2-1.3-0.5-2c0.5-0.7,0.6-1.5,0.6-2.3C92.4,270.2,92.2,269.4,91.9,268.7z M48.4,21.6
							c0,0,0-0.2,0-0.5c0-0.3,0.1-0.7,0.2-1.2c0.2-1,0.4-2.1,0.7-2.9c-0.1-0.1,0.1-0.3,0.2-0.3c0.1,0.1,0.1,0.1,0.1,0.3
							c0,0.2,0,0.4,0,0.6c0,0.3,0,0.6-0.1,1c0,0.3-0.1,0.6-0.2,0.9c-0.2,0.6-0.4,1.2-0.7,1.7C48.6,21.4,48.5,21.5,48.4,21.6z
							 M49.3,25.9c-0.1-0.4,0.1-1.4,0.4-2.4c0.2-0.5,0.3-1,0.5-1.4c0.2-0.4,0.4-0.8,0.6-0.9c0.1,0.2,0.1,0.6,0.1,1
							c-0.1,0.4-0.2,1-0.3,1.5C50.2,24.7,49.7,25.7,49.3,25.9z M50,30.3c0-0.3,0.1-0.5,0.1-0.8c-0.1,0,0.1-0.7,0.5-1.5
							c0.3-0.8,0.8-1.8,1.3-2.4c0,0.1-0.1,0.8-0.2,1.5c-0.2,0.7-0.4,1.5-0.6,2C50.8,29.6,50.1,30.4,50,30.3z M50.6,34.8
							c-0.1-0.4,0.2-1.4,0.6-2.4c0.4-1,0.9-1.9,1.3-2.2c0.1,0.4-0.1,1.4-0.5,2.4C51.6,33.6,51,34.6,50.6,34.8z M50.9,39.2
							c0-0.2,0-0.5,0.1-1c0.1-0.4,0.3-0.9,0.5-1.4c0.5-0.9,1-1.9,1.4-2.1c0.1,0.4-0.2,1.5-0.6,2.4C52,38.1,51.4,39,50.9,39.2z
							 M51.2,98.8c0,0.1-0.2,0.4-0.3,0.5c-0.5,1.2-1.2,2.3-2.2,3.1c-0.1,0.1-0.2,0.2-0.3,0.3c0,0,0.1-0.2,0.2-0.5
							c0.1-0.3,0.3-0.7,0.6-1.1c0.5-0.9,1.1-1.9,1.7-2.4c0-0.1,0.2-0.2,0.3-0.2C51.2,98.6,51.2,98.6,51.2,98.8z M53.1,71.6
							c0,0.1-0.2,0.4-0.3,0.5c-0.5,1.2-1.2,2.3-2.2,3.1c-0.1,0.1-0.2,0.2-0.3,0.3c0,0,0.1-0.2,0.2-0.5c0.1-0.3,0.3-0.7,0.6-1.1
							c0.5-0.9,1.1-1.9,1.6-2.4c0-0.1,0.2-0.2,0.3-0.2C53.1,71.4,53.1,71.5,53.1,71.6z M51.5,47.9c0.1-0.3,0.3-0.7,0.5-1.2
							c0.4-0.9,0.9-1.9,1.4-2.6c0-0.1,0.2-0.3,0.3-0.2c0.1,0.1,0.1,0.2,0.1,0.3c0,0.2-0.1,0.4-0.2,0.6c-0.4,1.2-1,2.4-1.9,3.3
							c-0.1,0.1-0.2,0.2-0.3,0.3C51.3,48.4,51.4,48.2,51.5,47.9z M53.7,48.6c0.1,0.4-0.3,1.4-0.8,2.4c-0.5,0.9-1.2,1.8-1.6,1.9
							C51.1,52.1,52.8,49,53.7,48.6z M51.3,56.5c-0.1,0,1.2-2.5,2.4-3.5c0,0.3-0.9,2.4-1.5,3.3c-0.3,0.4-1.1,1-1.2,1
							C51.2,57,51.3,56.8,51.3,56.5z M53.6,57.6c0.1,0.8-1.6,3.9-2.6,4.2C50.9,61,52.8,57.9,53.6,57.6z M53.5,62.1
							c0.1,0.9-1.7,3.8-2.6,4.2C50.7,65.5,52.6,62.6,53.5,62.1z M53.2,66.6l0.1,0.1L53,67.8l0,0c-0.1,0.2-0.2,0.5-0.3,0.7
							c-0.2,0.3-0.4,0.6-0.5,0.9c-0.1,0.2-0.2,0.5-0.3,0.7c-0.5,0-0.7,0.8-1.4,0.9c0.2-0.6,0.4-1.2,0.6-1.7c0.3-0.4,0.5-0.7,0.7-1
							c0.2-0.2,0.3-0.4,0.5-0.6l-0.1,0C52.4,67.3,52.8,66.9,53.2,66.6z M52.7,75.8c0.1,0.9-1.8,3.8-2.7,4.1
							C49.9,79.2,51.8,76.3,52.7,75.8z M49.9,83.6c-0.1,0,1.3-2.5,2.6-3.4c-0.1,0.3-1,2.3-1.7,3.2c-0.3,0.4-1.1,1-1.2,1
							C49.7,84.2,49.8,83.9,49.9,83.6z M52.1,84.8c0.1,0.8-1.8,3.8-2.8,4.1C49.2,88.1,51.3,85.1,52.1,84.8z M51.8,89.3
							c0.1,0.9-1.8,3.8-2.7,4.1C48.9,92.6,50.9,89.7,51.8,89.3z M50.3,94.9c0.3-0.5,0.7-0.8,1.1-1.1l0.1,0.1L51.1,95l0,0
							c-0.1,0.2-0.2,0.5-0.3,0.7c-0.2,0.3-0.4,0.6-0.5,0.9c-0.1,0.2-0.2,0.5-0.3,0.7c-0.5,0-0.7,0.7-1.4,0.9
							c0.2-0.6,0.4-1.2,0.6-1.6c0.3-0.4,0.5-0.7,0.7-1c0.2-0.2,0.3-0.4,0.5-0.6l-1.3-0.1L50.3,94.9z M50.8,103
							c0.1,0.9-1.8,3.8-2.7,4.1C48,106.3,49.9,103.4,50.8,103z M48.1,110.8c-0.1,0,1.3-2.5,2.6-3.4c0,0.3-1,2.3-1.6,3.2
							c-0.3,0.4-1.1,1-1.2,1C47.9,111.3,48,111.1,48.1,110.8z M50.3,112c0.1,0.8-1.7,3.9-2.6,4.2C47.6,115.3,49.5,112.3,50.3,112z
							 M48.5,118.4c0.5-0.9,1.2-1.7,1.7-1.9c0.1,0.9-1.7,3.8-2.6,4.2C47.5,120.2,48,119.3,48.5,118.4z M50.8,143.5
							c0.1,0.4-0.2,1.4-0.5,2.4c-0.4,1-0.9,1.9-1.3,2.2c-0.1-0.2,0-0.6,0.1-1c0.1-0.4,0.3-0.9,0.5-1.4
							C49.9,144.6,50.4,143.7,50.8,143.5z M50.4,139c0.1,0.4-0.2,1.4-0.6,2.4c-0.4,1-1,1.9-1.4,2.1c-0.1-0.4,0.2-1.4,0.6-2.4
							C49.5,140.1,50.1,139.2,50.4,139z M47.6,129.9c0,0,0-0.2,0.2-0.5c0.1-0.3,0.3-0.7,0.5-1.2c0.4-0.9,1-1.9,1.5-2.5
							c0-0.1,0.2-0.2,0.3-0.2c0.1,0.1,0.1,0.2,0,0.3c0,0.1-0.1,0.4-0.2,0.6c-0.5,1.2-1,2.3-1.9,3.2
							C47.8,129.7,47.7,129.8,47.6,129.9z M48.5,132.1c0.5-0.9,1.1-1.8,1.6-2.1c0.1,0.4-0.3,1.4-0.8,2.3c-0.5,0.9-1.1,1.8-1.5,2
							C47.6,134,48,133.1,48.5,132.1z M47.9,139c0-0.3,0.1-0.5,0.1-0.8c-0.1,0,0.2-0.7,0.6-1.4c0.4-0.8,1-1.7,1.6-2.2
							c0,0.3-0.7,2.4-1.3,3.4C48.7,138.3,48,139,47.9,139z M49.7,152.8c0.1-0.7,0.1-1.3,0.2-1.8c0.2-0.4,0.3-0.8,0.5-1.2
							c0.1-0.3,0.2-0.5,0.3-0.7l-0.1,0c0.2-0.5,0.5-1,0.8-1.4l0.1,0c0,0.4-0.1,0.8-0.1,1.2l0,0c-0.1,0.3-0.1,0.5-0.2,0.8
							c-0.1,0.3-0.2,0.6-0.3,1c-0.1,0.2-0.1,0.5-0.1,0.8C50.2,151.7,50.3,152.5,49.7,152.8z M50.8,157.2c0,0,0-0.2,0-0.5
							c0-0.3,0.1-0.8,0.2-1.2c0.1-0.5,0.2-1,0.4-1.5c0.2-0.5,0.3-0.9,0.5-1.3c-0.1-0.1,0.1-0.3,0.2-0.3c0.1,0.1,0.1,0.2,0.1,0.3
							c0,0.2-0.1,0.4-0.1,0.6c-0.2,1.2-0.5,2.5-1.2,3.6C51,156.9,50.9,157,50.8,157.2z M51.9,161.5c-0.2-0.4-0.1-1.4,0.2-2.4
							c0.3-1,0.7-2,1.1-2.4c0.2,0.4,0,1.4-0.3,2.5C52.7,160.2,52.3,161.2,51.9,161.5z M53.9,164.6c-0.1,0.5-0.7,1.3-0.8,1.3
							c0-0.3,0-0.5-0.1-0.8c0,0,0-0.7,0.2-1.5c0.2-0.9,0.6-1.9,1-2.5C54.4,161.3,54.2,163.5,53.9,164.6z M56.1,172
							c0.2-1,0.5-2.1,0.9-2.4c0.1,0.2,0.2,0.6,0.1,1c0,0.2,0,0.5-0.1,0.7c0,0.2-0.1,0.5-0.1,0.8c-0.2,1-0.5,2-0.8,2.4
							C55.9,174.1,56,173,56.1,172z M54.6,170.2c-0.2-0.3-0.1-1.4,0.1-2.5c0.2-1.1,0.6-2.1,0.9-2.4c0.2,0.4,0.1,1.4-0.1,2.4
							C55.3,168.8,55,169.9,54.6,170.2z M58.7,177.6c-0.5,0.2-0.3,1-0.8,1.4c-0.1-0.7-0.1-1.3-0.2-1.8c0.1-0.5,0.1-0.8,0.2-1.2
							c0-0.3,0.1-0.5,0.2-0.8l-2,0.8l1.9-0.7c0.1-0.5,0.3-1,0.5-1.5l0.1,0l0.1,1.2l0,0c0,0.3,0,0.5,0,0.8c0,0.3-0.1,0.7-0.1,1
							C58.6,177,58.7,177.3,58.7,177.6z M60,182.6c-0.1,0.1-0.1,0.3-0.2,0.4c0,0,0-0.2,0-0.5c0-0.3,0-0.8,0-1.3c0-1,0.1-2.1,0.4-2.9
							c-0.1-0.1,0.1-0.3,0.2-0.3c0.1,0.1,0.1,0.1,0.2,0.3c0,0.2,0,0.4,0,0.6C60.5,180.2,60.5,181.4,60,182.6z M62.3,184.7
							c-0.1,1-0.3,2.1-0.6,2.4c-0.2-0.3-0.3-1.4-0.2-2.4c0.1-1,0.3-2.1,0.6-2.5C62.3,182.6,62.4,183.6,62.3,184.7z M64.1,189.7
							c-0.1,0.5-0.5,1.4-0.5,1.4c-0.1-0.3-0.1-0.5-0.2-0.8c-0.1,0-0.1-2.8,0.5-4.2C64,186.4,64.3,188.6,64.1,189.7z M65.8,195.2
							c-0.5-0.6-0.4-4.3,0.2-4.9C66.5,190.9,66.4,194.4,65.8,195.2z M68,194.2c0.6,0.7,0.5,4.1-0.1,4.9
							C67.4,198.5,67.5,195,68,194.2z M70.2,203.4c-0.1-0.7-0.3-1.2-0.4-1.7c0-0.5,0-0.8,0.1-1.2c0-0.3,0-0.5,0.1-0.8l-0.1,0.1
							c0-0.5,0.1-1.1,0.3-1.6l0.1,0l0.3,1.2L71,199l-0.5,0.3c0,0.3,0.1,0.5,0.1,0.8c0,0.3,0,0.7,0,1c0,0.2,0.1,0.5,0.1,0.8
							C70.3,202.2,70.6,202.9,70.2,203.4z M72.6,206.8c0,0.1-0.1,0.3-0.1,0.4c0,0-0.1-0.2-0.1-0.5c0-0.3-0.1-0.8-0.1-1.3
							c-0.1-1-0.1-2.2,0-2.9c-0.1-0.1,0-0.3,0.1-0.3c0.1,0.1,0.2,0.1,0.2,0.3c0,0.1,0.1,0.4,0.1,0.6C72.9,204.3,73,205.5,72.6,206.8
							z M74.7,211.1c-0.5-0.6-0.6-4.1,0-4.9C75.3,206.8,75.3,210.3,74.7,211.1z M77.3,213.5c0,0.5-0.4,1.5-0.5,1.5
							c-0.1-0.3-0.2-0.5-0.2-0.8c-0.1,0.1-0.3-2.8,0.3-4.3C77,210.2,77.4,212.4,77.3,213.5z M79.2,218.9c-0.5-0.6-0.5-4.2,0-4.9
							C79.7,214.6,79.9,218.1,79.2,218.9z M56.8,347.2c0.5-0.7,3.8-1.7,4.7-1.4C61,346.5,57.7,347.5,56.8,347.2z M59.9,343.9
							c0.4-0.7,3.9-1.7,4.7-1.5C64.1,343.2,60.8,344.3,59.9,343.9z M64.4,340.6c-0.5,0.1-1.5,0.1-1.5,0c0.2-0.2,0.4-0.3,0.7-0.5
							c-0.1-0.1,2.5-1.1,4.1-1.1C67.5,339.2,65.5,340.3,64.4,340.6z M65.9,337.3c0.4-0.7,3.6-1.9,4.6-1.6
							C70.1,336.4,66.8,337.6,65.9,337.3z M73.3,332.3c-0.1,0.1-0.3,0.2-0.5,0.3c-1.1,0.6-2.3,1.2-3.6,1.3c-0.1,0-0.3,0-0.4,0
							c0,0,0.2-0.1,0.4-0.3s0.7-0.4,1.1-0.6c0.9-0.4,2-0.9,2.8-1.1c0-0.1,0.3-0.1,0.4,0C73.5,332.2,73.5,332.3,73.3,332.3z
							 M91.5,262.3c0,0.3-0.8,2.4-1.4,3.4c-0.3,0.4-1.1,1.1-1.1,1c0.1-0.3,0.1-0.5,0.2-0.8C89.1,265.9,90.3,263.3,91.5,262.3z
							 M90.6,260.2c-0.5,0.9-1.1,1.8-1.5,2c-0.1-0.4,0.3-1.3,0.8-2.3c0.5-0.9,1.1-1.8,1.5-2.1C91.4,258.3,91.1,259.3,90.6,260.2z
							 M91.1,253.5c0,0.2-0.1,0.4-0.2,0.6c-0.4,1.2-0.8,2.4-1.7,3.4c-0.1,0.1-0.2,0.2-0.3,0.3c0,0,0-0.2,0.1-0.5
							c0.1-0.3,0.3-0.7,0.4-1.2c0.3-0.9,0.8-2,1.3-2.6c0-0.1,0.1-0.3,0.3-0.2C91.1,253.3,91.1,253.4,91.1,253.5z M81,220.4
							c0-1,0.2-2.1,0.4-2.5c0.3,0.4,0.4,1.4,0.4,2.5c-0.1,1.1-0.3,2.1-0.6,2.5C81,222.4,81,221.4,81,220.4z M83.8,225.8
							c-0.5,0.2-0.3,1-0.9,1.4c0-0.7-0.1-1.2-0.1-1.7c0.1-0.4,0.1-0.8,0.2-1.2c0-0.3,0.1-0.5,0.2-0.8l-0.1,0c0-0.6,0.2-1.1,0.4-1.5
							l0.1,0c0.1,0.4,0.1,0.8,0.2,1.2l0,0c0,0.3,0,0.5,0,0.8c0,0.3-0.1,0.7-0.1,1C83.8,225.2,83.8,225.5,83.8,225.8z M84.7,230.9
							c-0.1,0.1-0.2,0.2-0.2,0.4c0,0,0-0.2,0-0.5c0-0.3,0.1-0.8,0.1-1.2c0.1-0.5,0.1-1,0.2-1.5c0.1-0.5,0.2-1,0.3-1.4
							c-0.1-0.1,0.1-0.3,0.2-0.3c0.1,0.1,0.1,0.1,0.2,0.3c0,0.2,0,0.4,0,0.6c0,0.6-0.1,1.3-0.2,1.9
							C85.2,229.7,85.1,230.3,84.7,230.9z M85.6,235.5c-0.2-0.4,0-1.4,0.3-2.4c0.2-1,0.6-2,1-2.4c0.2,0.4,0.1,1.5-0.1,2.5
							C86.4,234.3,86,235.2,85.6,235.5z M86.5,239.9c0-0.3,0-0.5,0-0.8c0,0,0.1-0.7,0.4-1.5c0.3-0.8,0.7-1.9,1.2-2.5
							c0,0.1,0,0.3,0,0.5c0,0.3-0.1,0.6-0.1,1c-0.1,0.7-0.3,1.5-0.5,2.1C87.3,239.1,86.6,239.9,86.5,239.9z M87.4,244.2
							c-0.2-0.4,0.1-1.4,0.5-2.4c0.4-1,0.8-2,1.2-2.2c0.1,0.2,0.1,0.6,0,1c-0.1,0.4-0.2,1-0.4,1.5C88.3,243,87.8,244,87.4,244.2z
							 M88,248.7c-0.1-0.4,0.2-1.4,0.5-2.4c0.4-1,0.9-1.9,1.3-2.2c0.2,0.4-0.1,1.5-0.5,2.4C89,247.5,88.4,248.4,88,248.7z
							 M88.4,253.4c0.1-0.7,0.2-1.2,0.3-1.7c0.2-0.4,0.4-0.8,0.5-1.1c0.1-0.2,0.2-0.5,0.4-0.7l-0.1,0c0.2-0.5,0.5-0.9,0.9-1.3l0.1,0
							l-0.2,1.2l0,0h0c-0.1,0.3-0.1,0.5-0.2,0.8c-0.1,0.3-0.3,0.6-0.4,1c-0.1,0.2-0.1,0.5-0.2,0.8C89.1,252.4,89,253.1,88.4,253.4z
							 M76.8,326c-0.2,0.1-0.5,0.2-0.7,0.3c-0.2,0.1-0.5,0.2-0.7,0.2c-0.4,0.1-0.8,0.2-1.1,0.1c0.2-0.4,1-0.9,2-1.4
							c0.9-0.5,1.9-0.9,2.4-0.8C78.6,324.9,77.7,325.5,76.8,326z M79.2,322.1c-0.9,0.5-1.9,1-2.4,0.8c0.1-0.4,1-1,1.9-1.5
							c0.5-0.3,0.9-0.5,1.4-0.7c0.4-0.2,0.8-0.3,1-0.3C80.9,320.9,80.1,321.6,79.2,322.1z M82.1,317.3c-0.5,0.5-1.2,1-1.7,1.3
							c-0.4,0.2-1.4,0.4-1.5,0.4c0.2-0.2,0.4-0.4,0.5-0.6c0,0,0.1-0.1,0.3-0.3c0.2-0.2,0.5-0.4,0.9-0.6c0.7-0.5,1.7-1,2.4-1.3
							C83.1,316.4,82.6,316.8,82.1,317.3z M84.2,312.9c-0.3,0.3-0.7,0.7-1.1,1c-0.8,0.7-1.8,1.2-2.2,1.2c0.1-0.4,0.8-1.1,1.6-1.7
							c0.8-0.7,1.7-1.3,2.2-1.3C84.7,312.3,84.5,312.6,84.2,312.9z M86.2,308c-0.1,0.1-0.2,0.3-0.4,0.5c-0.4,0.5-0.8,1-1.3,1.4
							c-0.5,0.4-1,0.8-1.6,1c-0.1,0.1-0.3,0.1-0.4,0.2c0,0,0.1-0.2,0.3-0.4c0.2-0.2,0.5-0.6,0.8-0.9c0.7-0.7,1.5-1.5,2.2-2
							c0-0.1,0.2-0.2,0.3-0.1C86.3,307.8,86.3,307.9,86.2,308z M86.5,304.9c-0.2,0.3-0.5,0.5-0.7,0.8c-0.2,0.2-0.3,0.4-0.5,0.6
							c-0.5-0.1-0.8,0.6-1.5,0.6c0.4-0.6,0.7-1,1-1.5c0.3-0.3,0.6-0.6,0.9-0.8c0.2-0.2,0.4-0.4,0.6-0.5l-0.1,0
							c0.4-0.4,0.8-0.7,1.3-0.9l0.1,0.1l-0.6,1l0,0C86.8,304.5,86.7,304.7,86.5,304.9z M87.3,300.8c-0.7,0.8-1.6,1.4-2.1,1.5
							c0-0.2,0.2-0.5,0.4-0.9c0.2-0.3,0.6-0.7,0.9-1.1c0.7-0.8,1.5-1.5,2-1.6C88.6,299.2,88,300.1,87.3,300.8z M88.2,296.4
							c-0.7,0.8-1.5,1.5-2,1.6c0-0.4,0.6-1.3,1.3-2.1c0.7-0.8,1.5-1.6,1.9-1.7C89.5,294.7,88.9,295.6,88.2,296.4z M89.5,291
							c-0.2,0.3-0.4,0.7-0.6,1c-0.2,0.3-0.4,0.6-0.6,0.8c-0.3,0.4-1.2,0.9-1.3,0.8c0.1-0.2,0.2-0.5,0.3-0.8c-0.1,0,0.3-0.6,0.9-1.3
							c0.6-0.7,1.3-1.5,2-1.9C90.2,289.8,89.9,290.4,89.5,291z M89.6,287.5c-0.6,0.8-1.4,1.6-1.8,1.7c0-0.4,0.5-1.3,1.1-2.1
							c0.6-0.8,1.4-1.7,1.8-1.8C90.7,285.7,90.2,286.6,89.6,287.5z M91.1,281c0,0.1-0.2,0.4-0.3,0.5c-0.6,1.2-1.2,2.2-2.2,3
							c-0.1,0.1-0.2,0.2-0.4,0.2c0,0,0.1-0.2,0.2-0.5c0.1-0.3,0.4-0.7,0.6-1.1c0.2-0.4,0.5-0.9,0.8-1.3c0.3-0.4,0.6-0.8,0.9-1.1
							c0-0.1,0.2-0.2,0.3-0.2C91.2,280.8,91.2,280.8,91.1,281z M91,277.2L91,277.2c-0.1,0.2-0.2,0.5-0.3,0.7
							c-0.2,0.3-0.4,0.6-0.5,0.9c-0.1,0.2-0.2,0.5-0.3,0.7c-0.5,0-0.7,0.7-1.4,0.9c0.2-0.6,0.5-1.2,0.6-1.6c0.3-0.4,0.5-0.7,0.7-1
							c0.2-0.2,0.3-0.4,0.5-0.6l-0.1,0c0.3-0.5,0.7-0.8,1.1-1.2l0.1,0.1C91.3,276.4,91.2,276.8,91,277.2z M90.6,273.8
							c-0.6,0.9-1.2,1.7-1.7,1.9c-0.1-0.4,0.4-1.3,0.9-2.2c0.5-0.9,1.2-1.7,1.7-2C91.6,271.9,91.2,272.9,90.6,273.8z M90.7,269.2
							c-0.5,0.9-1.2,1.8-1.7,1.9c-0.1-0.4,0.3-1.4,0.9-2.3c0.6-0.9,1.2-1.8,1.6-2C91.6,267.3,91.3,268.3,90.7,269.2z"/>
					</defs>
					<clipPath id="SVGID_8_">
						<use xlink:href="#SVGID_7_"  style="overflow:visible;"/>
					</clipPath>
					<g class="st3">
						<defs>
							<rect id="SVGID_9_" x="44.7" y="12.6" width="48" height="337"/>
						</defs>
						<clipPath id="SVGID_10_">
							<use xlink:href="#SVGID_9_"  style="overflow:visible;"/>
						</clipPath>
						<rect x="40" y="8.2" class="st4" width="57.5" height="346.1"/>
					</g>
				</g>
			</g>
		</g>
	</g>
</g>
<g>
	<defs>
		<path id="SVGID_11_" d="M54.2,142.9c-0.8-0.7-1.6-1.1-1.9-1.8c-0.3-0.7-0.7-1.4-1.6-1.2c-0.9,0.2-1.3,0.2-1.7,0.4
			c-0.4,0.3-1.7,1.1-1.7,1.5c0,0.4-0.2,4.1-0.2,4.1s0.4,0.2,0.6,0.2c0.2,0,1.3-0.9,1.3-0.9s0.5,0.1,1.1,0.4c0.6,0.3,0.9,0.5,0.9,0.5
			s-0.3,2.3-0.1,2.7c0.3,0.5,0.5,0.7,0.7,1.4c0.2,0.7,1.9,5.4,2.6,8.3c0.7,2.9,1.5,8.9,1.5,8.9s0.1,1.4-0.2,1.8
			c0.1,0.1,0.6,0.9,0.9,1.6c0.1,0.3,0.5,1.2,0.2,2.3c1.3,1.3,1.5,2.9,1.5,2.9s4.2-2.1,4.7-3.3c0.5-1.1-0.7-4.6-1-6.2
			c-0.3-1.5-4.4-11.9-7.2-16.1C53.8,149.3,54.9,143.6,54.2,142.9"/>
	</defs>
	<clipPath id="SVGID_12_">
		<use xlink:href="#SVGID_11_"  style="overflow:visible;"/>
	</clipPath>
	<g class="st5">
		<defs>
			<rect id="SVGID_13_" x="-532.3" y="-1993.1" width="1440" height="2768"/>
		</defs>
		<clipPath id="SVGID_14_">
			<use xlink:href="#SVGID_13_"  style="overflow:visible;"/>
		</clipPath>
		<rect x="42.1" y="134.9" class="st6" width="25.8" height="46.2"/>
	</g>
</g>
<g>
	<defs>
		<path id="SVGID_15_" d="M86,263.2c-1.7-1-5.8-1.4-6.9-1.4c-1.2-0.1-1.1-1.8-2.6-2c-1.4-0.3-3,0.2-3.4-1.6
			c-0.4-1.8-0.8-10.8-1.6-13.5c-0.8-2.7-2.1-3.7-2.5-5.9c-0.4-2.2,0-5.5-2.2-6.8c-1.8-1.1-4-5.1-6.6-8.4c-0.3-0.4-0.4-0.6-0.4-0.7
			l0,0c0,0-0.8-1.9-1.4-2.9c-0.6-1.1-1.3-2.3-2.4-2.7c-1.1-0.4-2.7-1.4-2.7-1.4s1,0.6,2.2,0.8c1.2,0.3,2.5,1.8,3,2.7
			c0.3,0.7,1.2,2.5,1.6,3.5c0.2,0,0.4,0,0.6-0.1c0.7-0.3,4.4-2.5,5-3.3c0.3-0.5,0.8-1.2,1.1-1.6c0,0-1.5,2.3-2.5,2.3
			c-1,0-1.7-0.6-2.5-2.5c0,0,1.5,2.6,2.4,2.1c0.9-0.4,2.6-1.9,2.6-1.9c0.1-0.2,0.2-0.3,0.2-0.4c0,0.3,0,3.3-0.2,4
			c-0.2,0.7-0.3,3.1-0.2,4.1c0.1,1.1-0.5,1.7,0.8,2c1.4,0.2,3.6,0.3,4.9,0.1c1.3-0.2,3.4-1,3.6-1.9c0.2-0.9-0.1-1.8,0.8-2.2
			c0.9-0.3,2.7,0,3.7-1.1c0.9-1.1,0.2-1.2,0.7-1.2c0.5-0.1,1.2-0.6,1.2-1c0-0.3-0.4-0.3-0.8-0.3c0.4,0,1.2-0.2,1.2-0.4
			c0.1-0.4-0.1-1.2-0.1-1.2l-1.2,0c0,0,1.7-0.3,1.5-0.7c-0.2-0.4-0.2-2.8-2.5-3.1c-2.3-0.2-4.2,1-4.2,1l-2.3-0.4c0,0,1-1.5,0.7-2.2
			c-0.4-0.7-3.3-0.8-3.3-0.8l2.2-0.1c0,0-0.3-0.6-0.3-1.6c0,0-1-0.8-1.7-1.7c-0.7-1-0.6-2.3-0.6-2.3s-1.1-0.7-1.7-1.8
			c-0.6-1.1-0.5-2.2-0.5-2.2s-1.3-0.8-1.8-2c-0.5-1.2-0.5-2.2-0.5-2.2l-0.7-0.6c0.1,0.9,0.2,3.5,0.7,5c0.8,2,1.7,9.5,0.6,10.9
			c-0.3,0.4-0.4,1.3-0.4,2.2c0-0.1,0-0.1,0-0.2c-0.3-3.2,0.6-2.1,0.4-5.7c-0.1-1.7-0.5-5.8-0.9-7c-0.4-1.2-0.5-5.2-0.5-5.2
			s-0.8-0.8-1.2-1.7c-0.3-0.7-0.2-1.6-0.2-1.6s-0.8-0.6-1.4-1.7c-0.4-0.7-0.6-1.4-0.6-1.4s-1.3,2.4-2,4.3c-0.5,1.3-1.3,3.6-1.7,5
			c-0.1,1.4-0.9,1.7-1.1,4.9c-0.2,3.2,1.3,8,1.3,8s-1.4-3.4-1.7-5.9c-0.3-2.2,0.1-3.6-0.4-3.6c-1.3,0.2-3.3,2-3.3,2s0.9-1.1,2.2-2
			c1.3-0.9,2.4-2.6,2.4-2.6s0-0.1,0.1-0.3c0-0.3-0.1-0.7-0.4-0.9c-0.1-0.1-0.5-0.1-0.8-0.5c-0.2-0.3-0.1-0.6-0.3-1
			c-0.3-0.5-1.5-0.9-1.8-1.5c-0.6-1-0.7-3.3-1.3-4.5c-0.6-1.1-1.5-1.2-2-2.1c-1-1.5-1.5-3.3-1.5-3.3s-0.5-3.4-0.9-5.4
			c-0.2-0.8-1.2-3.6-2.5-7c0.1,0.3-0.9-0.3-1.5-2.5c0,0,0.9,2,2.1,1.8c1.1-0.2,4-1.1,4-1.1s-2.8,1.3-3.7,1.4c-0.9,0-0.9,0.1-0.8,0.4
			c3-0.6,7.4-2.4,7.3-2.7c-0.9-1.8-0.5-2.5-0.5-2.9c-0.7-0.7-1.1-1.7-1.3-2.4c-0.3-0.9,0-1.9,0-1.9c-0.2-0.6-0.5-0.8-0.5-0.8
			c-1-0.3-4,0.8-6.1,1.7c-0.5,0.6-1.2,1.8-1,4.3c-0.4-2.2,0.1-3.5,0.5-4.2c-0.5-0.1-1.5-0.1-2,0c0,0,0.4,0.8-0.2,1
			c-0.5,0.2-1.2,0.2-1.3,0.2c-0.1,0-0.4,0.4-0.3,0.7c0,0.3,0.2,0.9-0.1,1c-0.3,0.1-0.6,0-0.6,0s0.4,0.8,0,1.1
			c-0.4,0.3-0.6,0.1-0.6,0.4c0,0.3,0.1,1.5-0.5,1.6c-0.7,0.1-1.8-0.3-2.3-0.8c-0.5-0.5-1-1-1-1s0.5-0.8,0.9-1.5
			c0.4-0.7,1.1-2.3,1.1-2.3s-1.1,2.8-1.3,3.1c-0.3,0.4-0.2,0.6,0,0.9c0.2,0.2,1.3,1.2,2.1,1.3c0.9,0.1,0.9-0.7,0.9-1.1
			c0-0.3-0.1-0.6,0.2-0.7c0.3-0.1,0.6,0,0.6-0.4l-0.1-0.8c0,0,0.4-0.1,0.5-0.1c0.2-0.1,0.1-0.8,0.1-1c0,0,0-0.3,0.1-0.5
			c0.1-0.2,0.3-0.3,0.3-0.3c0.1,0,0.6,0.1,1.1-0.1c0.6-0.2,0.2-1.1,0.2-1.1s-0.3-1-0.5-1.4c0.9-0.9,1.3-1.9,1.4-2.5
			c0.2-3.8-0.4-4.7-0.4-5.3c0,0-1.3,3.6-2,4.5c-0.7,0.9-0.4,0.6-0.4,0.6s0.7-0.1,0.8,0.2c0.1,0.3-0.6,1-0.6,1.3s0.1,1.8,0.1,1.8
			s-0.9,0.7-1,1c-0.2,0.3,0.5,0.5,1.1,0.3c0.6-0.2,0.6,0.5,0.6,0.5s-0.6,0.1-0.8,0.3c-0.2,0.3-0.5,0.7-0.5,0.9
			c0,0.2,0.4,0.6,0.2,0.7c-0.2,0.1-0.5,0.2-0.5,0.2s0,0.6-0.4,0.3c-0.3-0.3-0.1-0.5-0.7-0.5c-0.6,0-1.2-0.2-1.2-0.5
			c0-0.3,2.1-0.4,2.3-0.4c0.2,0.1,0.4-0.6,0.1-0.8c-0.3-0.1-1.1-0.9-0.7-1.4c0.5-0.8,1.4-0.9,1.4-0.9s0-1.6-0.4-1.6
			c-0.4,0.1-1.3,0.1-1.3,0.1l-1.5,2.3c0,0,1.4-3.1,2.5-4.1c1.1-1,2.8-5,2.8-5c3.6-2.7,3.8-22.2,3.8-22.2s3.2-3.6,3.5-4.4
			c0.3-0.7,0.2,0.7,0.2,0.7s1-0.8,1-1.4c0-0.6-0.2-1-0.2-1s0.2-0.7,0-0.9l-0.2-0.2c0,0,0.1-0.3,0-0.9l-0.1-0.6c0,0,0.2-1-0.1-1.4
			c-0.2-0.4-0.7-1.2-1.7-0.8c0,0-3.2,1.2-4,2.9c-0.9,1.8-1,4.3-2.1,6.3c-1,2.1-1.3,3.4-1.8,5.3c-0.4,1.9-2.5,7.2-3.2,9.4
			c-0.7,2.2-1.2,3.1-1.2,3.1s-2.7-1.6-6.5,0.6c-3.8,2.2-3.4,3.8-3.4,3.8s-0.4,0.1-0.6,0.5c-0.2,0.4-0.3,1.8-0.3,1.8
			s-0.6-0.1-0.9-0.7c-0.3-0.6,0.1-1.2,0.1-1.2s-3.8,0.6-5.1,3.8c-1.2,3.2-1.6,4.3-1.6,4.3s1.1-1.9,1.7-2.3c0.5-0.4-0.5,1.4-0.7,2.3
			c-0.2,1,0,2.4-0.7,3.3c-0.7,0.9-1.7,1.6-1.7,1.6s1.1,0,1.7-0.6c0.5-0.6,0.9-1.2,0.9-1.2s-0.4,1.1-0.6,1.8
			c-0.1,0.7-1.1,1.9-1.1,1.9s0.5,0.1,0.3,0.8c-0.2,0.7-0.8,3.5-0.6,5c0.2,1.5,0.5,2.2,0.6,1.8c0.1-0.5,0.5-3.3,0.9-4.4
			c0.4-1.2-1,5-0.9,6.1c0.1,1.1-0.3,1.9-0.3,1.9s0.9-0.6,0.7,0.2c-0.2,0.8-0.7,1.6-0.7,1.6s1.7-1.6,1.5-0.4
			c-0.2,1.2-2.3,4.1-2.3,4.1s1,0.5,1.4,0.2c0.4-0.3,0.7-0.7,0.7-0.7s-0.7,1.9,0,3c0.6,1,1.3,1.1,1.3,1.1s-0.8-0.9-0.5-1.8
			c0.3-1,0.9-1.2,0.9-1.2s0.2,2.2,0.7,3c0.5,0.8,0.5-0.8,0.9-0.6c0.4,0.2,1.4,3.2,1.5,3.9c0.1,0.6,0.9-2.1,0.6-3.6
			c-0.2-1.5-1.1-2.3-1.1-2.3s1,0.9,1.1,1.2c0.1,0.3-0.2-1.1-0.3-1.5c-0.9-1.3-3-4.7-3.6-7.2c-1-4.6,0.8-6,0.8-6
			c0,0.1-1.7,2.1-0.5,5.8c0.8,2.7,3.7,8,3.7,8c0.6,1,1.6,2.8,2.3,4.4c0.9,2.3,2.1,3.7,2.4,4.3c0.3,0.6,0.3,0.6,0.5,1.4
			c0.1,0.8,0.1,1.1,0.8,1.8c0.6,0.7,1.2,0.9,1.1,1.7c-0.1,0.8,0.6,2,1,3.2c0.4,1.2,1,1.7,1.1,2.3c0.2,0.6,0.9,1.5,1.1,2.7
			c0.2,1.2,0.4,1.2,0.7,1.9c0.4,0.7,0.2,1.5,0.4,1.8c0.2,0.3,0.4,0,0.4,0.7c0,0.7,0.5,1.7,0.5,1.7s1,0.6,1.3,1.1
			c0.3,0.5,0.5,0.6,0.5,1.5c0,0.6,0.2,1.4,0.3,2c0-0.2,0-0.4,0-0.7c0,0,0.4-2.6,2-4.2c1.6-1.6,2.4-1.9,2.4-1.9s-2.9,2-3.4,4.5
			c-0.5,2.5-0.5,3.7-0.4,3.5c0.1-0.2-0.2-2.8,1.8-5.4c1.9-2.5,5.5-3.5,5.5-3.5s-5.3,2.6-6.1,5.6c-0.8,3.1-0.5,4.5-0.3,5.2
			c0.2,0.7,0.4,1.6,0.4,1.6c0.2,0.3,0.4,0.6,0.6,0.9c-0.6-1.6-0.5-3.4-0.1-4.9c0.6-2.4,2.1-3.5,2.1-3.5s-2.4,2.7-1.8,6.6
			c0.3,2,1,2.9,1,2.9s-3.4-7.1,4-11.9c0,0-3.4,2.4-4.2,5.7c-1.2,5.1,1.7,7.7,2.1,8c0.5,0.4,0.7,0.4,0.7,0.4s3,1.4,6.3,3.9
			c3.3,2.5,5.4,3.9,6.2,4.7c0.8,0.8,1.3,1.8,1.1,2.7c-0.2,0.9-0.4,2.6-0.2,3.9c0.2,1.3,0.6,3.4,2.1,5.3c1.4,2,3.7,5,5.2,6.8
			c1.5,1.8,1.8,2.5,1.6,3.1c-0.2,0.6-0.4,1.5,0.2,2.3c0.7,0.8,2.9,3.6,3.9,3.9c1.1,0.3,1.9,0.2,2.4,0.5c0.5,0.3,3.9,4.3,7.6,5.1
			c3.7,0.8,5.3,0,6.2-2.1C89.7,267.6,87.7,264.2,86,263.2 M73.8,220.7c0.2-0.9,3-3,3.9-3.8c0.9-0.8,1.8-2.2,1.8-2.2
			c-0.1,1.3-1,2-2,2.9c-1,1-3.2,2.6-3.5,3.2c-0.2,0.6-0.3,1.7-0.3,1.7S73.5,221.6,73.8,220.7 M67.4,218.1c0,0,0.5-1.2,1.2-2.2
			c0.7-1,1.9-1.6,2.3-1.8c0.4-0.2-0.1-1.4,0-1.6c0.1-0.2,0.4-0.2,0.4-0.2s0.5,1.9,0,2.2c-0.5,0.2-2.9,2.8-3.5,3.9
			C67.2,219.4,67.1,219.1,67.4,218.1 M67.3,226.5c0.4-0.4,3.8-2.1,3.8-2.1c-1.7,1.2-2.8,2-3.4,2.2c-0.7,0.2,0.8,0.6,0.4,0.6
			C67.6,227.2,66.9,226.9,67.3,226.5 M42,163c-0.1-0.4,0.4-1,0.7-1.3c0.3-0.3,0.8,0.1,0.8,0.1c-0.4,0.2-0.3,0.4-0.4,0.8
			c-0.1,0.3-0.4,0.4-0.4,0.5c0,0.2,0.2,0.3,0.2,0.3s-0.3,0-0.4,0S42.1,163.4,42,163 M28.7,177.2c-2,0.7-1.3-4.8-1.3-4.8
			s0.4,3,0.9,3.6c0.5,0.6,1.5,0.1,3.6-1.9c2.1-2.1,5.3-6.4,5.3-6.4S33.8,174.8,28.7,177.2 M30.1,159.4c1.5-1.2,2,0.1,2,0.9
			c-0.1-0.3-0.6-1.7-1.8-0.6c-1.4,1.2-1,2.6-0.8,3c0.3,0.5,0.7,1.4,0.7,1.4s-0.2-0.2-0.7-0.8C28.8,162.4,28.6,160.5,30.1,159.4
			 M31.8,161.8c0,0,0,0.4-0.4,0.7c-0.4,0.3-0.9,0-0.9,0s-0.2-0.2,0-0.8c0.2-0.5,0.8-0.6,0.7-1.1c-0.2-0.5-1.4,0.7-1.4,0.7
			c1.1-2.3,1.5-1.5,1.8-1.2c0.2,0.3,0.2,1.1,0.2,1.1s-0.7,0.2-0.8,0.4C30.8,162,31.8,161.8,31.8,161.8 M24,170.2
			c0.7-1.3,1.9-2.6,2.3-3c0.5-0.5,0.2-0.8,0-1.8c-0.2-1.1-0.3-3.2-0.3-3.2c0.3,2.5,0.8,3.7,1.2,4c0.4,0.3,3-1.7,4.4-3.2
			c1.5-1.5,5.3-7.9,5.3-7.9s-2.6,4.7-4.2,7.1c-1.7,2.4-3.1,3.1-3.8,3.6c-0.7,0.5-1,0.9-1,0.9s0.4-0.2-1.4,1
			c-1.7,1.2-3.4,4.4-3.4,4.4S23.3,171.6,24,170.2 M29.7,187c0.3,3.1,0,3.6,0,3.6s-0.1-2.1-0.4-3.6c-0.2-1.4,0.6-4.4,0.2-5
			c-0.3-0.6-3,0.3-3.2-1.9c0,0,0.7,1.4,2.4,0.9c1.8-0.6,2.3-0.9,2.3-0.9S29.4,183.9,29.7,187 M35,190.7c-0.2,2.7,0,13.7,0,13.7
			s-1.9-10.7-1.9-15.7c0-5-1.1-4.9-1.6-2.1c-0.2,1.2-0.4,2.9-0.6,4.7c-0.3,2.4-0.1,5-0.1,5s-0.5-3.3,0-6.8c0.3-2.1-0.4-6.8,1.2-10.3
			c0.9-2-1.2-0.4-2.3-0.1c-1,0.3-2.7,0-3.9-2c-0.7-1.2-2.5,0.1-0.1,6.3c0,0-0.6-0.6-1.7-4c-1.1-3.4,2.6-6,2.6-6v2.5
			c0,1.6,0.9,2.2,2.1,2.2c2.1,0,6.5-5.4,6.5-5.4v0.4c0,0-0.9,3.5-1.8,6.8c-0.9,3.3,0.4,3.9,0.3,9.5C33.9,203.9,35.2,183.4,35,190.7
			 M36.7,180.8c0,0-0.3-1.8-0.7-2.1c0.2,1.8,0,3-0.1,4.4c-0.1,0.7,0.1-4.2-0.4-5.9c-0.4-1.8,0-4.7,0.6-5.5c0,0-1.1,3.2-0.1,5.8
			C36.9,179.9,36.7,180.8,36.7,180.8 M54.5,200.4c0.5,0.9,0.6,1.4,1.5,0.7c0.9-0.7,1.7-0.8,1.7-0.8s-1,0.8-2.5,1.8
			c-1.5,1-3.4,0.2-5.5,2c-2.1,1.7-6.3,3.6-7,1.3c-0.7-2.3-0.5-3.6-0.5-3.6s1.2,4.8,4.1,2.4c2.9-2.5,1.8-4.3,3.3-6.7
			c0,0-0.4,3.2,0.5,3.3c0.9,0.1,0.8-1.6,1.2-2.5c0.4-0.9,0.9-1.1,0.9-1.1s-0.7,2,0.7,2C54.1,199.3,54,199.6,54.5,200.4 M47.7,188.9
			c1.2,1,0.9-1.5,0.7-3c-0.2-1.5-0.6-4.1-0.6-4.1s2.8,8.5,1.9,9.2c-0.8,0.7-2.9-1.8-2.9-1.8s1.1,2.7,2.4,3.2
			c1.3,0.5,2.9,0.8,3.4,1.2c0.5,0.5,0.7,1.8,0.7,1.8s-1.2-1.2-3.7-1.7c-2.5-0.5-4.6-6.4-7-12.9C42.7,180.9,46.5,188,47.7,188.9
			 M43,197.9c2.6-0.9,4.4-0.2,3.1-0.3c-1.2-0.1-2.2,1-3.4,0.9c-1.1,0-1.7-1.6-1.6-4.3c0.1-2.7-1-14-1-14
			C42.5,192,40.8,198.6,43,197.9 M38.9,175c0.2,0.9,0.7,2.3,0.7,2.3s0-0.3-0.1-1.2c-0.1-0.8-0.7-3.5-0.7-3.5s0.5,0.9,0.7,1.2
			c0.2,0.3,0.1-0.7,0.1-0.7s0.4,0.2,1,1.4c0.6,1.1,1.1,3.3,1.1,3.3s-1.4-2.6-1.2-1.9c0.2,0.8,0.6,3,0.6,3s-0.5-1.3-0.7-2
			c-0.1-0.7-0.7-2.3-0.7-2.3s0.1,1.8,0,3c-0.1,1.2-0.4-0.8-0.7-1.2c-0.3-0.4,0.5,4.9,0.5,4.9s-0.3-1.3-0.6-2.8
			c-0.2-1.5-0.5-4.6-0.5-4.6S38.7,174.1,38.9,175 M37.1,193.6c0.1,2.6,0,4,0,4s-0.6-8.8,0-15.1c0,0,1.1,13.2,2.2,18.9
			c1.1,5.7,1,7,3.4,6.8c1.2-0.1,2.1-0.3,2.7-0.4c0.5-0.1,0.8-0.2,0.8-0.2s-0.2,0.1-0.8,0.2c-1.3,0.4-3.8,1.1-4.8,1.9
			c-1.3,1-1.5,1.1-1.5,1.1s0.9-1.1,0.6-3.3c-0.2-2.1-2.3-18-2.3-18S37,191.1,37.1,193.6 M47.4,209.5c-1.9,0.8-2.5,1.2-3.7,2.3
			c-1.2,1.1-3,2.3-4.1,2.9c-1.1,0.6-0.4,1.7-0.6,1.6c-1.5-1,2.7-3.5,2-3.1c-0.7,0.4-2.2,1.5-3.1,1c-0.9-0.4,1.7-2.8,2.2-3.1
			c0.6-0.3,2.2-0.1,2.2-0.1s-2.4,1-3.4,1.9c-0.9,0.9,0.5,0.3,1.5-0.2s3.2-1.8,4.4-2.7c2.2-1.5,3.9-1.9,5.7-2.5
			c2.4-0.8,4.7-1.6,4.7-1.6S49.2,208.8,47.4,209.5 M50.9,213.7c-0.5,0,0.7,0.3,1.1,0.5c0.4,0.2,0.4,0.3,0.4,0.3s-1.4-0.6-3-0.4
			c-1.5,0.2-3.2,1-3.2,1s1.5-0.9,2.1-1.1c0.5-0.2-5.5,1.1-6.7,7.7c0,0,0.3-3.9,3.3-6.2c3-2.3,4.9-2.2,5.9-2.2c1,0,1.9,0.5,1.9,0.5
			S51.4,213.7,50.9,213.7 M76.4,262.2c-0.4,0.3-1.5,0.3-1.8,1.2c-0.5,1.5-1,1.9-2.3,1.1c-1.3-0.8-2.2-1.5-2.2-1.5s2.6,1.7,3.5,1.3
			c0.9-0.5,0.3-1.2,1.3-1.7s0.6-1.7,0.5-2.1C75.3,260.1,76.8,261.9,76.4,262.2 M86.5,268.6c-0.7,0.3-0.2-0.7-0.6-1.4
			c-0.9-1.5-3.1-2.2-3.1-2.2C86.5,265.5,87,268.3,86.5,268.6 M85.1,271.3c-1.6,0.2-4.4-0.3-5.5-1.2c-1.1-0.9,0.6-0.2,2-1.8
			c0,0-0.2,0.8-0.5,1.1c-0.3,0.3-0.2,0.6,0.7,1c0.9,0.4,2.3,0.7,3.4,0.3c1.5-0.6,2-1.4,2-1.4S86.9,271.1,85.1,271.3"/>
	</defs>
	<clipPath id="SVGID_16_">
		<use xlink:href="#SVGID_15_"  style="overflow:visible;"/>
	</clipPath>
	<g class="st7">
		<defs>
			<rect id="SVGID_17_" x="-532.3" y="-1999.4" width="1440" height="2768"/>
		</defs>
		<clipPath id="SVGID_18_">
			<use xlink:href="#SVGID_17_"  style="overflow:visible;"/>
		</clipPath>
		<rect x="12.7" y="118.2" class="st8" width="81.3" height="158.9"/>
	</g>
</g>
<g>
	<defs>
		<path id="SVGID_19_" d="M64.9,187.4c1.2,1,1.8,2.2,1.8,2.2l-0.2-1.2c0,0,0.4,1.4,0.6,0.9c0.2-0.5,0.6-1.3,0.6-1.3s-0.7,3-0.7,3.5
			c0,0,0.9,0.7,1.6,1.8c0.7,1.1,0.6,2.2,0.6,2.2s0.8,0.6,1.5,1.5c0.8,1.1,0.8,2.6,0.8,2.6s1.3,1.1,1.7,1.9c0.3,0.6,0.5,2.1,0.5,2.1
			c0.9,0.7,1.6,1.7,1.6,1.7s1.6-4.9,2.1-8.4c0.5-3.5,0.2-7,0.2-7s-0.1-0.5-0.2-1.2c-0.1-0.7-0.2-3.4-0.3-4.6c-0.1-1.2,0-2.4-1.6-4.2
			c-1.6-1.8-5.3-2.1-6.7-1.2c-1.4,0.9-4.2,6.7-4.2,6.7S65.1,186.2,64.9,187.4"/>
	</defs>
	<clipPath id="SVGID_20_">
		<use xlink:href="#SVGID_19_"  style="overflow:visible;"/>
	</clipPath>
	<g class="st9">
		<defs>
			<rect id="SVGID_21_" x="-532.3" y="-1999.4" width="1440" height="2768"/>
		</defs>
		<clipPath id="SVGID_22_">
			<use xlink:href="#SVGID_21_"  style="overflow:visible;"/>
		</clipPath>
		<rect x="59.6" y="173.2" class="st10" width="23.1" height="37.1"/>
	</g>
</g>
<g>
	<defs>
		<rect id="SVGID_23_" x="-84" y="-1997.5" width="1440" height="2768"/>
	</defs>
	<clipPath id="SVGID_24_">
		<use xlink:href="#SVGID_23_"  style="overflow:visible;"/>
	</clipPath>
	<g class="st11">
		<g>
			<defs>
				<rect id="SVGID_25_" x="169" y="275.5" width="42" height="105"/>
			</defs>
			<clipPath id="SVGID_26_">
				<use xlink:href="#SVGID_25_"  style="overflow:visible;"/>
			</clipPath>
			<g class="st12">
				<defs>
					<rect id="SVGID_27_" x="169.4" y="276.2" width="40.6" height="104"/>
				</defs>
				<clipPath id="SVGID_28_">
					<use xlink:href="#SVGID_27_"  style="overflow:visible;"/>
				</clipPath>
				<g class="st13">
					<defs>
						<rect id="SVGID_29_" x="169" y="275.5" width="42" height="105"/>
					</defs>
					<clipPath id="SVGID_30_">
						<use xlink:href="#SVGID_29_"  style="overflow:visible;"/>
					</clipPath>
					<rect x="164.4" y="271.2" class="st14" width="50.6" height="114"/>
				</g>
			</g>
		</g>
	</g>
</g>
<g>
	<defs>
		<rect id="SVGID_31_" x="363.4" y="-1997.8" width="1440" height="2768"/>
	</defs>
	<clipPath id="SVGID_32_">
		<use xlink:href="#SVGID_31_"  style="overflow:visible;"/>
	</clipPath>
	<g class="st15">
		<g>
			<defs>
				<rect id="SVGID_33_" x="494.4" y="354.2" width="42" height="26"/>
			</defs>
			<clipPath id="SVGID_34_">
				<use xlink:href="#SVGID_33_"  style="overflow:visible;"/>
			</clipPath>
			<g class="st16">
				<defs>
					<rect id="SVGID_35_" x="494.8" y="354.6" width="40.6" height="25.3"/>
				</defs>
				<clipPath id="SVGID_36_">
					<use xlink:href="#SVGID_35_"  style="overflow:visible;"/>
				</clipPath>
				<g class="st17">
					<defs>
						<rect id="SVGID_37_" x="494.4" y="354.2" width="42" height="26"/>
					</defs>
					<clipPath id="SVGID_38_">
						<use xlink:href="#SVGID_37_"  style="overflow:visible;"/>
					</clipPath>
					<rect x="489.8" y="349.6" class="st18" width="50.6" height="35.3"/>
				</g>
			</g>
		</g>
	</g>
</g>
<g>
	<defs>
		<rect id="SVGID_39_" x="-84" y="-1997.5" width="1440" height="2768"/>
	</defs>
	<clipPath id="SVGID_40_">
		<use xlink:href="#SVGID_39_"  style="overflow:visible;"/>
	</clipPath>
	<g class="st19">
		<g>
			<defs>
				<rect id="SVGID_41_" x="88" y="315.5" width="41" height="65"/>
			</defs>
			<clipPath id="SVGID_42_">
				<use xlink:href="#SVGID_41_"  style="overflow:visible;"/>
			</clipPath>
			<g class="st20">
				<defs>
					<rect id="SVGID_43_" x="88" y="316.4" width="40.6" height="63.8"/>
				</defs>
				<clipPath id="SVGID_44_">
					<use xlink:href="#SVGID_43_"  style="overflow:visible;"/>
				</clipPath>
				<g class="st21">
					<defs>
						<rect id="SVGID_45_" x="88" y="315.5" width="41" height="65"/>
					</defs>
					<clipPath id="SVGID_46_">
						<use xlink:href="#SVGID_45_"  style="overflow:visible;"/>
					</clipPath>
					<rect x="83" y="311.4" class="st22" width="50.6" height="73.8"/>
				</g>
			</g>
		</g>
	</g>
</g>
<g>
	<defs>
		<rect id="SVGID_47_" x="-84" y="-1997.5" width="1440" height="2768"/>
	</defs>
	<clipPath id="SVGID_48_">
		<use xlink:href="#SVGID_47_"  style="overflow:visible;"/>
	</clipPath>
	<g class="st23">
		<g>
			<defs>
				<rect id="SVGID_49_" x="128" y="295.5" width="42" height="85"/>
			</defs>
			<clipPath id="SVGID_50_">
				<use xlink:href="#SVGID_49_"  style="overflow:visible;"/>
			</clipPath>
			<g class="st24">
				<defs>
					<rect id="SVGID_51_" x="128.7" y="296" width="40.6" height="84.3"/>
				</defs>
				<clipPath id="SVGID_52_">
					<use xlink:href="#SVGID_51_"  style="overflow:visible;"/>
				</clipPath>
				<g class="st25">
					<defs>
						<rect id="SVGID_53_" x="128" y="295.5" width="42" height="85"/>
					</defs>
					<clipPath id="SVGID_54_">
						<use xlink:href="#SVGID_53_"  style="overflow:visible;"/>
					</clipPath>
					<rect x="123.7" y="291" class="st26" width="50.6" height="94.3"/>
				</g>
			</g>
		</g>
	</g>
</g>
<g>
	<defs>
		<rect id="SVGID_55_" x="-84" y="-1997.5" width="1440" height="2768"/>
	</defs>
	<clipPath id="SVGID_56_">
		<use xlink:href="#SVGID_55_"  style="overflow:visible;"/>
	</clipPath>
	<g class="st27">
		<g>
			<defs>
				<rect id="SVGID_57_" x="250" y="171.5" width="42" height="209"/>
			</defs>
			<clipPath id="SVGID_58_">
				<use xlink:href="#SVGID_57_"  style="overflow:visible;"/>
			</clipPath>
			<g class="st28">
				<defs>
					<rect id="SVGID_59_" x="250.6" y="172.2" width="40.6" height="208.1"/>
				</defs>
				<clipPath id="SVGID_60_">
					<use xlink:href="#SVGID_59_"  style="overflow:visible;"/>
				</clipPath>
				<g class="st29">
					<defs>
						<rect id="SVGID_61_" x="250" y="171.5" width="42" height="209"/>
					</defs>
					<clipPath id="SVGID_62_">
						<use xlink:href="#SVGID_61_"  style="overflow:visible;"/>
					</clipPath>
					<rect x="245.6" y="167.2" class="st30" width="50.6" height="218.1"/>
				</g>
			</g>
		</g>
	</g>
</g>
<g>
	<defs>
		<rect id="SVGID_63_" x="-84" y="-1997.5" width="1440" height="2768"/>
	</defs>
	<clipPath id="SVGID_64_">
		<use xlink:href="#SVGID_63_"  style="overflow:visible;"/>
	</clipPath>
	<g class="st31">
		<g>
			<defs>
				<rect id="SVGID_65_" x="209" y="227.5" width="42" height="153"/>
			</defs>
			<clipPath id="SVGID_66_">
				<use xlink:href="#SVGID_65_"  style="overflow:visible;"/>
			</clipPath>
			<g class="st32">
				<defs>
					<rect id="SVGID_67_" x="210" y="228.1" width="40.6" height="152.2"/>
				</defs>
				<clipPath id="SVGID_68_">
					<use xlink:href="#SVGID_67_"  style="overflow:visible;"/>
				</clipPath>
				<g class="st33">
					<defs>
						<rect id="SVGID_69_" x="209" y="227.5" width="42" height="153"/>
					</defs>
					<clipPath id="SVGID_70_">
						<use xlink:href="#SVGID_69_"  style="overflow:visible;"/>
					</clipPath>
					<rect x="205" y="223.1" class="st34" width="50.6" height="162.2"/>
				</g>
			</g>
		</g>
	</g>
</g>
<g>
	<defs>
		<rect id="SVGID_71_" x="47.9" y="348.4" width="40.6" height="31.9"/>
	</defs>
	<clipPath id="SVGID_72_">
		<use xlink:href="#SVGID_71_"  style="overflow:visible;"/>
	</clipPath>
	<g class="st35">
		<defs>
			<rect id="SVGID_73_" x="-530.6" y="-1997.5" width="1440" height="2768"/>
		</defs>
		<clipPath id="SVGID_74_">
			<use xlink:href="#SVGID_73_"  style="overflow:visible;"/>
		</clipPath>
		<rect x="42.9" y="343.4" class="st36" width="50.6" height="41.9"/>
	</g>
</g>
<g>
	<defs>
		<rect id="SVGID_75_" x="-84" y="-1997.5" width="1440" height="2768"/>
	</defs>
	<clipPath id="SVGID_76_">
		<use xlink:href="#SVGID_75_"  style="overflow:visible;"/>
	</clipPath>
	<g class="st37">
		<g>
			<defs>
				<rect id="SVGID_77_" x="453" y="329.5" width="42" height="51"/>
			</defs>
			<clipPath id="SVGID_78_">
				<use xlink:href="#SVGID_77_"  style="overflow:visible;"/>
			</clipPath>
			<g class="st38">
				<defs>
					<rect id="SVGID_79_" x="453.8" y="329.6" width="40.6" height="50.7"/>
				</defs>
				<clipPath id="SVGID_80_">
					<use xlink:href="#SVGID_79_"  style="overflow:visible;"/>
				</clipPath>
				<g class="st39">
					<defs>
						<rect id="SVGID_81_" x="453" y="329.5" width="42" height="51"/>
					</defs>
					<clipPath id="SVGID_82_">
						<use xlink:href="#SVGID_81_"  style="overflow:visible;"/>
					</clipPath>
					<rect x="448.8" y="324.6" class="st40" width="50.6" height="60.7"/>
				</g>
			</g>
		</g>
	</g>
</g>
<g>
	<defs>
		<rect id="SVGID_83_" x="-84" y="-1997.5" width="1440" height="2768"/>
	</defs>
	<clipPath id="SVGID_84_">
		<use xlink:href="#SVGID_83_"  style="overflow:visible;"/>
	</clipPath>
	<g class="st41">
		<g>
			<defs>
				<rect id="SVGID_85_" x="413" y="295.5" width="41" height="85"/>
			</defs>
			<clipPath id="SVGID_86_">
				<use xlink:href="#SVGID_85_"  style="overflow:visible;"/>
			</clipPath>
			<g class="st42">
				<defs>
					<rect id="SVGID_87_" x="413.2" y="296" width="40.6" height="84.3"/>
				</defs>
				<clipPath id="SVGID_88_">
					<use xlink:href="#SVGID_87_"  style="overflow:visible;"/>
				</clipPath>
				<g class="st43">
					<defs>
						<rect id="SVGID_89_" x="413" y="295.5" width="41" height="85"/>
					</defs>
					<clipPath id="SVGID_90_">
						<use xlink:href="#SVGID_89_"  style="overflow:visible;"/>
					</clipPath>
					<rect x="408.2" y="291" class="st44" width="50.6" height="94.3"/>
				</g>
			</g>
		</g>
	</g>
</g>
<g>
	<defs>
		<rect id="SVGID_91_" x="-84" y="-1997.5" width="1440" height="2768"/>
	</defs>
	<clipPath id="SVGID_92_">
		<use xlink:href="#SVGID_91_"  style="overflow:visible;"/>
	</clipPath>
	<g class="st45">
		<g>
			<defs>
				<rect id="SVGID_93_" x="291" y="171.5" width="41" height="209"/>
			</defs>
			<clipPath id="SVGID_94_">
				<use xlink:href="#SVGID_93_"  style="overflow:visible;"/>
			</clipPath>
			<g class="st46">
				<defs>
					<rect id="SVGID_95_" x="291.3" y="172.2" width="40.6" height="208.1"/>
				</defs>
				<clipPath id="SVGID_96_">
					<use xlink:href="#SVGID_95_"  style="overflow:visible;"/>
				</clipPath>
				<g class="st47">
					<defs>
						<rect id="SVGID_97_" x="291" y="171.5" width="41" height="209"/>
					</defs>
					<clipPath id="SVGID_98_">
						<use xlink:href="#SVGID_97_"  style="overflow:visible;"/>
					</clipPath>
					<rect x="286.3" y="167.2" class="st48" width="50.6" height="218.1"/>
				</g>
			</g>
		</g>
	</g>
</g>
<g>
	<defs>
		<rect id="SVGID_99_" x="-84" y="-1997.5" width="1440" height="2768"/>
	</defs>
	<clipPath id="SVGID_100_">
		<use xlink:href="#SVGID_99_"  style="overflow:visible;"/>
	</clipPath>
	<g class="st49">
		<g>
			<defs>
				<rect id="SVGID_101_" x="331" y="211.5" width="42" height="169"/>
			</defs>
			<clipPath id="SVGID_102_">
				<use xlink:href="#SVGID_101_"  style="overflow:visible;"/>
			</clipPath>
			<g class="st50">
				<defs>
					<rect id="SVGID_103_" x="331.9" y="211.7" width="40.6" height="168.5"/>
				</defs>
				<clipPath id="SVGID_104_">
					<use xlink:href="#SVGID_103_"  style="overflow:visible;"/>
				</clipPath>
				<g class="st51">
					<defs>
						<rect id="SVGID_105_" x="331" y="211.5" width="42" height="169"/>
					</defs>
					<clipPath id="SVGID_106_">
						<use xlink:href="#SVGID_105_"  style="overflow:visible;"/>
					</clipPath>
					<rect x="326.9" y="206.7" class="st52" width="50.6" height="178.5"/>
				</g>
			</g>
		</g>
	</g>
</g>
<g>
	<defs>
		<rect id="SVGID_107_" x="-84" y="-1997.5" width="1440" height="2768"/>
	</defs>
	<clipPath id="SVGID_108_">
		<use xlink:href="#SVGID_107_"  style="overflow:visible;"/>
	</clipPath>
	<g class="st53">
		<g>
			<defs>
				<rect id="SVGID_109_" x="372" y="252.5" width="42" height="128"/>
			</defs>
			<clipPath id="SVGID_110_">
				<use xlink:href="#SVGID_109_"  style="overflow:visible;"/>
			</clipPath>
			<g class="st54">
				<defs>
					<rect id="SVGID_111_" x="372.5" y="252.6" width="40.6" height="127.6"/>
				</defs>
				<clipPath id="SVGID_112_">
					<use xlink:href="#SVGID_111_"  style="overflow:visible;"/>
				</clipPath>
				<g class="st55">
					<defs>
						<rect id="SVGID_113_" x="372" y="252.5" width="42" height="128"/>
					</defs>
					<clipPath id="SVGID_114_">
						<use xlink:href="#SVGID_113_"  style="overflow:visible;"/>
					</clipPath>
					<rect x="367.5" y="247.6" class="st56" width="50.6" height="137.6"/>
				</g>
			</g>
		</g>
	</g>
</g>
<g>
	<path class="st57" d="M486.5,400.3h-2v-12.6h2v5.4h2.3v-5.4h2v12.6h-2v-5.4h-2.3V400.3z"/>
	<path class="st57" d="M492.2,387.7h2v12.6h-2V387.7z"/>
	<path class="st57" d="M498.6,393.3h2.8v4c0,2-1,3.2-3,3.2s-3-1.2-3-3.2v-6.6c0-2,1-3.2,3-3.2s3,1.2,3,3.2v1.2h-1.9v-1.4
		c0-0.9-0.4-1.2-1-1.2c-0.6,0-1,0.3-1,1.2v6.8c0,0.9,0.4,1.2,1,1.2c0.6,0,1-0.3,1-1.2v-2.3h-0.9V393.3z"/>
	<path class="st57" d="M504.6,400.3h-2v-12.6h2v5.4h2.3v-5.4h2v12.6h-2v-5.4h-2.3V400.3z"/>
	<path class="st57" d="M517.2,400.3c-0.1-0.3-0.2-0.5-0.2-1.5v-2c0-1.2-0.4-1.6-1.3-1.6h-0.7v5.1h-2v-12.6h3c2.1,0,2.9,1,2.9,2.9v1
		c0,1.3-0.4,2.1-1.3,2.5v0c1,0.4,1.3,1.4,1.3,2.7v1.9c0,0.6,0,1.1,0.2,1.5H517.2z M515.1,389.5v3.9h0.8c0.7,0,1.2-0.3,1.2-1.3v-1.2
		c0-0.9-0.3-1.3-1-1.3H515.1z"/>
	<path class="st57" d="M520.3,387.7h2v12.6h-2V387.7z"/>
	<path class="st57" d="M526.4,387.5c1.9,0,2.9,1.2,2.9,3.2v0.4h-1.9v-0.5c0-0.9-0.4-1.2-1-1.2c-0.6,0-1,0.3-1,1.2
		c0,0.9,0.4,1.6,1.7,2.7c1.7,1.5,2.2,2.5,2.2,3.9c0,2-1,3.2-3,3.2c-1.9,0-3-1.2-3-3.2v-0.8h1.9v0.9c0,0.9,0.4,1.2,1,1.2
		c0.6,0,1-0.3,1-1.2c0-0.9-0.4-1.6-1.7-2.7c-1.7-1.5-2.2-2.5-2.2-3.9C523.5,388.7,524.5,387.5,526.4,387.5z"/>
	<path class="st57" d="M533.1,395.3l-0.6,1.2v3.9h-2v-12.6h2v5.5h0l2.6-5.5h2l-2.8,5.6l2.8,7h-2L533.1,395.3z"/>
</g>
<g>
	<path class="st57" d="M267.1,387.5c1.9,0,2.9,1.2,2.9,3.2v0.4h-1.9v-0.5c0-0.9-0.4-1.2-1-1.2c-0.6,0-1,0.3-1,1.2
		c0,0.9,0.4,1.6,1.7,2.7c1.7,1.5,2.2,2.5,2.2,3.9c0,2-1,3.2-3,3.2c-1.9,0-3-1.2-3-3.2v-0.8h1.9v0.9c0,0.9,0.4,1.2,1,1.2s1-0.3,1-1.2
		c0-0.9-0.4-1.6-1.7-2.7c-1.7-1.5-2.2-2.5-2.2-3.9C264.1,388.7,265.1,387.5,267.1,387.5z"/>
	<path class="st57" d="M270.5,387.7h6.1v1.8h-2.1v10.8h-2v-10.8h-2.1V387.7z"/>
	<path class="st57" d="M283.3,400.3h-2l-0.3-2.3h-2.4l-0.3,2.3h-1.8l2-12.6h2.9L283.3,400.3z M278.7,396.3h1.9l-0.9-6.4h0
		L278.7,396.3z"/>
	<path class="st57" d="M286,391.2L286,391.2l0,9.1h-1.8v-12.6h2.5l2,7.5h0v-7.5h1.8v12.6h-2L286,391.2z"/>
	<path class="st57" d="M291.9,387.7h3.1c2,0,3,1.1,3,3.1v6.4c0,2-1,3.1-3,3.1h-3.1V387.7z M293.8,389.5v9h1.1c0.6,0,1-0.3,1-1.2
		v-6.6c0-0.9-0.4-1.2-1-1.2H293.8z"/>
	<path class="st57" d="M305.6,400.3h-2l-0.3-2.3h-2.4l-0.3,2.3h-1.8l2-12.6h2.9L305.6,400.3z M301.1,396.3h1.9l-0.9-6.4h0
		L301.1,396.3z"/>
	<path class="st57" d="M310.6,400.3c-0.1-0.3-0.2-0.5-0.2-1.5v-2c0-1.2-0.4-1.6-1.3-1.6h-0.7v5.1h-2v-12.6h3c2.1,0,2.9,1,2.9,2.9v1
		c0,1.3-0.4,2.1-1.3,2.5v0c1,0.4,1.3,1.4,1.3,2.7v1.9c0,0.6,0,1.1,0.2,1.5H310.6z M308.5,389.5v3.9h0.8c0.7,0,1.2-0.3,1.2-1.3v-1.2
		c0-0.9-0.3-1.3-1-1.3H308.5z"/>
	<path class="st57" d="M313.7,387.7h3.1c2,0,3,1.1,3,3.1v6.4c0,2-1,3.1-3,3.1h-3.1V387.7z M315.7,389.5v9h1.1c0.6,0,1-0.3,1-1.2
		v-6.6c0-0.9-0.4-1.2-1-1.2H315.7z"/>
</g>
<g>
	<path class="st57" d="M54.7,390.6v0.5c0,1.3-0.4,2.1-1.3,2.5v0c1.1,0.4,1.5,1.4,1.5,2.7v1c0,1.9-1,3-3,3h-3.1v-12.6h3
		C53.8,387.7,54.7,388.6,54.7,390.6z M50.7,389.5v3.3h0.8c0.7,0,1.2-0.3,1.2-1.3v-0.7c0-0.9-0.3-1.3-1-1.3H50.7z M50.7,394.6v3.9
		h1.1c0.7,0,1-0.3,1-1.2v-1.1c0-1.2-0.4-1.5-1.3-1.5H50.7z"/>
	<path class="st57" d="M58,393h2.7v1.8H58v3.7h3.4v1.8h-5.4v-12.6h5.4v1.8H58V393z"/>
	<path class="st57" d="M65.3,387.5c1.9,0,2.9,1.2,2.9,3.2v0.4h-1.9v-0.5c0-0.9-0.4-1.2-1-1.2c-0.6,0-1,0.3-1,1.2
		c0,0.9,0.4,1.6,1.7,2.7c1.7,1.5,2.2,2.5,2.2,3.9c0,2-1,3.2-3,3.2c-1.9,0-3-1.2-3-3.2v-0.8h1.9v0.9c0,0.9,0.4,1.2,1,1.2s1-0.3,1-1.2
		c0-0.9-0.4-1.6-1.7-2.7c-1.7-1.5-2.2-2.5-2.2-3.9C62.4,388.7,63.4,387.5,65.3,387.5z"/>
	<path class="st57" d="M68.8,387.7H75v1.8h-2.1v10.8h-2v-10.8h-2.1V387.7z"/>
	<path class="st57" d="M84.4,395.6v1.7c0,2-1,3.2-3,3.2c-1.9,0-3-1.2-3-3.2v-6.6c0-2,1-3.2,3-3.2c1.9,0,3,1.2,3,3.2v1.2h-1.9v-1.4
		c0-0.9-0.4-1.2-1-1.2c-0.6,0-1,0.3-1,1.2v6.8c0,0.9,0.4,1.2,1,1.2c0.6,0,1-0.3,1-1.2v-1.8H84.4z"/>
	<path class="st57" d="M85.6,387.7h2v10.8h3.3v1.8h-5.2V387.7z"/>
	<path class="st57" d="M98.1,400.3h-2l-0.3-2.3h-2.4l-0.3,2.3h-1.8l2-12.6h2.9L98.1,400.3z M93.6,396.3h1.9l-0.9-6.4h0L93.6,396.3z"
		/>
	<path class="st57" d="M101.6,387.5c1.9,0,2.9,1.2,2.9,3.2v0.4h-1.9v-0.5c0-0.9-0.4-1.2-1-1.2s-1,0.3-1,1.2c0,0.9,0.4,1.6,1.7,2.7
		c1.7,1.5,2.2,2.5,2.2,3.9c0,2-1,3.2-3,3.2c-1.9,0-3-1.2-3-3.2v-0.8h1.9v0.9c0,0.9,0.4,1.2,1,1.2s1-0.3,1-1.2c0-0.9-0.4-1.6-1.7-2.7
		c-1.7-1.5-2.2-2.5-2.2-3.9C98.7,388.7,99.7,387.5,101.6,387.5z"/>
	<path class="st57" d="M108.4,387.5c1.9,0,2.9,1.2,2.9,3.2v0.4h-1.9v-0.5c0-0.9-0.4-1.2-1-1.2c-0.6,0-1,0.3-1,1.2
		c0,0.9,0.4,1.6,1.7,2.7c1.7,1.5,2.2,2.5,2.2,3.9c0,2-1,3.2-3,3.2c-1.9,0-3-1.2-3-3.2v-0.8h1.9v0.9c0,0.9,0.4,1.2,1,1.2s1-0.3,1-1.2
		c0-0.9-0.4-1.6-1.7-2.7c-1.7-1.5-2.2-2.5-2.2-3.9C105.5,388.7,106.5,387.5,108.4,387.5z"/>
</g>
</svg>
