<svg id="Layer_1" data-name="Layer 1" xmlns="http://www.w3.org/2000/svg" viewBox="0 0 200 200"><defs><style>.cls-1{fill:#b1b1b2;}</style></defs><title>icon</title><path class="cls-1" d="M59.42,152a24.09,24.09,0,1,0-24.05-24.1A24.1,24.1,0,0,0,59.42,152Zm-29.53-24.1a29.55,29.55,0,1,1,29.53,29.54A29.53,29.53,0,0,1,29.89,127.89Z"/><path class="cls-1" d="M146.38,152.27a24.08,24.08,0,1,0-24.09-24.09A24.08,24.08,0,0,0,146.38,152.27Zm-29.56-24.09a29.55,29.55,0,1,1,29.56,29.54A29.54,29.54,0,0,1,116.82,128.19Z"/><path class="cls-1" d="M116.9,56.11A11.1,11.1,0,1,0,105.79,45,11.1,11.1,0,0,0,116.9,56.11Z"/><path class="cls-1" d="M117.36,83.07a5.36,5.36,0,0,1-4.62-2.79L105.52,69,90.64,83.74,104.44,91c5.67,2.72,4.82,7.71,4.82,7.71V130a6.39,6.39,0,1,1-12.79,0v-25L72.53,91.64a9.31,9.31,0,0,1-4.79-8.12,9.16,9.16,0,0,1,2.39-6.23L93.62,53.77a8.51,8.51,0,0,1,7-2.77c4.92,0,7.51,4.3,7.51,4.3l12.2,19.12,18.53,0c6.66,0,6.66,8.69,0,8.69H117.36Z"/><circle class="cls-1" cx="59.43" cy="127.91" r="17.02"/><circle class="cls-1" cx="146.4" cy="127.91" r="17.02"/></svg>