<svg id="Layer_1" data-name="Layer 1" xmlns="http://www.w3.org/2000/svg" viewBox="0 0 200 200"><defs><style>.cls-1{fill:#b1b1b2;}.cls-2{fill:none;stroke:#b1b1b2;stroke-miterlimit:10;stroke-width:3.63px;}</style></defs><title>icon</title><rect class="cls-1" x="103.2" y="44.54" width="4.97" height="33.12" rx="2.32" ry="2.32" transform="translate(166.78 -44.59) rotate(90)"/><rect class="cls-1" x="103.2" y="54.93" width="4.97" height="33.12" rx="2.32" ry="2.32" transform="translate(177.18 -34.19) rotate(90)"/><rect class="cls-1" x="103.2" y="65.32" width="4.97" height="33.12" rx="2.32" ry="2.32" transform="translate(23.8 187.57) rotate(-90)"/><rect class="cls-1" x="86.93" y="59.44" width="4.97" height="65.67" rx="2.48" ry="2.48" transform="translate(-2.86 181.69) rotate(-90)"/><rect class="cls-1" x="86.93" y="69.83" width="4.97" height="65.67" rx="2.48" ry="2.48" transform="translate(-13.26 192.08) rotate(-90)"/><rect class="cls-1" x="86.93" y="80.23" width="4.97" height="65.67" rx="2.48" ry="2.48" transform="translate(-23.65 202.47) rotate(-90)"/><rect class="cls-1" x="86.93" y="90.62" width="4.97" height="65.67" rx="2.48" ry="2.48" transform="translate(-34.04 212.86) rotate(-90)"/><rect class="cls-1" x="86.93" y="101.01" width="4.97" height="65.67" rx="2.48" ry="2.48" transform="translate(-44.43 223.26) rotate(-90)"/><rect class="cls-1" x="86.93" y="111.4" width="4.97" height="65.67" rx="2.48" ry="2.48" transform="translate(-54.83 233.65) rotate(-90)"/><rect class="cls-1" x="56.58" y="63.58" width="25.43" height="21.61"/><rect class="cls-2" x="43.67" y="30.72" width="90.91" height="130.28" rx="24.86" ry="24.86"/><circle class="cls-1" cx="69.29" cy="54.58" r="9.77"/></svg>