<svg id="Layer_1" data-name="Layer 1" xmlns="http://www.w3.org/2000/svg" viewBox="0 0 200 200"><defs><style>.cls-1{fill:none;stroke:#b1b1b2;stroke-miterlimit:10;stroke-width:3.27px;}.cls-2{fill:#b1b1b2;}</style></defs><title>icon</title><rect class="cls-1" x="45.13" y="41.37" width="120.46" height="79.86" rx="22.41" ry="22.41"/><rect class="cls-1" x="45.13" y="129.48" width="120.46" height="24.45" rx="12.22" ry="12.22"/><path class="cls-2" d="M137.55,50h-65A18.36,18.36,0,0,0,54,68.07V94.76a18.36,18.36,0,0,0,18.49,18.12h65A18.36,18.36,0,0,0,156,94.76V68.07A18.36,18.36,0,0,0,137.55,50ZM112.13,99.54a8.8,8.8,0,0,1-4.53,2.14V108h-5.13v-6.44a8.76,8.76,0,0,1-5.58-4.21A14.5,14.5,0,0,1,95,90.73l5.81-.41q0.38,3.49,1.83,5a3.13,3.13,0,0,0,2.5,1.1,3.78,3.78,0,0,0,3.18-1.92,4.69,4.69,0,0,0,.61-2.61A7.3,7.3,0,0,0,106.68,87q-1.83-1.67-5.42-5a21.81,21.81,0,0,1-4-4.78,11.49,11.49,0,0,1-1.57-5.88,10.8,10.8,0,0,1,1.48-5.57,8.1,8.1,0,0,1,5.36-4V55.71h5.13V61.8a8.53,8.53,0,0,1,4,2,9.81,9.81,0,0,1,3.14,6.76l-5.84,1a7.1,7.1,0,0,0-1.41-3.81,2.89,2.89,0,0,0-2.38-.94,2.78,2.78,0,0,0-2.53,1.45,5.49,5.49,0,0,0-.71,2.89,8.71,8.71,0,0,0,2.37,5.54A22.5,22.5,0,0,0,107,79.22a36.9,36.9,0,0,1,2.82,2.42A21.55,21.55,0,0,1,113.23,86a12.18,12.18,0,0,1,1.83,5.63Q115.18,96.71,112.13,99.54Z"/></svg>