<svg id="Layer_1" data-name="Layer 1" xmlns="http://www.w3.org/2000/svg" viewBox="0 0 200 200"><defs><style>.cls-1{fill:#b1b1b2;}</style></defs><title>icon</title><circle class="cls-1" cx="64.19" cy="46.74" r="14.38"/><circle class="cls-1" cx="99.62" cy="46.74" r="14.38"/><circle class="cls-1" cx="134.88" cy="46.74" r="14.38"/><path class="cls-1" d="M120.23,66.32h-41a6.35,6.35,0,0,0-6.35,6.34v36.26a6.34,6.34,0,0,0,6.35,6.34h2v44.85h36.36V115.27h2.7a6.34,6.34,0,0,0,6.34-6.34V72.66A6.34,6.34,0,0,0,120.23,66.32Z"/><path class="cls-1" d="M63.92,108.93V72.67a15.17,15.17,0,0,1,1.42-6.34H44.15a6.34,6.34,0,0,0-6.34,6.34v36.26a6.34,6.34,0,0,0,6.34,6.34h2v44.85H72.21V122.53A15.31,15.31,0,0,1,63.92,108.93Z"/><path class="cls-1" d="M155.85,66.32H134.11a15.18,15.18,0,0,1,1.42,6.34v36.26a15.31,15.31,0,0,1-9,14v37.23h26.67V115.27h2.7a6.34,6.34,0,0,0,6.35-6.34V72.66A6.35,6.35,0,0,0,155.85,66.32Z"/></svg>