<svg id="Layer_1" data-name="Layer 1" xmlns="http://www.w3.org/2000/svg" viewBox="0 0 200 200"><defs><style>.cls-1{fill:#b1b1b2;}</style></defs><title>icon</title><path class="cls-1" d="M131.25,32.36c-10.39,0-20.69,3.69-29.76,13.29C92.43,36,82.12,32.36,71.73,32.36,51.35,32.36,32.05,48.71,32.05,72a62.45,62.45,0,0,0,5.4,24.8H58.54L77.27,53.13,98,115.41l5.77-8.65h9a9.92,9.92,0,1,1,0,9.92h-3.68L95,137.79,76.12,81l-11,25.73H42.5c12.63,21.44,34,39.87,49.07,58.36,4.57,5.62,7.29,6.12,9.92,6.12s5.35-.5,9.92-6.12c22.52-27.7,59.52-55.26,59.52-93.08C170.93,48.71,151.63,32.36,131.25,32.36Z"/></svg>