<?xml version="1.0" encoding="utf-8"?>
<!-- Generator: Adobe Illustrator 19.2.1, SVG Export Plug-In . SVG Version: 6.00 Build 0)  -->
<!DOCTYPE svg PUBLIC "-//W3C//DTD SVG 1.1//EN" "http://www.w3.org/Graphics/SVG/1.1/DTD/svg11.dtd">
<svg version="1.1" id="Layer_1" xmlns="http://www.w3.org/2000/svg" xmlns:xlink="http://www.w3.org/1999/xlink" x="0px" y="0px"
	 viewBox="0 0 214.3 153" style="enable-background:new 0 0 214.3 153;" xml:space="preserve">
<style type="text/css">
	.st0{enable-background:new    ;}
	.st1{clip-path:url(#SVGID_2_);}
	.st2{clip-path:url(#SVGID_4_);}
	.st3{clip-path:url(#SVGID_6_);fill:#FFFFFF;}
	.st4{clip-path:url(#SVGID_8_);}
	.st5{clip-path:url(#SVGID_10_);fill:#FFFFFF;}
	.st6{clip-path:url(#SVGID_12_);}
	.st7{clip-path:url(#SVGID_14_);fill:#FFFFFF;}
	.st8{clip-path:url(#SVGID_16_);}
	.st9{clip-path:url(#SVGID_18_);fill:#FFFFFF;}
	.st10{clip-path:url(#SVGID_20_);}
	.st11{clip-path:url(#SVGID_22_);enable-background:new    ;}
	.st12{clip-path:url(#SVGID_24_);}
	.st13{clip-path:url(#SVGID_26_);}
	.st14{clip-path:url(#SVGID_28_);fill:#FFFFFF;}
	.st15{clip-path:url(#SVGID_30_);}
	.st16{clip-path:url(#SVGID_32_);fill:#FFFFFF;}
	.st17{clip-path:url(#SVGID_34_);}
	.st18{clip-path:url(#SVGID_36_);fill:#FFFFFF;}
	.st19{clip-path:url(#SVGID_38_);}
	.st20{clip-path:url(#SVGID_40_);fill:#FFFFFF;}
	.st21{clip-path:url(#SVGID_42_);}
	.st22{clip-path:url(#SVGID_44_);fill:#FFFFFF;}
	.st23{clip-path:url(#SVGID_46_);}
	.st24{clip-path:url(#SVGID_48_);fill:#FFFFFF;}
	.st25{clip-path:url(#SVGID_50_);}
	.st26{clip-path:url(#SVGID_52_);fill:#FFFFFF;}
	.st27{clip-path:url(#SVGID_54_);}
	.st28{clip-path:url(#SVGID_56_);fill:#FFFFFF;}
	.st29{clip-path:url(#SVGID_58_);}
	.st30{clip-path:url(#SVGID_60_);fill:#FFFFFF;}
	.st31{clip-path:url(#SVGID_62_);}
	.st32{clip-path:url(#SVGID_64_);fill:#FFFFFF;}
	.st33{clip-path:url(#SVGID_66_);}
	.st34{clip-path:url(#SVGID_68_);fill:#FFFFFF;}
	.st35{clip-path:url(#SVGID_70_);}
	.st36{clip-path:url(#SVGID_72_);fill:#FFFFFF;}
	.st37{clip-path:url(#SVGID_74_);}
	.st38{clip-path:url(#SVGID_76_);fill:#FFFFFF;}
	.st39{clip-path:url(#SVGID_78_);}
	.st40{clip-path:url(#SVGID_80_);fill:#FFFFFF;}
	.st41{clip-path:url(#SVGID_82_);}
	.st42{clip-path:url(#SVGID_84_);fill:#FFFFFF;}
	.st43{clip-path:url(#SVGID_86_);}
	.st44{clip-path:url(#SVGID_88_);fill:#FFFFFF;}
	.st45{clip-path:url(#SVGID_90_);}
	.st46{clip-path:url(#SVGID_92_);fill:#FFFFFF;}
	.st47{clip-path:url(#SVGID_94_);}
	.st48{clip-path:url(#SVGID_96_);fill:#FFFFFF;}
	.st49{clip-path:url(#SVGID_98_);}
	.st50{clip-path:url(#SVGID_100_);fill:#FFFFFF;}
	.st51{clip-path:url(#SVGID_102_);}
	.st52{clip-path:url(#SVGID_104_);fill:#FFFFFF;}
	.st53{clip-path:url(#SVGID_106_);}
	.st54{clip-path:url(#SVGID_108_);fill:#FFFFFF;}
	.st55{clip-path:url(#SVGID_110_);}
	.st56{clip-path:url(#SVGID_112_);fill:#FFFFFF;}
	.st57{clip-path:url(#SVGID_114_);}
	.st58{clip-path:url(#SVGID_116_);fill:#FFFFFF;}
	.st59{clip-path:url(#SVGID_118_);}
	.st60{clip-path:url(#SVGID_120_);fill:#FFFFFF;}
	.st61{clip-path:url(#SVGID_122_);}
	.st62{clip-path:url(#SVGID_124_);fill:#FFFFFF;}
	.st63{clip-path:url(#SVGID_126_);}
	.st64{clip-path:url(#SVGID_128_);fill:#FFFFFF;}
	.st65{clip-path:url(#SVGID_130_);}
	.st66{clip-path:url(#SVGID_132_);fill:#FFFFFF;}
	.st67{clip-path:url(#SVGID_134_);}
	.st68{clip-path:url(#SVGID_136_);fill:#FFFFFF;}
	.st69{clip-path:url(#SVGID_138_);}
	.st70{clip-path:url(#SVGID_140_);fill:#FFFFFF;}
	.st71{clip-path:url(#SVGID_142_);}
	.st72{clip-path:url(#SVGID_144_);fill:#FFFFFF;}
</style>
<g class="st0">
	<g>
		<defs>
			<rect id="SVGID_1_" x="2.3" y="3" width="210" height="148"/>
		</defs>
		<clipPath id="SVGID_2_">
			<use xlink:href="#SVGID_1_"  style="overflow:visible;"/>
		</clipPath>
		<g class="st1">
			<defs>
				<path id="SVGID_3_" d="M24.6,129.9h-1c-0.1-1.9,0-3.2-2.8-3.2h-5.4v19.9c0,2.5,1.4,2.5,3.2,2.6v0.9c-1.7,0-3.2-0.1-4.8-0.1
					c-1.7,0-3.4,0-5.2,0.1v-0.9c1.9,0,3.2-0.1,3.2-2.6v-19.9H7.2c-3.2,0-3.4,0.9-4,3.2H2.3l0.4-5.7h0.7c0.4,1,1.4,1,2.2,1h16.2
					c1.3,0,2.2-0.3,2.3-1h0.7L24.6,129.9z"/>
			</defs>
			<clipPath id="SVGID_4_">
				<use xlink:href="#SVGID_3_"  style="overflow:visible;"/>
			</clipPath>
			<g class="st2">
				<defs>
					<rect id="SVGID_5_" x="2.3" y="3" width="210" height="148"/>
				</defs>
				<clipPath id="SVGID_6_">
					<use xlink:href="#SVGID_5_"  style="overflow:visible;"/>
				</clipPath>
				<rect x="-2.7" y="119.2" class="st3" width="32.6" height="35.8"/>
			</g>
		</g>
		<g class="st1">
			<defs>
				<path id="SVGID_7_" d="M26.7,141.2v6.2c0,1.9,1,1.9,2.4,1.9v0.7c-1.3,0-2.4-0.1-3.6-0.1c-1.3,0-2.5,0-3.9,0.1v-0.7
					c1.3,0.1,2.4-0.3,2.4-1.8V134c0-1.9-1-1.9-2.4-1.9v-0.7c1.5,0,2.8,0.1,4.1,0.1c0.9,0,1.9-0.1,3.6-0.1c5,0,6.2,2.8,6.2,4.7
					c0,2.3-1.7,3.9-3.8,4.6c2.4,3.5,3.7,5.7,4.9,7c0.9,1,1.7,1.7,3,1.7v0.7c-0.7,0-1.3-0.1-2-0.1c-0.7,0-1.5,0-2.3,0.1
					c-2.4-2.7-4.2-5.8-6.1-8.8H26.7z M28.3,132.3c-0.7,0-1.1,0.1-1.6,0.2v7.8c0.4,0.1,1,0.1,1.4,0.1c3.3,0,4.6-2.2,4.6-4.1
					C32.7,134,31.4,132.3,28.3,132.3z"/>
			</defs>
			<clipPath id="SVGID_8_">
				<use xlink:href="#SVGID_7_"  style="overflow:visible;"/>
			</clipPath>
			<g class="st4">
				<defs>
					<rect id="SVGID_9_" x="2.3" y="3" width="210" height="148"/>
				</defs>
				<clipPath id="SVGID_10_">
					<use xlink:href="#SVGID_9_"  style="overflow:visible;"/>
				</clipPath>
				<rect x="16.6" y="126.4" class="st5" width="27.9" height="28.6"/>
			</g>
		</g>
		<g class="st1">
			<defs>
				<path id="SVGID_11_" d="M51.8,144.7c0.4,1,1.1,3.3,1.5,3.9c0.4,0.5,1.2,0.7,2.1,0.7v0.7c-1,0-2.1-0.1-3.1-0.1
					c-1.3,0-2.6,0-3.9,0.1v-0.7h0.5c0.7,0,1.5-0.1,1.5-0.9c0-0.3-0.2-1-0.4-1.5l-1.3-3.9h-6.3l-0.6,1.9c-0.3,1.1-0.7,2.3-0.7,3.2
					c0,1.3,0.9,1.2,1.8,1.3h0.6v0.7c-1,0-2.1-0.1-3.2-0.1c-1.1,0-2.2,0-3.2,0.1v-0.7c1.6-0.2,1.9-0.4,2.6-1.9c0.4-1,0.7-2,1.1-3
					l3.4-9.5c0.2-0.6,0.6-1.6,0.6-2.4c0-0.3,0-0.5-0.1-0.7c0.6-0.3,1.2-0.6,1.5-1.2h0.5L51.8,144.7z M42.7,142h5.5l-2.9-7.8h-0.1
					L42.7,142z"/>
			</defs>
			<clipPath id="SVGID_12_">
				<use xlink:href="#SVGID_11_"  style="overflow:visible;"/>
			</clipPath>
			<g class="st6">
				<defs>
					<rect id="SVGID_13_" x="2.3" y="3" width="210" height="148"/>
				</defs>
				<clipPath id="SVGID_14_">
					<use xlink:href="#SVGID_13_"  style="overflow:visible;"/>
				</clipPath>
				<rect x="32.1" y="125.7" class="st7" width="28.3" height="29.4"/>
			</g>
		</g>
		<g class="st1">
			<defs>
				<path id="SVGID_15_" d="M73.9,150.3h-0.6l-14-15.3v10c0,3.7,0.3,4.4,3.2,4.4v0.7c-1.2,0-2.4-0.1-3.6-0.1c-1.2,0-2.4,0-3.6,0.1
					v-0.7c1.6,0,2.9,0,2.9-3.4v-10.7c0-2.3-1-3.1-3.3-3.1v-0.7c0.8,0,1.6,0.1,2.5,0.1c0.7,0,1.5-0.1,2.2-0.1
					c1.1,1.6,3.6,4.1,6.6,7.4c2.3,2.5,4.8,5.2,6.6,7.1v-10.6c0-2.5-0.6-3.2-3.2-3.2v-0.7c1.2,0,2.5,0.1,3.7,0.1c1,0,2.1-0.1,3.1-0.1
					v0.7c-1.6,0-2.5,0.1-2.5,2.8V150.3z"/>
			</defs>
			<clipPath id="SVGID_16_">
				<use xlink:href="#SVGID_15_"  style="overflow:visible;"/>
			</clipPath>
			<g class="st8">
				<defs>
					<rect id="SVGID_17_" x="2.3" y="3" width="210" height="148"/>
				</defs>
				<clipPath id="SVGID_18_">
					<use xlink:href="#SVGID_17_"  style="overflow:visible;"/>
				</clipPath>
				<rect x="49.9" y="126.4" class="st9" width="31.4" height="28.9"/>
			</g>
		</g>
		<g class="st1">
			<defs>
				<rect id="SVGID_19_" x="77.5" y="131" width="10.9" height="19.4"/>
			</defs>
			<clipPath id="SVGID_20_">
				<use xlink:href="#SVGID_19_"  style="overflow:visible;"/>
			</clipPath>
			<g class="st10">
				<defs>
					<rect id="SVGID_21_" x="2.3" y="3" width="210" height="148"/>
				</defs>
				<clipPath id="SVGID_22_">
					<use xlink:href="#SVGID_21_"  style="overflow:visible;"/>
				</clipPath>
				<g class="st11">
					<g>
						<defs>
							<rect id="SVGID_23_" x="77.3" y="131" width="12" height="20"/>
						</defs>
						<clipPath id="SVGID_24_">
							<use xlink:href="#SVGID_23_"  style="overflow:visible;"/>
						</clipPath>
						<g class="st12">
							<defs>
								<path id="SVGID_25_" d="M77.5,145.6h0.6c0.5,2,1.9,4,4.2,4c2.1,0,3.7-1.4,3.7-3.6c0-5-7.9-3.5-7.9-9.8
									c0-3.4,2.5-5.2,5.7-5.2c1.1,0,2.2,0.2,3.3,0.4l0.4,3.4h-0.6c-0.3-1.9-1.5-3-3.4-3c-2,0-3.2,1.5-3.2,3.4c0,5,8.2,3.6,8.2,9.7
									c0,3.5-3.1,5.4-6.3,5.4c-1.4,0-2.8-0.3-4.1-0.9L77.5,145.6z"/>
							</defs>
							<clipPath id="SVGID_26_">
								<use xlink:href="#SVGID_25_"  style="overflow:visible;"/>
							</clipPath>
							<g class="st13">
								<defs>
									<rect id="SVGID_27_" x="77.3" y="131" width="12" height="20"/>
								</defs>
								<clipPath id="SVGID_28_">
									<use xlink:href="#SVGID_27_"  style="overflow:visible;"/>
								</clipPath>
								<rect x="72.5" y="126" class="st14" width="20.9" height="29.4"/>
							</g>
						</g>
					</g>
				</g>
			</g>
		</g>
		<g class="st1">
			<defs>
				<path id="SVGID_29_" d="M103.5,144.7c0.4,1,1.1,3.3,1.5,3.9c0.4,0.5,1.2,0.7,2.1,0.7v0.7c-1,0-2.1-0.1-3.1-0.1
					c-1.3,0-2.6,0-3.9,0.1v-0.7h0.5c0.7,0,1.5-0.1,1.5-0.9c0-0.3-0.2-1-0.4-1.5l-1.3-3.9H94l-0.6,1.9c-0.3,1.1-0.7,2.3-0.7,3.2
					c0,1.3,0.9,1.2,1.8,1.3h0.6v0.7c-1,0-2.1-0.1-3.2-0.1c-1.1,0-2.2,0-3.2,0.1v-0.7c1.6-0.2,1.9-0.4,2.6-1.9c0.4-1,0.7-2,1.1-3
					l3.4-9.5c0.2-0.6,0.6-1.6,0.6-2.4c0-0.3,0-0.5-0.1-0.7c0.6-0.3,1.2-0.6,1.5-1.2h0.5L103.5,144.7z M94.4,142h5.5l-2.9-7.8H97
					L94.4,142z"/>
			</defs>
			<clipPath id="SVGID_30_">
				<use xlink:href="#SVGID_29_"  style="overflow:visible;"/>
			</clipPath>
			<g class="st15">
				<defs>
					<rect id="SVGID_31_" x="2.3" y="3" width="210" height="148"/>
				</defs>
				<clipPath id="SVGID_32_">
					<use xlink:href="#SVGID_31_"  style="overflow:visible;"/>
				</clipPath>
				<rect x="83.7" y="125.7" class="st16" width="28.3" height="29.4"/>
			</g>
		</g>
		<g class="st1">
			<defs>
				<path id="SVGID_33_" d="M119.7,146.4c2.4-5,5-9.9,7.2-15c0.7,0,1.5,0.1,2.2,0.1c0.8,0,1.6-0.1,2.4-0.1v0.7
					c-0.9,0-1.5,0.1-1.9,0.3c-0.4,0.3-0.5,0.7-0.5,1.6c0,4.2,0.2,8.7,0.3,12.7c0.1,2,0.2,2.6,2.9,2.6v0.7c-1.5,0-2.9-0.1-4.4-0.1
					c-1.3,0-2.6,0-3.9,0.1v-0.7c0.9,0,1.6,0,2.1-0.2c0.5-0.3,0.7-0.8,0.7-1.8l-0.2-12.7h-0.1l-6.3,13.1c-0.3,0.6-0.8,2-1,2.6h-0.5
					c-2.3-5.1-4.8-10.1-7.4-15.1h-0.1l-0.2,9.7c0,0.3,0,1.3,0,1.7c0,1.3,0.1,2,0.6,2.4c0.4,0.4,1.1,0.5,2.2,0.5v0.7
					c-1.1,0-2.2-0.1-3.3-0.1c-1.2,0-2.4,0-3.5,0.1v-0.7c1.9,0,3.1-0.5,3.2-4c0.1-3.7,0.3-7.3,0.3-10.9c0-0.9-0.1-1.5-0.5-1.8
					c-0.4-0.3-1-0.4-1.8-0.4v-0.7c0.9,0,1.9,0.1,2.8,0.1c0.6,0,1.1-0.1,1.7-0.1L119.7,146.4z"/>
			</defs>
			<clipPath id="SVGID_34_">
				<use xlink:href="#SVGID_33_"  style="overflow:visible;"/>
			</clipPath>
			<g class="st17">
				<defs>
					<rect id="SVGID_35_" x="2.3" y="3" width="210" height="148"/>
				</defs>
				<clipPath id="SVGID_36_">
					<use xlink:href="#SVGID_35_"  style="overflow:visible;"/>
				</clipPath>
				<rect x="101.8" y="126.4" class="st18" width="35.5" height="28.9"/>
			</g>
		</g>
		<g class="st1">
			<defs>
				<path id="SVGID_37_" d="M138.9,139.8h3.5c2.2,0,2.2-1.7,2.2-2.3h0.5c-0.1,0.6-0.1,2-0.1,3c0,0.8,0.1,2.1,0.1,3h-0.5
					c0-2.6-0.9-2.6-2.9-2.6h-2.9v4.5c0,3,0.1,3.7,2.8,3.7h1.7c2.6-0.1,3.8-0.5,4.8-3.3l0.6,0.1c-0.4,1.3-0.8,2.7-1.1,4.1
					c-2.7,0-5.3-0.1-8-0.1c-2,0-4,0-5.9,0.1v-0.7c2.3,0,2.5-0.4,2.5-3v-11.9c0-2.2-0.4-2.3-2.5-2.4v-0.7c1.8,0.1,3.6,0.1,5.4,0.1
					c2.6,0,5.1,0,7.7-0.1v4l-0.5,0.1c-0.4-2.5-1.6-3.3-4.3-3.3h-3.1V139.8z"/>
			</defs>
			<clipPath id="SVGID_38_">
				<use xlink:href="#SVGID_37_"  style="overflow:visible;"/>
			</clipPath>
			<g class="st19">
				<defs>
					<rect id="SVGID_39_" x="2.3" y="3" width="210" height="148"/>
				</defs>
				<clipPath id="SVGID_40_">
					<use xlink:href="#SVGID_39_"  style="overflow:visible;"/>
				</clipPath>
				<rect x="128.8" y="126.4" class="st20" width="25" height="28.6"/>
			</g>
		</g>
		<g class="st1">
			<defs>
				<path id="SVGID_41_" d="M155.1,141.2v6.2c0,1.9,1,1.9,2.4,1.9v0.7c-1.3,0-2.4-0.1-3.6-0.1c-1.3,0-2.5,0-3.9,0.1v-0.7
					c1.3,0.1,2.4-0.3,2.4-1.8V134c0-1.9-1-1.9-2.4-1.9v-0.7c1.5,0,2.8,0.1,4.1,0.1c0.9,0,1.9-0.1,3.6-0.1c5,0,6.2,2.8,6.2,4.7
					c0,2.3-1.7,3.9-3.8,4.6c2.4,3.5,3.7,5.7,4.9,7c0.9,1,1.7,1.7,3,1.7v0.7c-0.7,0-1.3-0.1-2-0.1c-0.7,0-1.5,0-2.3,0.1
					c-2.4-2.7-4.2-5.8-6.1-8.8H155.1z M156.7,132.3c-0.7,0-1.1,0.1-1.6,0.2v7.8c0.4,0.1,1,0.1,1.4,0.1c3.3,0,4.6-2.2,4.6-4.1
					C161.1,134,159.9,132.3,156.7,132.3z"/>
			</defs>
			<clipPath id="SVGID_42_">
				<use xlink:href="#SVGID_41_"  style="overflow:visible;"/>
			</clipPath>
			<g class="st21">
				<defs>
					<rect id="SVGID_43_" x="2.3" y="3" width="210" height="148"/>
				</defs>
				<clipPath id="SVGID_44_">
					<use xlink:href="#SVGID_43_"  style="overflow:visible;"/>
				</clipPath>
				<rect x="145.1" y="126.4" class="st22" width="27.9" height="28.6"/>
			</g>
		</g>
		<g class="st1">
			<defs>
				<path id="SVGID_45_" d="M170.3,134c0-1.9-1-1.9-2.4-1.9v-0.7c1.3,0,2.5,0.1,3.7,0.1c1.2,0,2.5,0,3.8-0.1v0.7
					c-1.4,0-2.4,0.1-2.4,1.9v13.4c0,1.9,1,1.9,2.4,1.9v0.7c-1.3,0-2.4-0.1-3.6-0.1c-1.3,0-2.5,0-3.9,0.1v-0.7c1.4,0,2.4-0.1,2.4-1.9
					V134z"/>
			</defs>
			<clipPath id="SVGID_46_">
				<use xlink:href="#SVGID_45_"  style="overflow:visible;"/>
			</clipPath>
			<g class="st23">
				<defs>
					<rect id="SVGID_47_" x="2.3" y="3" width="210" height="148"/>
				</defs>
				<clipPath id="SVGID_48_">
					<use xlink:href="#SVGID_47_"  style="overflow:visible;"/>
				</clipPath>
				<rect x="162.9" y="126.4" class="st24" width="17.5" height="28.6"/>
			</g>
		</g>
		<g class="st1">
			<defs>
				<path id="SVGID_49_" d="M193.8,136.2h-0.7c-0.5-3.1-2.7-4.4-5.7-4.4c-3.1,0-7.5,2.1-7.5,8.5c0,5.4,3.9,9.3,8,9.3
					c2.6,0,4.8-1.8,5.4-4.6l0.6,0.2l-0.6,3.9c-1.1,0.7-4.1,1.4-5.9,1.4c-6.2,0-10.2-4-10.2-10c0-5.5,4.9-9.4,10.1-9.4
					c2.2,0,4.2,0.7,6.3,1.4L193.8,136.2z"/>
			</defs>
			<clipPath id="SVGID_50_">
				<use xlink:href="#SVGID_49_"  style="overflow:visible;"/>
			</clipPath>
			<g class="st25">
				<defs>
					<rect id="SVGID_51_" x="2.3" y="3" width="210" height="148"/>
				</defs>
				<clipPath id="SVGID_52_">
					<use xlink:href="#SVGID_51_"  style="overflow:visible;"/>
				</clipPath>
				<rect x="172.1" y="126" class="st26" width="26.7" height="29.4"/>
			</g>
		</g>
		<g class="st1">
			<defs>
				<path id="SVGID_53_" d="M208.7,144.7c0.4,1,1.1,3.3,1.5,3.9c0.4,0.5,1.2,0.7,2.1,0.7v0.7c-1,0-2.1-0.1-3.1-0.1
					c-1.3,0-2.6,0-3.9,0.1v-0.7h0.5c0.7,0,1.5-0.1,1.5-0.9c0-0.3-0.2-1-0.4-1.5l-1.3-3.9h-6.3l-0.6,1.9c-0.3,1.1-0.7,2.3-0.7,3.2
					c0,1.3,0.9,1.2,1.8,1.3h0.6v0.7c-1,0-2.1-0.1-3.1-0.1c-1.1,0-2.2,0-3.2,0.1v-0.7c1.6-0.2,1.9-0.4,2.6-1.9c0.4-1,0.7-2,1.1-3
					l3.4-9.5c0.2-0.6,0.6-1.6,0.6-2.4c0-0.3,0-0.5-0.1-0.7c0.6-0.3,1.2-0.6,1.5-1.2h0.5L208.7,144.7z M199.6,142h5.5l-2.9-7.8h-0.1
					L199.6,142z"/>
			</defs>
			<clipPath id="SVGID_54_">
				<use xlink:href="#SVGID_53_"  style="overflow:visible;"/>
			</clipPath>
			<g class="st27">
				<defs>
					<rect id="SVGID_55_" x="2.3" y="3" width="210" height="148"/>
				</defs>
				<clipPath id="SVGID_56_">
					<use xlink:href="#SVGID_55_"  style="overflow:visible;"/>
				</clipPath>
				<rect x="189" y="125.7" class="st28" width="28.3" height="29.4"/>
			</g>
		</g>
		<g class="st1">
			<defs>
				<path id="SVGID_57_" d="M130.2,111.7c1,0,1.8-0.8,1.8-1.8c0-1-0.8-1.8-1.8-1.8c-1,0-1.8,0.8-1.8,1.8
					C128.4,110.9,129.2,111.7,130.2,111.7"/>
			</defs>
			<clipPath id="SVGID_58_">
				<use xlink:href="#SVGID_57_"  style="overflow:visible;"/>
			</clipPath>
			<g class="st29">
				<defs>
					<rect id="SVGID_59_" x="2.3" y="3" width="210" height="148"/>
				</defs>
				<clipPath id="SVGID_60_">
					<use xlink:href="#SVGID_59_"  style="overflow:visible;"/>
				</clipPath>
				<rect x="123.4" y="103.1" class="st30" width="13.6" height="13.6"/>
			</g>
		</g>
		<g class="st1">
			<defs>
				<path id="SVGID_61_" d="M130.3,109.8c0.1,0,0.2,0,0.3-0.1c0.1,0,0.1-0.1,0.1-0.3c0-0.1,0-0.2-0.1-0.3c-0.1,0-0.1,0-0.2,0h-0.6
					v0.6H130.3z M129.5,109h0.9c0.1,0,0.3,0,0.3,0.1c0.2,0.1,0.3,0.2,0.3,0.4c0,0.1,0,0.2-0.1,0.3c0,0.1-0.1,0.1-0.2,0.2
					c0.1,0,0.1,0.1,0.2,0.1c0,0,0.1,0.1,0.1,0.2l0,0.3c0,0.1,0,0.1,0,0.2c0,0.1,0,0.1,0.1,0.1v0h-0.3c0,0,0,0,0-0.1c0,0,0-0.1,0-0.1
					l0-0.3c0-0.1-0.1-0.2-0.1-0.2c0,0-0.1,0-0.2,0h-0.6v0.8h-0.3V109z"/>
			</defs>
			<clipPath id="SVGID_62_">
				<use xlink:href="#SVGID_61_"  style="overflow:visible;"/>
			</clipPath>
			<g class="st31">
				<defs>
					<rect id="SVGID_63_" x="2.3" y="3" width="210" height="148"/>
				</defs>
				<clipPath id="SVGID_64_">
					<use xlink:href="#SVGID_63_"  style="overflow:visible;"/>
				</clipPath>
				<rect x="124.5" y="104" class="st32" width="11.5" height="11.9"/>
			</g>
		</g>
		<g class="st1">
			<defs>
				<polygon id="SVGID_65_" points="107.8,3.1 107.8,111.8 91.9,111.8 107.4,3 				"/>
			</defs>
			<clipPath id="SVGID_66_">
				<use xlink:href="#SVGID_65_"  style="overflow:visible;"/>
			</clipPath>
			<g class="st33">
				<defs>
					<rect id="SVGID_67_" x="2.3" y="3" width="210" height="148"/>
				</defs>
				<clipPath id="SVGID_68_">
					<use xlink:href="#SVGID_67_"  style="overflow:visible;"/>
				</clipPath>
				<rect x="86.9" y="-2" class="st34" width="25.9" height="118.8"/>
			</g>
		</g>
		<g class="st1">
			<defs>
				<polygon id="SVGID_69_" points="112.8,36.9 111.2,65.6 110.6,65.6 109,36.9 				"/>
			</defs>
			<clipPath id="SVGID_70_">
				<use xlink:href="#SVGID_69_"  style="overflow:visible;"/>
			</clipPath>
			<g class="st35">
				<defs>
					<rect id="SVGID_71_" x="2.3" y="3" width="210" height="148"/>
				</defs>
				<clipPath id="SVGID_72_">
					<use xlink:href="#SVGID_71_"  style="overflow:visible;"/>
				</clipPath>
				<rect x="104" y="31.9" class="st36" width="13.7" height="38.7"/>
			</g>
		</g>
		<g class="st1">
			<defs>
				<polygon id="SVGID_73_" points="103.2,36.9 101.6,65.6 101.1,65.6 99.5,36.9 				"/>
			</defs>
			<clipPath id="SVGID_74_">
				<use xlink:href="#SVGID_73_"  style="overflow:visible;"/>
			</clipPath>
			<g class="st37">
				<defs>
					<rect id="SVGID_75_" x="2.3" y="3" width="210" height="148"/>
				</defs>
				<clipPath id="SVGID_76_">
					<use xlink:href="#SVGID_75_"  style="overflow:visible;"/>
				</clipPath>
				<rect x="94.5" y="31.9" class="st38" width="13.7" height="38.7"/>
			</g>
		</g>
		<g class="st1">
			<defs>
				<polygon id="SVGID_77_" points="106.9,111.8 123,111.8 122.7,109.7 107,109.7 				"/>
			</defs>
			<clipPath id="SVGID_78_">
				<use xlink:href="#SVGID_77_"  style="overflow:visible;"/>
			</clipPath>
			<g class="st39">
				<defs>
					<rect id="SVGID_79_" x="2.3" y="3" width="210" height="148"/>
				</defs>
				<clipPath id="SVGID_80_">
					<use xlink:href="#SVGID_79_"  style="overflow:visible;"/>
				</clipPath>
				<rect x="101.9" y="104.7" class="st40" width="26.1" height="12.1"/>
			</g>
		</g>
		<g class="st1">
			<defs>
				<polygon id="SVGID_81_" points="106.2,106.8 122.2,106.8 121.9,104.7 106.3,104.7 				"/>
			</defs>
			<clipPath id="SVGID_82_">
				<use xlink:href="#SVGID_81_"  style="overflow:visible;"/>
			</clipPath>
			<g class="st41">
				<defs>
					<rect id="SVGID_83_" x="2.3" y="3" width="210" height="148"/>
				</defs>
				<clipPath id="SVGID_84_">
					<use xlink:href="#SVGID_83_"  style="overflow:visible;"/>
				</clipPath>
				<rect x="101.2" y="99.7" class="st42" width="26.1" height="12.1"/>
			</g>
		</g>
		<g class="st1">
			<defs>
				<polygon id="SVGID_85_" points="105.5,101.8 121.6,101.8 121.3,99.7 105.6,99.7 				"/>
			</defs>
			<clipPath id="SVGID_86_">
				<use xlink:href="#SVGID_85_"  style="overflow:visible;"/>
			</clipPath>
			<g class="st43">
				<defs>
					<rect id="SVGID_87_" x="2.3" y="3" width="210" height="148"/>
				</defs>
				<clipPath id="SVGID_88_">
					<use xlink:href="#SVGID_87_"  style="overflow:visible;"/>
				</clipPath>
				<rect x="100.5" y="94.7" class="st44" width="26.1" height="12.1"/>
			</g>
		</g>
		<g class="st1">
			<defs>
				<polygon id="SVGID_89_" points="104.8,96.8 120.8,96.8 120.5,94.7 104.9,94.7 				"/>
			</defs>
			<clipPath id="SVGID_90_">
				<use xlink:href="#SVGID_89_"  style="overflow:visible;"/>
			</clipPath>
			<g class="st45">
				<defs>
					<rect id="SVGID_91_" x="2.3" y="3" width="210" height="148"/>
				</defs>
				<clipPath id="SVGID_92_">
					<use xlink:href="#SVGID_91_"  style="overflow:visible;"/>
				</clipPath>
				<rect x="99.8" y="89.7" class="st46" width="26.1" height="12.1"/>
			</g>
		</g>
		<g class="st1">
			<defs>
				<polygon id="SVGID_93_" points="104,91.9 120.1,91.9 119.8,89.8 104.1,89.8 				"/>
			</defs>
			<clipPath id="SVGID_94_">
				<use xlink:href="#SVGID_93_"  style="overflow:visible;"/>
			</clipPath>
			<g class="st47">
				<defs>
					<rect id="SVGID_95_" x="2.3" y="3" width="210" height="148"/>
				</defs>
				<clipPath id="SVGID_96_">
					<use xlink:href="#SVGID_95_"  style="overflow:visible;"/>
				</clipPath>
				<rect x="99" y="84.8" class="st48" width="26.1" height="12.1"/>
			</g>
		</g>
		<g class="st1">
			<defs>
				<polygon id="SVGID_97_" points="103.4,86.9 119.5,86.9 119.1,84.8 103.5,84.8 				"/>
			</defs>
			<clipPath id="SVGID_98_">
				<use xlink:href="#SVGID_97_"  style="overflow:visible;"/>
			</clipPath>
			<g class="st49">
				<defs>
					<rect id="SVGID_99_" x="2.3" y="3" width="210" height="148"/>
				</defs>
				<clipPath id="SVGID_100_">
					<use xlink:href="#SVGID_99_"  style="overflow:visible;"/>
				</clipPath>
				<rect x="98.4" y="79.8" class="st50" width="26.1" height="12.1"/>
			</g>
		</g>
		<g class="st1">
			<defs>
				<polygon id="SVGID_101_" points="102.6,81.9 118.7,81.9 118.4,79.8 102.8,79.8 				"/>
			</defs>
			<clipPath id="SVGID_102_">
				<use xlink:href="#SVGID_101_"  style="overflow:visible;"/>
			</clipPath>
			<g class="st51">
				<defs>
					<rect id="SVGID_103_" x="2.3" y="3" width="210" height="148"/>
				</defs>
				<clipPath id="SVGID_104_">
					<use xlink:href="#SVGID_103_"  style="overflow:visible;"/>
				</clipPath>
				<rect x="97.6" y="74.8" class="st52" width="26.1" height="12.1"/>
			</g>
		</g>
		<g class="st1">
			<defs>
				<polygon id="SVGID_105_" points="101.9,76.9 118,76.9 117.7,74.8 102,74.8 				"/>
			</defs>
			<clipPath id="SVGID_106_">
				<use xlink:href="#SVGID_105_"  style="overflow:visible;"/>
			</clipPath>
			<g class="st53">
				<defs>
					<rect id="SVGID_107_" x="2.3" y="3" width="210" height="148"/>
				</defs>
				<clipPath id="SVGID_108_">
					<use xlink:href="#SVGID_107_"  style="overflow:visible;"/>
				</clipPath>
				<rect x="96.9" y="69.8" class="st54" width="26.1" height="12.1"/>
			</g>
		</g>
		<g class="st1">
			<defs>
				<polygon id="SVGID_109_" points="101.3,71.9 117.3,71.9 117,69.8 101.4,69.8 				"/>
			</defs>
			<clipPath id="SVGID_110_">
				<use xlink:href="#SVGID_109_"  style="overflow:visible;"/>
			</clipPath>
			<g class="st55">
				<defs>
					<rect id="SVGID_111_" x="2.3" y="3" width="210" height="148"/>
				</defs>
				<clipPath id="SVGID_112_">
					<use xlink:href="#SVGID_111_"  style="overflow:visible;"/>
				</clipPath>
				<rect x="96.3" y="64.8" class="st56" width="26.1" height="12.1"/>
			</g>
		</g>
		<g class="st1">
			<defs>
				<polygon id="SVGID_113_" points="100.5,66.9 116.6,66.9 116.3,64.8 100.6,64.8 				"/>
			</defs>
			<clipPath id="SVGID_114_">
				<use xlink:href="#SVGID_113_"  style="overflow:visible;"/>
			</clipPath>
			<g class="st57">
				<defs>
					<rect id="SVGID_115_" x="2.3" y="3" width="210" height="148"/>
				</defs>
				<clipPath id="SVGID_116_">
					<use xlink:href="#SVGID_115_"  style="overflow:visible;"/>
				</clipPath>
				<rect x="95.5" y="59.8" class="st58" width="26.1" height="12.1"/>
			</g>
		</g>
		<g class="st1">
			<defs>
				<polygon id="SVGID_117_" points="106,61.9 110.7,61.9 110.6,59.8 106.1,59.8 				"/>
			</defs>
			<clipPath id="SVGID_118_">
				<use xlink:href="#SVGID_117_"  style="overflow:visible;"/>
			</clipPath>
			<g class="st59">
				<defs>
					<rect id="SVGID_119_" x="2.3" y="3" width="210" height="148"/>
				</defs>
				<clipPath id="SVGID_120_">
					<use xlink:href="#SVGID_119_"  style="overflow:visible;"/>
				</clipPath>
				<rect x="101" y="54.8" class="st60" width="14.6" height="12.1"/>
			</g>
		</g>
		<g class="st1">
			<defs>
				<polygon id="SVGID_121_" points="105.9,56.9 110.6,56.9 110.5,54.8 105.9,54.8 				"/>
			</defs>
			<clipPath id="SVGID_122_">
				<use xlink:href="#SVGID_121_"  style="overflow:visible;"/>
			</clipPath>
			<g class="st61">
				<defs>
					<rect id="SVGID_123_" x="2.3" y="3" width="210" height="148"/>
				</defs>
				<clipPath id="SVGID_124_">
					<use xlink:href="#SVGID_123_"  style="overflow:visible;"/>
				</clipPath>
				<rect x="100.9" y="49.8" class="st62" width="14.6" height="12.1"/>
			</g>
		</g>
		<g class="st1">
			<defs>
				<polygon id="SVGID_125_" points="105.9,51.8 110.5,51.8 110.4,49.7 105.9,49.7 				"/>
			</defs>
			<clipPath id="SVGID_126_">
				<use xlink:href="#SVGID_125_"  style="overflow:visible;"/>
			</clipPath>
			<g class="st63">
				<defs>
					<rect id="SVGID_127_" x="2.3" y="3" width="210" height="148"/>
				</defs>
				<clipPath id="SVGID_128_">
					<use xlink:href="#SVGID_127_"  style="overflow:visible;"/>
				</clipPath>
				<rect x="100.9" y="44.7" class="st64" width="14.6" height="12.1"/>
			</g>
		</g>
		<g class="st1">
			<defs>
				<polygon id="SVGID_129_" points="105.8,46.9 110.4,46.9 110.3,44.8 105.8,44.8 				"/>
			</defs>
			<clipPath id="SVGID_130_">
				<use xlink:href="#SVGID_129_"  style="overflow:visible;"/>
			</clipPath>
			<g class="st65">
				<defs>
					<rect id="SVGID_131_" x="2.3" y="3" width="210" height="148"/>
				</defs>
				<clipPath id="SVGID_132_">
					<use xlink:href="#SVGID_131_"  style="overflow:visible;"/>
				</clipPath>
				<rect x="100.8" y="39.8" class="st66" width="14.6" height="12.1"/>
			</g>
		</g>
		<g class="st1">
			<defs>
				<polygon id="SVGID_133_" points="105.7,41.9 110.4,41.9 110.3,39.8 105.8,39.8 				"/>
			</defs>
			<clipPath id="SVGID_134_">
				<use xlink:href="#SVGID_133_"  style="overflow:visible;"/>
			</clipPath>
			<g class="st67">
				<defs>
					<rect id="SVGID_135_" x="2.3" y="3" width="210" height="148"/>
				</defs>
				<clipPath id="SVGID_136_">
					<use xlink:href="#SVGID_135_"  style="overflow:visible;"/>
				</clipPath>
				<rect x="100.7" y="34.8" class="st68" width="14.6" height="12.1"/>
			</g>
		</g>
		<g class="st1">
			<defs>
				<polygon id="SVGID_137_" points="113.4,61.9 115.8,61.9 115.5,59.8 113.5,59.8 				"/>
			</defs>
			<clipPath id="SVGID_138_">
				<use xlink:href="#SVGID_137_"  style="overflow:visible;"/>
			</clipPath>
			<g class="st69">
				<defs>
					<rect id="SVGID_139_" x="2.3" y="3" width="210" height="148"/>
				</defs>
				<clipPath id="SVGID_140_">
					<use xlink:href="#SVGID_139_"  style="overflow:visible;"/>
				</clipPath>
				<rect x="108.4" y="54.8" class="st70" width="12.4" height="12.1"/>
			</g>
		</g>
		<g class="st1">
			<defs>
				<polygon id="SVGID_141_" points="113.7,56.9 115.2,56.9 114.9,54.8 113.8,54.8 				"/>
			</defs>
			<clipPath id="SVGID_142_">
				<use xlink:href="#SVGID_141_"  style="overflow:visible;"/>
			</clipPath>
			<g class="st71">
				<defs>
					<rect id="SVGID_143_" x="2.3" y="3" width="210" height="148"/>
				</defs>
				<clipPath id="SVGID_144_">
					<use xlink:href="#SVGID_143_"  style="overflow:visible;"/>
				</clipPath>
				<rect x="108.7" y="49.8" class="st72" width="11.5" height="12.1"/>
			</g>
		</g>
	</g>
</g>
</svg>
