<?xml version="1.0" encoding="utf-8"?>
<!-- Generator: Adobe Illustrator 19.2.1, SVG Export Plug-In . SVG Version: 6.00 Build 0)  -->
<!DOCTYPE svg PUBLIC "-//W3C//DTD SVG 1.1//EN" "http://www.w3.org/Graphics/SVG/1.1/DTD/svg11.dtd">
<svg version="1.1" id="Layer_1" xmlns="http://www.w3.org/2000/svg" xmlns:xlink="http://www.w3.org/1999/xlink" x="0px" y="0px"
	 viewBox="0 0 28.5 31.5" style="enable-background:new 0 0 28.5 31.5;" xml:space="preserve">
<style type="text/css">
	.st0{clip-path:url(#SVGID_2_);}
	.st1{clip-path:url(#SVGID_4_);fill:#FFFFFF;}
	.st2{clip-path:url(#SVGID_6_);}
	.st3{clip-path:url(#SVGID_8_);fill:#FFFFFF;}
	.st4{clip-path:url(#SVGID_10_);}
	.st5{clip-path:url(#SVGID_12_);fill:#FFFFFF;}
	.st6{clip-path:url(#SVGID_14_);}
	.st7{clip-path:url(#SVGID_16_);fill:#FFFFFF;}
</style>
<g>
	<defs>
		<polygon id="SVGID_1_" points="19.9,1.7 19.9,7.2 26.4,7.2 		"/>
	</defs>
	<clipPath id="SVGID_2_">
		<use xlink:href="#SVGID_1_"  style="overflow:visible;"/>
	</clipPath>
	<g class="st0">
		<defs>
			<rect id="SVGID_3_" x="-640.5" y="-2492.5" width="1440" height="5183"/>
		</defs>
		<clipPath id="SVGID_4_">
			<use xlink:href="#SVGID_3_"  style="overflow:visible;"/>
		</clipPath>
		<rect x="14.9" y="-3.3" class="st1" width="16.5" height="15.6"/>
	</g>
</g>
<g>
	<defs>
		<path id="SVGID_5_" d="M19.7,7.6V1.4H1.5V30h25.4V7.6H19.7z M3.5,4.2h14.4V2.9H3.5V4.2z M3.5,7.5h14.4V6.3H3.5V7.5z M20.3,21.9
			c-0.3,0.5-0.6,0.9-1.1,1.3c-0.5,0.4-1.1,0.7-1.8,0.9c-0.7,0.2-1.5,0.4-2.4,0.4v3.6h-1.9v-3.6c-0.8,0-1.8-0.1-2.8-0.3
			c-1-0.2-1.8-0.4-2.4-0.6v-2.9h0.4c0.4,0.2,1,0.4,2,0.7c1,0.3,1.9,0.4,2.9,0.5v-2.8l-1-0.2c-0.6-0.1-1.2-0.3-1.7-0.5
			c-0.5-0.2-1-0.4-1.5-0.7c-0.4-0.3-0.8-0.7-1-1.1c-0.2-0.4-0.4-1-0.4-1.7c0-1,0.5-1.8,1.4-2.5c1-0.7,2.3-1.1,4-1.3V8.9H15v2.3
			c0.7,0,1.5,0.1,2.4,0.3c0.9,0.2,1.6,0.3,2.1,0.5v2.9h-0.4c-0.6-0.3-1.2-0.5-1.8-0.7c-0.7-0.2-1.4-0.3-2.3-0.3v2.5l1,0.2
			c1.6,0.3,2.8,0.7,3.6,1.3c0.8,0.6,1.2,1.4,1.2,2.5C20.7,20.9,20.6,21.4,20.3,21.9z"/>
	</defs>
	<clipPath id="SVGID_6_">
		<use xlink:href="#SVGID_5_"  style="overflow:visible;"/>
	</clipPath>
	<g class="st2">
		<defs>
			<rect id="SVGID_7_" x="-640.5" y="-2492.5" width="1440" height="5183"/>
		</defs>
		<clipPath id="SVGID_8_">
			<use xlink:href="#SVGID_7_"  style="overflow:visible;"/>
		</clipPath>
		<rect x="-3.5" y="-3.6" class="st3" width="35.4" height="38.7"/>
	</g>
</g>
<g>
	<defs>
		<path id="SVGID_9_" d="M11.7,15c0,0.3,0.1,0.5,0.3,0.7c0.2,0.2,0.6,0.3,1.3,0.5v-2.3c-0.4,0-0.8,0.1-1.1,0.3
			C11.9,14.3,11.7,14.6,11.7,15"/>
	</defs>
	<clipPath id="SVGID_10_">
		<use xlink:href="#SVGID_9_"  style="overflow:visible;"/>
	</clipPath>
	<g class="st4">
		<defs>
			<rect id="SVGID_11_" x="-640.5" y="-2492.5" width="1440" height="5183"/>
		</defs>
		<clipPath id="SVGID_12_">
			<use xlink:href="#SVGID_11_"  style="overflow:visible;"/>
		</clipPath>
		<rect x="6.7" y="8.8" class="st5" width="11.6" height="12.3"/>
	</g>
</g>
<g>
	<defs>
		<path id="SVGID_13_" d="M14.9,19.4V22c0.5,0,0.9-0.2,1.2-0.4c0.3-0.2,0.5-0.5,0.5-0.9c0-0.3-0.1-0.6-0.4-0.8
			C15.9,19.7,15.5,19.5,14.9,19.4"/>
	</defs>
	<clipPath id="SVGID_14_">
		<use xlink:href="#SVGID_13_"  style="overflow:visible;"/>
	</clipPath>
	<g class="st6">
		<defs>
			<rect id="SVGID_15_" x="-640.5" y="-2492.5" width="1440" height="5183"/>
		</defs>
		<clipPath id="SVGID_16_">
			<use xlink:href="#SVGID_15_"  style="overflow:visible;"/>
		</clipPath>
		<rect x="9.9" y="14.4" class="st7" width="11.7" height="12.5"/>
	</g>
</g>
</svg>
