<?xml version="1.0" encoding="utf-8"?>
<!-- Generator: Adobe Illustrator 19.2.1, SVG Export Plug-In . SVG Version: 6.00 Build 0)  -->
<!DOCTYPE svg PUBLIC "-//W3C//DTD SVG 1.1//EN" "http://www.w3.org/Graphics/SVG/1.1/DTD/svg11.dtd">
<svg version="1.1" id="Layer_1" xmlns="http://www.w3.org/2000/svg" xmlns:xlink="http://www.w3.org/1999/xlink" x="0px" y="0px"
	 viewBox="0 0 40.4 39.2" style="enable-background:new 0 0 40.4 39.2;" xml:space="preserve">
<style type="text/css">
	.st0{clip-path:url(#SVGID_2_);}
	.st1{clip-path:url(#SVGID_4_);fill:#FFFFFF;}
	.st2{clip-path:url(#SVGID_6_);}
	.st3{clip-path:url(#SVGID_8_);fill:#FFFFFF;}
	.st4{clip-path:url(#SVGID_10_);}
	.st5{clip-path:url(#SVGID_12_);fill:#FFFFFF;}
	.st6{clip-path:url(#SVGID_14_);}
	.st7{clip-path:url(#SVGID_16_);fill:#FFFFFF;}
	.st8{clip-path:url(#SVGID_18_);}
	.st9{clip-path:url(#SVGID_20_);fill:#FFFFFF;}
	.st10{clip-path:url(#SVGID_22_);}
	.st11{clip-path:url(#SVGID_24_);fill:#FFFFFF;}
	.st12{clip-path:url(#SVGID_26_);}
	.st13{clip-path:url(#SVGID_28_);fill:#FFFFFF;}
	.st14{clip-path:url(#SVGID_30_);}
	.st15{clip-path:url(#SVGID_32_);fill:#FFFFFF;}
	.st16{clip-path:url(#SVGID_34_);}
	.st17{clip-path:url(#SVGID_36_);fill:#FFFFFF;}
	.st18{clip-path:url(#SVGID_38_);}
	.st19{clip-path:url(#SVGID_40_);fill:#FFFFFF;}
</style>
<g>
	<defs>
		<path id="SVGID_1_" d="M30.5,21.8V6.1c0-0.3-0.3-0.6-0.7-0.6h-5.4V4.3c0-0.3-0.3-0.6-0.7-0.6h-4V2.6c0-0.3-0.3-0.6-0.7-0.6H13
			c-0.4,0-0.7,0.3-0.7,0.6v1.2h-4C8,3.7,7.7,4,7.7,4.3v1.2H2.3c-0.4,0-0.7,0.3-0.7,0.6v29.1c0,0.3,0.3,0.6,0.7,0.6h22.9
			c1.3,0.7,2.9,1.2,4.6,1.2c4.8,0,8.7-3.4,8.7-7.6C38.6,25.4,35,22.1,30.5,21.8z M13.7,3.2h4.7v1.2v1.2h-4.7V4.3V3.2z M9,4.9h3.4
			v1.2c0,0.3,0.3,0.6,0.7,0.6h6.1c0.4,0,0.7-0.3,0.7-0.6V4.9h3.4v1.2v1.2H9V6.1V4.9z M2.9,34.6V6.7h4.7v1.2c0,0.3,0.3,0.6,0.7,0.6
			h15.5c0.4,0,0.7-0.3,0.7-0.6V6.7h4.7v15.2c0,0-0.1,0-0.1,0c-0.1,0-0.3,0-0.4,0c-0.2,0-0.3,0-0.5,0.1c-0.1,0-0.3,0-0.4,0.1
			c-0.1,0-0.3,0.1-0.4,0.1c-0.1,0-0.2,0.1-0.4,0.1c-0.1,0-0.3,0.1-0.4,0.1c-0.1,0-0.2,0.1-0.4,0.1c-0.1,0.1-0.3,0.1-0.4,0.2
			c-0.1,0.1-0.2,0.1-0.3,0.2c-0.1,0.1-0.2,0.1-0.4,0.2c-0.1,0.1-0.2,0.1-0.3,0.2c-0.1,0.1-0.2,0.2-0.3,0.2c-0.1,0.1-0.2,0.1-0.3,0.2
			c-0.1,0.1-0.2,0.2-0.3,0.3c-0.1,0.1-0.2,0.2-0.3,0.2c-0.1,0.1-0.2,0.2-0.3,0.3c-0.1,0.1-0.2,0.2-0.2,0.3c-0.1,0.1-0.2,0.2-0.3,0.3
			c-0.1,0.1-0.1,0.2-0.2,0.3c-0.1,0.1-0.2,0.2-0.2,0.3c-0.1,0.1-0.1,0.2-0.2,0.3c-0.1,0.1-0.1,0.2-0.2,0.4c-0.1,0.1-0.1,0.2-0.2,0.3
			c-0.1,0.1-0.1,0.3-0.2,0.4c0,0.1-0.1,0.2-0.1,0.3c0,0.1-0.1,0.3-0.1,0.4c0,0.1-0.1,0.2-0.1,0.3c0,0.2-0.1,0.3-0.1,0.5
			c0,0.1,0,0.2,0,0.2c0,0.2,0,0.5,0,0.8c0,0.3,0,0.5,0,0.8c0,0.1,0,0.2,0,0.3c0,0.2,0,0.3,0.1,0.5c0,0.1,0.1,0.2,0.1,0.3
			c0,0.1,0.1,0.3,0.1,0.4c0,0.1,0.1,0.2,0.1,0.3c0.1,0.1,0.1,0.3,0.2,0.4c0,0.1,0.1,0.2,0.1,0.2c0.1,0.1,0.2,0.3,0.2,0.4
			c0,0.1,0.1,0.1,0.1,0.2c0.1,0.2,0.2,0.3,0.3,0.4c0,0.1,0.1,0.1,0.1,0.2c0.1,0.1,0.2,0.3,0.4,0.4c0,0.1,0.1,0.1,0.1,0.2
			c0.1,0.1,0.2,0.2,0.3,0.3L2.9,34.6L2.9,34.6z M29.9,35.8c-1.5,0-2.9-0.4-4.1-1.1c-0.2-0.1-0.4-0.3-0.7-0.4
			c-0.1-0.1-0.1-0.1-0.2-0.2c-0.1-0.1-0.3-0.2-0.4-0.3c-0.1-0.1-0.2-0.1-0.2-0.2c-0.1-0.1-0.2-0.2-0.3-0.3c-0.1-0.1-0.1-0.1-0.2-0.2
			c-0.1-0.2-0.3-0.4-0.4-0.6c0,0-0.1-0.1-0.1-0.1c-0.1-0.2-0.2-0.3-0.3-0.5c0-0.1-0.1-0.2-0.1-0.2c-0.1-0.2-0.1-0.3-0.2-0.5
			c0-0.1,0-0.2-0.1-0.2c0-0.2-0.1-0.3-0.1-0.5c0-0.1,0-0.1,0-0.2c0-0.2-0.1-0.5-0.1-0.7c0-3.5,3.3-6.4,7.4-6.4
			c4.1,0,7.4,2.9,7.4,6.4S33.9,35.8,29.9,35.8z"/>
	</defs>
	<clipPath id="SVGID_2_">
		<use xlink:href="#SVGID_1_"  style="overflow:visible;"/>
	</clipPath>
	<g class="st0">
		<defs>
			<rect id="SVGID_3_" x="-1021.4" y="-2489" width="1440" height="5183"/>
		</defs>
		<clipPath id="SVGID_4_">
			<use xlink:href="#SVGID_3_"  style="overflow:visible;"/>
		</clipPath>
		<rect x="-3.4" y="-3" class="st1" width="47" height="44.9"/>
	</g>
</g>
<g>
	<defs>
		<path id="SVGID_5_" d="M33.9,28.8h-3.4v-2.9c0-0.3-0.3-0.6-0.7-0.6c-0.4,0-0.7,0.3-0.7,0.6v2.9h-3.4c-0.4,0-0.7,0.3-0.7,0.6
			s0.3,0.6,0.7,0.6h3.4v2.9c0,0.3,0.3,0.6,0.7,0.6c0.4,0,0.7-0.3,0.7-0.6v-2.9h3.4c0.4,0,0.7-0.3,0.7-0.6S34.3,28.8,33.9,28.8"/>
	</defs>
	<clipPath id="SVGID_6_">
		<use xlink:href="#SVGID_5_"  style="overflow:visible;"/>
	</clipPath>
	<g class="st2">
		<defs>
			<rect id="SVGID_7_" x="-1021.4" y="-2489" width="1440" height="5183"/>
		</defs>
		<clipPath id="SVGID_8_">
			<use xlink:href="#SVGID_7_"  style="overflow:visible;"/>
		</clipPath>
		<rect x="20.1" y="20.3" class="st3" width="19.4" height="18.1"/>
	</g>
</g>
<g>
	<defs>
		<path id="SVGID_9_" d="M6.3,12.5h8.7c0.4,0,0.7-0.3,0.7-0.6c0-0.3-0.3-0.6-0.7-0.6H6.3c-0.4,0-0.7,0.3-0.7,0.6
			C5.6,12.2,5.9,12.5,6.3,12.5"/>
	</defs>
	<clipPath id="SVGID_10_">
		<use xlink:href="#SVGID_9_"  style="overflow:visible;"/>
	</clipPath>
	<g class="st4">
		<defs>
			<rect id="SVGID_11_" x="-1021.4" y="-2489" width="1440" height="5183"/>
		</defs>
		<clipPath id="SVGID_12_">
			<use xlink:href="#SVGID_11_"  style="overflow:visible;"/>
		</clipPath>
		<rect x="0.6" y="6.3" class="st5" width="20.1" height="11.2"/>
	</g>
</g>
<g>
	<defs>
		<path id="SVGID_13_" d="M15.1,28.8H6.3c-0.4,0-0.7,0.3-0.7,0.6s0.3,0.6,0.7,0.6h8.7c0.4,0,0.7-0.3,0.7-0.6S15.4,28.8,15.1,28.8"/>
	</defs>
	<clipPath id="SVGID_14_">
		<use xlink:href="#SVGID_13_"  style="overflow:visible;"/>
	</clipPath>
	<g class="st6">
		<defs>
			<rect id="SVGID_15_" x="-1021.4" y="-2489" width="1440" height="5183"/>
		</defs>
		<clipPath id="SVGID_16_">
			<use xlink:href="#SVGID_15_"  style="overflow:visible;"/>
		</clipPath>
		<rect x="0.6" y="23.8" class="st7" width="20.1" height="11.2"/>
	</g>
</g>
<g>
	<defs>
		<path id="SVGID_17_" d="M6.3,16h19.5c0.4,0,0.7-0.3,0.7-0.6c0-0.3-0.3-0.6-0.7-0.6H6.3c-0.4,0-0.7,0.3-0.7,0.6
			C5.6,15.7,5.9,16,6.3,16"/>
	</defs>
	<clipPath id="SVGID_18_">
		<use xlink:href="#SVGID_17_"  style="overflow:visible;"/>
	</clipPath>
	<g class="st8">
		<defs>
			<rect id="SVGID_19_" x="-1021.4" y="-2489" width="1440" height="5183"/>
		</defs>
		<clipPath id="SVGID_20_">
			<use xlink:href="#SVGID_19_"  style="overflow:visible;"/>
		</clipPath>
		<rect x="0.6" y="9.8" class="st9" width="30.9" height="11.2"/>
	</g>
</g>
<g>
	<defs>
		<path id="SVGID_21_" d="M6.3,23h16.1c0.4,0,0.7-0.3,0.7-0.6c0-0.3-0.3-0.6-0.7-0.6H6.3c-0.4,0-0.7,0.3-0.7,0.6
			C5.6,22.7,5.9,23,6.3,23"/>
	</defs>
	<clipPath id="SVGID_22_">
		<use xlink:href="#SVGID_21_"  style="overflow:visible;"/>
	</clipPath>
	<g class="st10">
		<defs>
			<rect id="SVGID_23_" x="-1021.4" y="-2489" width="1440" height="5183"/>
		</defs>
		<clipPath id="SVGID_24_">
			<use xlink:href="#SVGID_23_"  style="overflow:visible;"/>
		</clipPath>
		<rect x="0.6" y="16.8" class="st11" width="27.5" height="11.2"/>
	</g>
</g>
<g>
	<defs>
		<path id="SVGID_25_" d="M19.1,25.3H6.3c-0.4,0-0.7,0.3-0.7,0.6s0.3,0.6,0.7,0.6h12.8c0.4,0,0.7-0.3,0.7-0.6S19.5,25.3,19.1,25.3"
			/>
	</defs>
	<clipPath id="SVGID_26_">
		<use xlink:href="#SVGID_25_"  style="overflow:visible;"/>
	</clipPath>
	<g class="st12">
		<defs>
			<rect id="SVGID_27_" x="-1021.4" y="-2489" width="1440" height="5183"/>
		</defs>
		<clipPath id="SVGID_28_">
			<use xlink:href="#SVGID_27_"  style="overflow:visible;"/>
		</clipPath>
		<rect x="0.6" y="20.3" class="st13" width="24.1" height="11.2"/>
	</g>
</g>
<g>
	<defs>
		<path id="SVGID_29_" d="M6.3,19.5h9.4c0.4,0,0.7-0.3,0.7-0.6c0-0.3-0.3-0.6-0.7-0.6H6.3c-0.4,0-0.7,0.3-0.7,0.6
			C5.6,19.2,5.9,19.5,6.3,19.5"/>
	</defs>
	<clipPath id="SVGID_30_">
		<use xlink:href="#SVGID_29_"  style="overflow:visible;"/>
	</clipPath>
	<g class="st14">
		<defs>
			<rect id="SVGID_31_" x="-1021.4" y="-2489" width="1440" height="5183"/>
		</defs>
		<clipPath id="SVGID_32_">
			<use xlink:href="#SVGID_31_"  style="overflow:visible;"/>
		</clipPath>
		<rect x="0.6" y="13.3" class="st15" width="20.8" height="11.2"/>
	</g>
</g>
<g>
	<defs>
		<path id="SVGID_33_" d="M25.8,18.3h-4.7c-0.4,0-0.7,0.3-0.7,0.6c0,0.3,0.3,0.6,0.7,0.6h4.7c0.4,0,0.7-0.3,0.7-0.6
			C26.5,18.6,26.2,18.3,25.8,18.3"/>
	</defs>
	<clipPath id="SVGID_34_">
		<use xlink:href="#SVGID_33_"  style="overflow:visible;"/>
	</clipPath>
	<g class="st16">
		<defs>
			<rect id="SVGID_35_" x="-1021.4" y="-2489" width="1440" height="5183"/>
		</defs>
		<clipPath id="SVGID_36_">
			<use xlink:href="#SVGID_35_"  style="overflow:visible;"/>
		</clipPath>
		<rect x="15.4" y="13.3" class="st17" width="16.1" height="11.2"/>
	</g>
</g>
<g>
	<defs>
		<path id="SVGID_37_" d="M17.9,18.5c-0.1,0.1-0.2,0.3-0.2,0.4s0.1,0.3,0.2,0.4c0.1,0.1,0.3,0.2,0.5,0.2s0.3-0.1,0.5-0.2
			c0.1-0.1,0.2-0.3,0.2-0.4s-0.1-0.3-0.2-0.4C18.6,18.2,18.2,18.2,17.9,18.5"/>
	</defs>
	<clipPath id="SVGID_38_">
		<use xlink:href="#SVGID_37_"  style="overflow:visible;"/>
	</clipPath>
	<g class="st18">
		<defs>
			<rect id="SVGID_39_" x="-1021.4" y="-2489" width="1440" height="5183"/>
		</defs>
		<clipPath id="SVGID_40_">
			<use xlink:href="#SVGID_39_"  style="overflow:visible;"/>
		</clipPath>
		<rect x="12.7" y="13.3" class="st19" width="11.3" height="11.2"/>
	</g>
</g>
</svg>
