<?xml version="1.0" encoding="utf-8"?>
<!-- Generator: Adobe Illustrator 19.2.1, SVG Export Plug-In . SVG Version: 6.00 Build 0)  -->
<!DOCTYPE svg PUBLIC "-//W3C//DTD SVG 1.1//EN" "http://www.w3.org/Graphics/SVG/1.1/DTD/svg11.dtd">
<svg version="1.1" id="Layer_1" xmlns="http://www.w3.org/2000/svg" xmlns:xlink="http://www.w3.org/1999/xlink" x="0px" y="0px"
	 viewBox="0 0 28 35.7" style="enable-background:new 0 0 28 35.7;" xml:space="preserve">
<style type="text/css">
	.st0{clip-path:url(#SVGID_2_);}
	.st1{clip-path:url(#SVGID_4_);fill:#FFFFFF;}
	.st2{clip-path:url(#SVGID_6_);}
	.st3{clip-path:url(#SVGID_8_);fill:#FFFFFF;}
	.st4{clip-path:url(#SVGID_10_);}
	.st5{clip-path:url(#SVGID_12_);enable-background:new    ;}
	.st6{clip-path:url(#SVGID_14_);}
	.st7{clip-path:url(#SVGID_16_);}
	.st8{clip-path:url(#SVGID_18_);fill:#FFFFFF;}
	.st9{clip-path:url(#SVGID_20_);}
	.st10{clip-path:url(#SVGID_22_);fill:#FFFFFF;}
	.st11{clip-path:url(#SVGID_24_);}
	.st12{clip-path:url(#SVGID_26_);fill:#FFFFFF;}
	.st13{clip-path:url(#SVGID_28_);}
	.st14{clip-path:url(#SVGID_30_);fill:#FFFFFF;}
	.st15{clip-path:url(#SVGID_32_);}
	.st16{clip-path:url(#SVGID_34_);fill:#FFFFFF;}
	.st17{clip-path:url(#SVGID_36_);}
	.st18{clip-path:url(#SVGID_38_);fill:#FFFFFF;}
	.st19{clip-path:url(#SVGID_40_);}
	.st20{clip-path:url(#SVGID_42_);fill:#FFFFFF;}
	.st21{clip-path:url(#SVGID_44_);}
	.st22{clip-path:url(#SVGID_46_);fill:#FFFFFF;}
	.st23{clip-path:url(#SVGID_48_);}
	.st24{clip-path:url(#SVGID_50_);fill:#FFFFFF;}
	.st25{clip-path:url(#SVGID_52_);}
	.st26{clip-path:url(#SVGID_54_);fill:#FFFFFF;}
	.st27{clip-path:url(#SVGID_56_);}
	.st28{clip-path:url(#SVGID_58_);fill:#FFFFFF;}
	.st29{clip-path:url(#SVGID_60_);}
	.st30{clip-path:url(#SVGID_62_);fill:#FFFFFF;}
	.st31{clip-path:url(#SVGID_64_);}
	.st32{clip-path:url(#SVGID_66_);fill:#FFFFFF;}
	.st33{clip-path:url(#SVGID_68_);}
	.st34{clip-path:url(#SVGID_70_);fill:#FFFFFF;}
	.st35{clip-path:url(#SVGID_72_);}
	.st36{clip-path:url(#SVGID_74_);fill:#FFFFFF;}
</style>
<g>
	<defs>
		<ellipse id="SVGID_1_" cx="11.6" cy="28.2" rx="1.3" ry="1.1"/>
	</defs>
	<clipPath id="SVGID_2_">
		<use xlink:href="#SVGID_1_"  style="overflow:visible;"/>
	</clipPath>
	<g class="st0">
		<defs>
			<rect id="SVGID_3_" x="-212.4" y="-2490.6" width="1440" height="5183"/>
		</defs>
		<clipPath id="SVGID_4_">
			<use xlink:href="#SVGID_3_"  style="overflow:visible;"/>
		</clipPath>
		<rect x="5.3" y="22.1" class="st1" width="12.6" height="12.2"/>
	</g>
</g>
<g>
	<defs>
		<path id="SVGID_5_" d="M7.2,15.7c-0.7,0-1.3,0.5-1.3,1.1c0,0.6,0.6,1.1,1.3,1.1s1.3-0.5,1.3-1.1C8.5,16.2,7.9,15.7,7.2,15.7"/>
	</defs>
	<clipPath id="SVGID_6_">
		<use xlink:href="#SVGID_5_"  style="overflow:visible;"/>
	</clipPath>
	<g class="st2">
		<defs>
			<rect id="SVGID_7_" x="-212.4" y="-2490.6" width="1440" height="5183"/>
		</defs>
		<clipPath id="SVGID_8_">
			<use xlink:href="#SVGID_7_"  style="overflow:visible;"/>
		</clipPath>
		<rect x="0.9" y="10.7" class="st3" width="12.6" height="12.2"/>
	</g>
</g>
<g>
	<defs>
		<rect id="SVGID_9_" x="2.6" y="2.4" width="22.4" height="30.8"/>
	</defs>
	<clipPath id="SVGID_10_">
		<use xlink:href="#SVGID_9_"  style="overflow:visible;"/>
	</clipPath>
	<g class="st4">
		<defs>
			<rect id="SVGID_11_" x="-212.4" y="-2490.6" width="1440" height="5183"/>
		</defs>
		<clipPath id="SVGID_12_">
			<use xlink:href="#SVGID_11_"  style="overflow:visible;"/>
		</clipPath>
		<g class="st5">
			<g>
				<defs>
					<rect id="SVGID_13_" x="2.6" y="2.4" width="23" height="31"/>
				</defs>
				<clipPath id="SVGID_14_">
					<use xlink:href="#SVGID_13_"  style="overflow:visible;"/>
				</clipPath>
				<g class="st6">
					<defs>
						<path id="SVGID_15_" d="M22.8,4.3h-18v8.9h18L22.8,4.3L22.8,4.3z M6.3,11.9h15V5.6h-15V11.9z"/>
					</defs>
					<clipPath id="SVGID_16_">
						<use xlink:href="#SVGID_15_"  style="overflow:visible;"/>
					</clipPath>
					<g class="st7">
						<defs>
							<rect id="SVGID_17_" x="2.6" y="2.4" width="23" height="31"/>
						</defs>
						<clipPath id="SVGID_18_">
							<use xlink:href="#SVGID_17_"  style="overflow:visible;"/>
						</clipPath>
						<rect x="-0.2" y="-0.7" class="st8" width="28" height="18.9"/>
					</g>
				</g>
				<g class="st6">
					<defs>
						<path id="SVGID_19_" d="M11.6,19.5c-0.7,0-1.3,0.5-1.3,1.1s0.6,1.1,1.3,1.1s1.3-0.5,1.3-1.1S12.3,19.5,11.6,19.5"/>
					</defs>
					<clipPath id="SVGID_20_">
						<use xlink:href="#SVGID_19_"  style="overflow:visible;"/>
					</clipPath>
					<g class="st9">
						<defs>
							<rect id="SVGID_21_" x="2.6" y="2.4" width="23" height="31"/>
						</defs>
						<clipPath id="SVGID_22_">
							<use xlink:href="#SVGID_21_"  style="overflow:visible;"/>
						</clipPath>
						<rect x="5.3" y="14.5" class="st10" width="12.6" height="12.2"/>
					</g>
				</g>
				<g class="st6">
					<defs>
						<path id="SVGID_23_" d="M7.2,19.5c-0.7,0-1.3,0.5-1.3,1.1s0.6,1.1,1.3,1.1s1.3-0.5,1.3-1.1S7.9,19.5,7.2,19.5"/>
					</defs>
					<clipPath id="SVGID_24_">
						<use xlink:href="#SVGID_23_"  style="overflow:visible;"/>
					</clipPath>
					<g class="st11">
						<defs>
							<rect id="SVGID_25_" x="2.6" y="2.4" width="23" height="31"/>
						</defs>
						<clipPath id="SVGID_26_">
							<use xlink:href="#SVGID_25_"  style="overflow:visible;"/>
						</clipPath>
						<rect x="0.9" y="14.5" class="st12" width="12.6" height="12.2"/>
					</g>
				</g>
				<g class="st6">
					<defs>
						<path id="SVGID_27_" d="M7.2,27.1c-0.7,0-1.3,0.5-1.3,1.1s0.6,1.1,1.3,1.1s1.3-0.5,1.3-1.1C8.5,27.6,7.9,27.1,7.2,27.1"/>
					</defs>
					<clipPath id="SVGID_28_">
						<use xlink:href="#SVGID_27_"  style="overflow:visible;"/>
					</clipPath>
					<g class="st13">
						<defs>
							<rect id="SVGID_29_" x="2.6" y="2.4" width="23" height="31"/>
						</defs>
						<clipPath id="SVGID_30_">
							<use xlink:href="#SVGID_29_"  style="overflow:visible;"/>
						</clipPath>
						<rect x="0.9" y="22.1" class="st14" width="12.6" height="12.2"/>
					</g>
				</g>
				<g class="st6">
					<defs>
						<path id="SVGID_31_" d="M11.6,15.7c-0.7,0-1.3,0.5-1.3,1.1c0,0.6,0.6,1.1,1.3,1.1s1.3-0.5,1.3-1.1
							C12.9,16.2,12.3,15.7,11.6,15.7"/>
					</defs>
					<clipPath id="SVGID_32_">
						<use xlink:href="#SVGID_31_"  style="overflow:visible;"/>
					</clipPath>
					<g class="st15">
						<defs>
							<rect id="SVGID_33_" x="2.6" y="2.4" width="23" height="31"/>
						</defs>
						<clipPath id="SVGID_34_">
							<use xlink:href="#SVGID_33_"  style="overflow:visible;"/>
						</clipPath>
						<rect x="5.3" y="10.7" class="st16" width="12.6" height="12.2"/>
					</g>
				</g>
				<g class="st6">
					<defs>
						<path id="SVGID_35_" d="M7.2,23.3c-0.7,0-1.3,0.5-1.3,1.1c0,0.6,0.6,1.1,1.3,1.1s1.3-0.5,1.3-1.1C8.5,23.8,7.9,23.3,7.2,23.3"
							/>
					</defs>
					<clipPath id="SVGID_36_">
						<use xlink:href="#SVGID_35_"  style="overflow:visible;"/>
					</clipPath>
					<g class="st17">
						<defs>
							<rect id="SVGID_37_" x="2.6" y="2.4" width="23" height="31"/>
						</defs>
						<clipPath id="SVGID_38_">
							<use xlink:href="#SVGID_37_"  style="overflow:visible;"/>
						</clipPath>
						<rect x="0.9" y="18.3" class="st18" width="12.6" height="12.2"/>
					</g>
				</g>
				<g class="st6">
					<defs>
						<path id="SVGID_39_" d="M11.6,23.3c-0.7,0-1.3,0.5-1.3,1.1c0,0.6,0.6,1.1,1.3,1.1s1.3-0.5,1.3-1.1
							C12.9,23.8,12.3,23.3,11.6,23.3"/>
					</defs>
					<clipPath id="SVGID_40_">
						<use xlink:href="#SVGID_39_"  style="overflow:visible;"/>
					</clipPath>
					<g class="st19">
						<defs>
							<rect id="SVGID_41_" x="2.6" y="2.4" width="23" height="31"/>
						</defs>
						<clipPath id="SVGID_42_">
							<use xlink:href="#SVGID_41_"  style="overflow:visible;"/>
						</clipPath>
						<rect x="5.3" y="18.3" class="st20" width="12.6" height="12.2"/>
					</g>
				</g>
				<g class="st6">
					<defs>
						<path id="SVGID_43_" d="M20.4,19.5c-0.7,0-1.3,0.5-1.3,1.1s0.6,1.1,1.3,1.1c0.7,0,1.3-0.5,1.3-1.1S21.1,19.5,20.4,19.5"/>
					</defs>
					<clipPath id="SVGID_44_">
						<use xlink:href="#SVGID_43_"  style="overflow:visible;"/>
					</clipPath>
					<g class="st21">
						<defs>
							<rect id="SVGID_45_" x="2.6" y="2.4" width="23" height="31"/>
						</defs>
						<clipPath id="SVGID_46_">
							<use xlink:href="#SVGID_45_"  style="overflow:visible;"/>
						</clipPath>
						<rect x="14.1" y="14.5" class="st22" width="12.6" height="12.2"/>
					</g>
				</g>
				<g class="st6">
					<defs>
						<path id="SVGID_47_" d="M20.4,15.7c-0.7,0-1.3,0.5-1.3,1.1c0,0.6,0.6,1.1,1.3,1.1c0.7,0,1.3-0.5,1.3-1.1
							C21.7,16.2,21.1,15.7,20.4,15.7"/>
					</defs>
					<clipPath id="SVGID_48_">
						<use xlink:href="#SVGID_47_"  style="overflow:visible;"/>
					</clipPath>
					<g class="st23">
						<defs>
							<rect id="SVGID_49_" x="2.6" y="2.4" width="23" height="31"/>
						</defs>
						<clipPath id="SVGID_50_">
							<use xlink:href="#SVGID_49_"  style="overflow:visible;"/>
						</clipPath>
						<rect x="14.1" y="10.7" class="st24" width="12.6" height="12.2"/>
					</g>
				</g>
				<g class="st6">
					<defs>
						<path id="SVGID_51_" d="M22.6,2.4H5c-1.3,0-2.4,0.9-2.4,2.1v26.6c0,1.1,1.1,2.1,2.4,2.1h17.6c1.3,0,2.4-0.9,2.4-2.1V4.4
							C25,3.3,23.9,2.4,22.6,2.4 M4.1,4.4C4.1,4,4.5,3.7,5,3.7h17.6c0.5,0,0.9,0.4,0.9,0.8v26.6c0,0.4-0.4,0.8-0.9,0.8H5
							c-0.5,0-0.9-0.4-0.9-0.8V4.4"/>
					</defs>
					<clipPath id="SVGID_52_">
						<use xlink:href="#SVGID_51_"  style="overflow:visible;"/>
					</clipPath>
					<g class="st25">
						<defs>
							<rect id="SVGID_53_" x="2.6" y="2.4" width="23" height="31"/>
						</defs>
						<clipPath id="SVGID_54_">
							<use xlink:href="#SVGID_53_"  style="overflow:visible;"/>
						</clipPath>
						<rect x="-2.4" y="-2.6" class="st26" width="32.4" height="40.8"/>
					</g>
				</g>
				<g class="st6">
					<defs>
						<path id="SVGID_55_" d="M20.4,23.3c-0.7,0-1.3,0.5-1.3,1.1v3.8c0,0.6,0.6,1.1,1.3,1.1c0.7,0,1.3-0.5,1.3-1.1v-3.8
							C21.7,23.8,21.1,23.3,20.4,23.3"/>
					</defs>
					<clipPath id="SVGID_56_">
						<use xlink:href="#SVGID_55_"  style="overflow:visible;"/>
					</clipPath>
					<g class="st27">
						<defs>
							<rect id="SVGID_57_" x="2.6" y="2.4" width="23" height="31"/>
						</defs>
						<clipPath id="SVGID_58_">
							<use xlink:href="#SVGID_57_"  style="overflow:visible;"/>
						</clipPath>
						<rect x="14.1" y="18.3" class="st28" width="12.6" height="16"/>
					</g>
				</g>
				<g class="st6">
					<defs>
						<path id="SVGID_59_" d="M16,23.3c-0.7,0-1.3,0.5-1.3,1.1c0,0.6,0.6,1.1,1.3,1.1c0.7,0,1.3-0.5,1.3-1.1
							C17.3,23.8,16.7,23.3,16,23.3"/>
					</defs>
					<clipPath id="SVGID_60_">
						<use xlink:href="#SVGID_59_"  style="overflow:visible;"/>
					</clipPath>
					<g class="st29">
						<defs>
							<rect id="SVGID_61_" x="2.6" y="2.4" width="23" height="31"/>
						</defs>
						<clipPath id="SVGID_62_">
							<use xlink:href="#SVGID_61_"  style="overflow:visible;"/>
						</clipPath>
						<rect x="9.7" y="18.3" class="st30" width="12.6" height="12.2"/>
					</g>
				</g>
				<g class="st6">
					<defs>
						<path id="SVGID_63_" d="M16,15.7c-0.7,0-1.3,0.5-1.3,1.1c0,0.6,0.6,1.1,1.3,1.1c0.7,0,1.3-0.5,1.3-1.1
							C17.3,16.2,16.7,15.7,16,15.7"/>
					</defs>
					<clipPath id="SVGID_64_">
						<use xlink:href="#SVGID_63_"  style="overflow:visible;"/>
					</clipPath>
					<g class="st31">
						<defs>
							<rect id="SVGID_65_" x="2.6" y="2.4" width="23" height="31"/>
						</defs>
						<clipPath id="SVGID_66_">
							<use xlink:href="#SVGID_65_"  style="overflow:visible;"/>
						</clipPath>
						<rect x="9.7" y="10.7" class="st32" width="12.6" height="12.2"/>
					</g>
				</g>
				<g class="st6">
					<defs>
						<path id="SVGID_67_" d="M16,27.1c-0.7,0-1.3,0.5-1.3,1.1s0.6,1.1,1.3,1.1c0.7,0,1.3-0.5,1.3-1.1C17.3,27.6,16.7,27.1,16,27.1"
							/>
					</defs>
					<clipPath id="SVGID_68_">
						<use xlink:href="#SVGID_67_"  style="overflow:visible;"/>
					</clipPath>
					<g class="st33">
						<defs>
							<rect id="SVGID_69_" x="2.6" y="2.4" width="23" height="31"/>
						</defs>
						<clipPath id="SVGID_70_">
							<use xlink:href="#SVGID_69_"  style="overflow:visible;"/>
						</clipPath>
						<rect x="9.7" y="22.1" class="st34" width="12.6" height="12.2"/>
					</g>
				</g>
				<g class="st6">
					<defs>
						<path id="SVGID_71_" d="M16,19.5c-0.7,0-1.3,0.5-1.3,1.1s0.6,1.1,1.3,1.1c0.7,0,1.3-0.5,1.3-1.1S16.7,19.5,16,19.5"/>
					</defs>
					<clipPath id="SVGID_72_">
						<use xlink:href="#SVGID_71_"  style="overflow:visible;"/>
					</clipPath>
					<g class="st35">
						<defs>
							<rect id="SVGID_73_" x="2.6" y="2.4" width="23" height="31"/>
						</defs>
						<clipPath id="SVGID_74_">
							<use xlink:href="#SVGID_73_"  style="overflow:visible;"/>
						</clipPath>
						<rect x="9.7" y="14.5" class="st36" width="12.6" height="12.2"/>
					</g>
				</g>
			</g>
		</g>
	</g>
</g>
</svg>
