<svg id="Layer_1" data-name="Layer 1" xmlns="http://www.w3.org/2000/svg" viewBox="0 0 200 200"><defs><style>.cls-1{fill:#b1b1b2;}</style></defs><title>icon</title><path class="cls-1" d="M106.7,63.22q0.14,5.82-3.27,9a9.76,9.76,0,0,1-5.06,2.44v7.2H92.63V74.56a9.82,9.82,0,0,1-6.25-4.81,16.8,16.8,0,0,1-2.12-7.54l6.5-.47q0.43,4,2,5.67a3.47,3.47,0,0,0,2.8,1.26,4.21,4.21,0,0,0,3.55-2.19,5.44,5.44,0,0,0,.68-3,8.42,8.42,0,0,0-2.51-5.56q-2-1.9-6.07-5.71a24.78,24.78,0,0,1-4.52-5.46A13.31,13.31,0,0,1,85,40.07a12.52,12.52,0,0,1,1.65-6.35,9.08,9.08,0,0,1,6-4.52v-7h5.74v7a9.48,9.48,0,0,1,4.52,2.3,11.29,11.29,0,0,1,3.52,7.72l-6.53,1.18A8.2,8.2,0,0,0,98.3,36,3.2,3.2,0,0,0,95.64,35a3.1,3.1,0,0,0-2.83,1.65,6.36,6.36,0,0,0-.79,3.3,10,10,0,0,0,2.66,6.32,25.37,25.37,0,0,0,3,2.83,41.53,41.53,0,0,1,3.16,2.76,24.54,24.54,0,0,1,3.84,5A14.1,14.1,0,0,1,106.7,63.22Z"/><path class="cls-1" d="M167,73.94l-7.74,20.65L155,88.07,98.1,123.93l-11-17.53L39,136.84l-6-9.37L90.49,91.06l11,17.53,47.41-29.75-4.08-6.11ZM48.51,162.11H62.64v-30.3l-14.13,9v21.33Zm22.55-35.59v35.59h14V119L84.38,118ZM93.48,136.7v25.54h14.13V127.74l-12.23,7.61ZM116,162.11h14.13v-48.5L116,122.44v39.67Zm22.55,0h14.13V99.48l-14.13,8.83v53.8Z"/></svg>