<?xml version="1.0" encoding="utf-8"?>
<!-- Generator: Adobe Illustrator 19.2.1, SVG Export Plug-In . SVG Version: 6.00 Build 0)  -->
<!DOCTYPE svg PUBLIC "-//W3C//DTD SVG 1.1//EN" "http://www.w3.org/Graphics/SVG/1.1/DTD/svg11.dtd">
<svg version="1.1" id="Layer_1" xmlns="http://www.w3.org/2000/svg" xmlns:xlink="http://www.w3.org/1999/xlink" x="0px" y="0px"
	 viewBox="0 0 179.7 246.4" style="enable-background:new 0 0 179.7 246.4;" xml:space="preserve">
<style type="text/css">
	.st0{fill:#EF4343;}
</style>
<path class="st0" d="M157.1,123.2l-0.6-1.4c-1.1-2.7-1.1-5.7-0.1-8.4l0.7-1.7c0,0,43.8-65.9-11.4-98.4C137.7,8.9,129,2,79.8,8.3
	c-49.2,6.3-70,31.6-72.3,56.6c-2.8,29.3,7.6,46.7,12.7,53.3c1.5,1.9,1.6,4.6,0.3,6.7c-4.9,8-14.2,28.1-11.6,51.4
	c3.1,28.2,20.6,46.7,29,54.1c2.7,2.3,25.2,9.9,52.5,9.5c27.4-0.4,50.4-6.8,53.1-8.5c9.7-6.2,29.3-23.6,30.4-57.5
	C174.9,142.3,157.1,123.2,157.1,123.2z M109.4,11.8c0.4,0.1,2.2,0.2,2.8,0.2s2.9-0.9,2.9-0.9l-1.6,1.6c0,0-3.6,0.3-4.3,0.1
	c-0.7-0.2-2.3,0-2.3,0l-1.2,0.9l-1.1,0.3H103c0,0-0.9,0.3-1.4,0.8c-0.5,0.5-0.9-0.6-0.8-0.9c0.1-0.3-0.8,0-1.4-0.2
	c-0.6-0.2-0.6,0.2-0.6,0.2s-2.1,0-2.6,0c-0.5,0-1.1,0-1.6,0.1c-0.5,0.1-1.3,0.9-1.6,1c-0.3,0-2,1.2-2.5,1.1
	c-0.5-0.1,0.1-2.3,0.1-2.3s1.9-0.2,2.2-0.3c0.3-0.1,1.2-0.8,1.7-1.3c0.5-0.5,2.6-0.3,3-0.3c0.4,0,1.6,0.1,1.6,0.1s2-0.2,2.9-0.3
	c0.9-0.1,0.9,0.3,1.4,0.3c0.5,0,1.5,0.2,1.5,0.2l1.8-0.5C106.7,11.8,109,11.7,109.4,11.8z M55.1,34.9c0,0,2.2-1.3,3.1-1.3
	c0.9,0,11.1-3.4,13.3-4.4c2.2-1,19.8-3,19.8-3c-8,1.3-14.7,3.4-19.4,4.4c-4.7,1-9.2,3.3-11.2,4.6c-2.1,1.3-10.4,3.1-10.4,3.1
	s3.7-1.5,4.7-2.2C56.1,35.3,55.1,34.9,55.1,34.9z M47.2,25.8c1,0.3,2.8-0.7,3.8-1.5c1-0.8,1.9-1.6,1.9-1.6s0.7,0.4,1.1,0.7
	c0.4,0.3,2.1,0.5,2.9,0.4c0.8-0.1,2.8-1,2.8-1s-1.3,1.6-3.4,1.9c-2.1,0.4-2.8-0.4-3.6-0.4c-0.8,0-0.7,0.5-1.2,0.8
	c-0.4,0.3-1.3,0.4-1.8,0.7c-0.4,0.3-1,0.4-1.3,1.3c-0.2,0.9-1.6,1.1-1.3,0C47.6,25.9,47.2,25.8,47.2,25.8z M67.6,19.3
	c0-0.4,1.1-1.4,1.6-1.2l2.8-0.5c0,0,0.9-0.7,1.2-0.9c0.3-0.2,1.5,0,1.9,0c0.4,0,1.3,0.7,1.3,1.3s-2.1,0.2-2.4,0
	c-0.3-0.2-0.7,1.4-0.7,1.4s-2.7,0.2-3.7-0.1C68.7,19,67.6,19.7,67.6,19.3z M80.1,17.6c0.2,0.4,1.1-0.2,1.5-0.4s0.5-1.5,0.5-1.5
	s0.4-0.4,1.1-0.7c0.7-0.3,0.5-0.1,1.6-0.4c1.1-0.3,0.4,0.9,0.4,0.9s0,1.5,0.7,1.2c0.7-0.3,0.5-0.5,0.5-1.4c0-0.9,1.9-0.7,1.9-0.7
	l-0.9,2.1l-1.7,0.9c0,0-1.5,0.1-2,0.4c-0.5,0.3-1.1,0.7-1.5,1.5c-0.4,0.8-0.6,0-0.6,0l-2.4-0.7v-1.2v-1.5c0,0,0.8-0.6,1.5-0.5
	c0.7,0.1-0.2,1-0.2,1S79.9,17.2,80.1,17.6z M64.6,16.1c0.4,0,0.7-0.7,1.1-1.4c0.4-0.7,1.2-0.8,1.9-1c0.7-0.2,1.4-0.3,2.5-0.4
	c1.1-0.1,1.9-0.5,2.6-1.3c0.7-0.8,3-1.3,4.1-1.6c1.2-0.3,1.8,0,3.3,0.1c1.5,0.1,2.9,0,3.5,0.3c0.6,0.3,3.3-0.7,3.7-0.8
	c0.4-0.1,0.4-0.4-1.3-0.4c-1.7,0-6.7,0.4-6.7,0.4s3-0.7,5.4-1c2.3-0.4,4.3,0.5,5.7,0.6c1.5,0.1,2.7-0.6,8.4-1.3
	c5.6-0.7,7.8,0.7,7.8,0.7s-2.9-0.1-6.9,0c-4,0.1-4.5,0.6-4.5,0.6l-7.4,1.9c0,0-1.3-0.2-2.9,0c-1.6,0.2-1.2,1-1.9,1.4
	c-0.7,0.4-1-0.1-1.4-0.6c-0.4-0.5-0.9-0.8-2.4,0c-1.5,0.8-3.1,1.9-3.1,1.9s-1.1-0.5-1.3-0.4c-0.2,0.1-0.7,0.9-1.6,1.2
	c-0.9,0.3-2.6,0.4-3.2,1c-0.6,0.7-4,1.3-4.8,1.7c-0.8,0.4-2.6-0.8-2.6-0.8S64.2,16.1,64.6,16.1z M42.9,24.2c1.6-0.8,1,0,1,0
	s1.4-0.1,2.9-1.1c1.5-1,2.6-1.7,4-1.9c1.4-0.2,1.9-1.3,2.7-1.6c0.9-0.4,2.4-1,2.8-1.2c0.4-0.2,0.5-0.4,1.3-0.6c0.8-0.2,2.4-1,2.4-1
	s2.1,0.3,1.6,0.5s-0.9,0.6-1,1c-0.1,0.4-1.6,1.6-1.8,1.6c-0.2,0-1.9,0.1-2.2,0.2c-0.3,0.1-0.8,0.4-1.1,0.6c-0.3,0.2-1.1,1-1.5,1
	c-0.4,0-1.3-0.3-1.6,0c-0.3,0.3-1.6,1.1-2.1,1.3c-0.5,0.2-1.9,0.3-1.9,0.3S45.4,25,44.8,25c-0.6,0-2.3-0.4-3.6,1.6
	C41.2,26.7,41.3,25,42.9,24.2z M35.8,35.2c0.8-1,2.8-1,2.7-1.8c-0.1-0.8-1.2-2-1.3-3.4c-0.1-1.4,0-3.8,1.3-4.1
	c1.3-0.4,1.6,0.4,1.4,1c-0.2,0.6,1,0.5,1,0.8c0,0.3-0.9,0.4-1.6,0.7c-0.7,0.3-0.4,0.4-0.6,1c-0.1,0.6,0.6,0.7,1.2,0.9
	c0.6,0.1,1.1-0.2,1.6-0.3s1.2-0.4,2.4-1c1.2-0.6,2.9-0.8,2.9-0.8s-1.9,1.6-2.9,2C42.9,30.6,41,31,41,31s0.1,0.7,0.6,1.7
	c0.5,1,1.6,1.6,1.6,1.6s-2.7-0.1-3.3-0.1c-0.6,0-1,1-2.4,1.1c-1.5,0.1-1.6,1-2.2,1.4c-0.6,0.5-2.2,0.9-2.2,0.9S35,36.1,35.8,35.2z
	 M29.7,39.6c0.9-1,2.6-1.3,2.6-1.3s-0.4,0.3-0.3,1.3c0.1,1,0.5,1.1,1,1.1c0.4-0.1,0.8-0.1,1.3-0.4c0.5-0.3,0.4-0.3,1-0.5
	c0.5-0.2,2.3-0.3,2.5-0.6c0.2-0.3,2.8-1.5,3-1.6c0.3-0.1,0.5-0.3,1-0.4c0.5-0.1,2.1-1.2,2.7-1.3c0.6-0.1,1.6-0.5,2-0.7
	c0.4-0.2,1.7-0.6,2.1-0.8c0.4-0.2,1.6-0.3,1.7-0.7c0.1-0.4-3-0.2-5,0.2c0,0,1.6-1.2,5.4-1.6c3.7-0.4,8.3-1.7,8.3-1.7
	s-4.5,2.3-5.9,2.6c-1.4,0.3-2.3,0.8-2,1c0.3,0.1,2.8-0.4,3-0.7c0.2-0.3,1.7-0.8,1.7-0.8s-2.7,2.1-3.4,2.2c-0.7,0.1-1.5,0.7-1.9,1.1
	c-0.5,0.4-1.7,1.6-2.1,2c-0.4,0.4-3,1.2-3,1.2s0.4-0.6,2.2-1.8c1.8-1.2,1.5-1.4,1.2-1.4c-0.3,0-2,0.5-2.2,0.9
	c-0.3,0.4-1.3,1-1.7,1.5c-0.4,0.5-1.6,1.4-2.1,1.5c-0.5,0.1-2.1,0.8-2.2,0.8c-0.1,0-0.5-0.5-0.3-0.7c0.2-0.2,1-0.5,1.5-0.8
	c0.5-0.3,1.3-0.2,1.6-0.8c0.3-0.6,1-0.9,1-1.1c-0.1-0.2-1.4,0.3-1.8,0.4c-0.4,0.1-0.6,0-0.8,0.1c-0.2,0.1-0.7,0.5-1,0.9
	c-0.3,0.4-1.2,0.8-1.2,1.7c0,0.8-0.6,1.2-0.6,1.2s-3.5,1.4-4.6,1.4c-1.2,0-1-0.2-1.1-0.4c-0.1-0.2-0.7,0.3-1,0.4
	c-0.3,0.1-1-0.1-1-0.3c0-0.2-0.1-0.4-0.4-0.5c-0.4-0.1-1.3,0.1-1.6-1C28.8,40.1,28.8,40.5,29.7,39.6z M22.2,62.4
	c2.8-8.5,4.5-9.2,4.5-9.2s-0.1,2.8,1.1,3.3c1.2,0.4,1.4-0.4,4.5-3.3S38,46.5,44.8,45c6.8-1.5,4.5-4.4,26.5-7.6s28.9-3.5,28.9-3.5
	c-11.1-1.1-19.6,0-23.3,0.7c-0.5,0.2-1.1,0.3-2,0.4c0,0,0.7-0.2,2-0.4c1.1-0.4,1.2-0.8,1.2-0.8s2.7-1.5,15.6-1.6
	c12.9-0.1,22.5,3.2,22.5,3.2c-13.8-1.7-38.8-0.3-68.9,11.2c-1.4,0.5-0.6-1.2-1.8-0.6c-4.2,2.2-10.8,11.5-10.4,8.2
	c0.1-0.5-2.8,1.2-5.1,9c-0.5,1.7-1.7-5.4-3.2-3.6c0,0-2.1,6.4-0.3,17.6c0.3,1.8,1.2,10.3,4.7,16.9c0,0-2.5-10-2.1-9.2
	c3.7,7.3,9.6,12.5,10.4,13.4c2.7,2.9,5.1,2.6,5.5,2.5c0,0,0.1,0,0.1,0s0,0-0.1,0c-0.4,0.1-2.7,0.6-4.2,1.8c-1.7,1.2-4.9,2.3-4.9,2.3
	s-1.8-0.7-2.8-2c-1-1.3-1.2-5.2-2.3-5.4c-1.2-0.3-2,0.5-4.2-4.1c-2.5-5.4-3-12.9-3-12.9c-0.6,2.5,0.7,9.6,0.7,9.6
	S17.8,75.7,22.2,62.4z M38.8,90.7c1.1,1,2,2.7,2,2.7s-0.7-0.4-0.9,0c-0.2,0.4,1.7,2,2.2,2.3c0.5,0.3,1.4,2,1.3,1.5
	c-0.1-0.5,0.1,0.5,1,1.2c0.9,0.7,1.7,1.6,1.7,1.6s-0.6-0.1-0.9,0c-0.3,0.1-1.5-0.5-2.9-0.9c-1.4-0.4-1.3-0.9-2.4-1.6
	s-4.2-4.7-4.2-4.7l2.6,2c0,0-0.8-1.5-1.4-2.5c-0.6-1-1.5-2.2-2.4-3.1c-0.9-0.9-1.9-3.8-2.6-4.9c-0.7-1.1-2-10.1-2-10.1
	s2.3,6.1,2.3,6.9c0,0.8,1.7,3.1,3.7,4.6c2,1.5,2.1,3.5,2.1,3.5l-1.5-1.5C36.5,87.7,37.7,89.7,38.8,90.7z M50.3,102.1
	c-4.9,1.6-5.1,1.1-4.3,0.6c0.8-0.5,3.5-2.2,5.3-3.1c1.8-0.9,5-2.8,6.3-3.3c1.3-0.5,10.8-3.5,13.3-3.5c2.5,0,5.5,0.3,7,0
	c1.5-0.3,10.4,2.8,10.4,2.8s-4.5,0-4.9,0.4c-0.4,0.4-3.2,1.1-5.9,0.9c-2.7-0.2-6.9-0.2-9.6,0.4c-2.7,0.6-6.5,1-7.7,1.8
	C59,99.9,55.2,100.5,50.3,102.1z M27.5,126.4c-0.6,1-2.5,3.6-2.8,4.3c-0.3,0.7-1.9,1.5-3,2.3c-1.1,0.8-1.7,0.8-2.9,1.9
	c-1.2,1.1-0.4,3.9-0.4,4.5c0,0.6-0.7,2.8-1.1,3.7c-0.4,0.9-2.8,3.2-2.9,3.6c-0.1,0.4-0.3,2.7-0.5,3.5c-0.2,0.8-1.4,5.1-1.7,5.6
	c-0.3,0.5-1.7,6.4-1.7,8.5c0,2.2,2.5,25.7,0.6,20c-1.9-5.8-2-19.8-2-19.8s0.6-10.6,4.8-23.4c4.2-12.8,12.8-20.8,12.8-20.8l-1.6,2.3
	c0,0-1.1,2.7-1.5,3.5c-0.4,0.8-0.9,2-1.5,3c-0.6,1-1.1,1.7-1.4,2.4c-0.4,0.7,2,0.1,2,0.1s0.9-1,1.7-2.4c0.8-1.4,1.5-2.7,1.7-3.5
	c0.2-0.8,3.8-4.5,3.8-4.5S28.1,125.4,27.5,126.4z M33.8,111.3c-0.6,1.5-3.9,2.8-4.3,4.6c-0.4,1.8-3.8,3.2-3.4,2.8
	c0.4-0.4,3.1-3.4,3.8-4.6c0.7-1.2,5.1-4.8,6.5-6.1c1.4-1.3,7.8-5.9,7.8-5.9s-2.1,2.6-2.5,2.7c-0.4,0.2-2.4,2-3.2,2.5
	C37.7,107.9,34.3,109.8,33.8,111.3z M104.8,134.9c-1.6-0.3-2.1-4-4.3-6.8c-2.2-2.8-4.9-4-4.9-4s3.2,0.6,2.9,0
	c-0.3-0.6-2.6-1.8-3-4.2c-0.4-2.4-1.4-2.1-2.3-2.6c-0.9-0.5-2.6-0.2-4.9-2c-2.3-1.8-1.8-3-4.8-4.3c-3-1.3-4.2-0.7-4.2-0.7l2.6-1.4
	c0,0-1.1-0.2-3.2-1.6c-2.1-1.4-1.8-1-3.1,0.1c-1.3,1.1-1.4,1-2.4,0c-1-1-2-2.2-2.6-2.5c-0.6-0.3-2.7,0-3.6,0c-0.9,0-8.6-1.7-8.6-1.7
	s2.1-0.9,2.8-1.3c0.7-0.4,2.5-1.3,3.5-1.9c1-0.6,4-1.2,5.2-1.5c1.2-0.3,3,0.8,4.4,0.9c1.4,0.1,1.3,0.1,2.8,0.5
	c1.5,0.4,1.9,0.8,3.4,1.1c1.5,0.3,6.2,1.3,6.6,1.4c0,0-1.4,1.8-0.9,2.5c0.5,0.7,2.7,0.5,3.6,0.5c0.9,0,1.4,2.2,0.7,2.9
	c-0.7,0.7,0.5,0.7,2.2,1.5c1.7,0.8,3,0.8,4.8,1.1c1.8,0.3,2.7,1.2,4,2.9c1.3,1.7,0.2,2.1-0.1,2.9c-0.3,0.8,1.1,1,1.7,1.5
	c0.6,0.5,2.9,2.4,2.7,3.2c-0.2,0.8-3.4,0.3-3.4,0.3s2.1,1.9,3.4,3c1.3,1.1,1,3.6,1.9,5.8C108.5,132.7,106.4,135.2,104.8,134.9z
	 M116.8,130.1c-0.4,1.4-1.3,0.1-2.3-0.6c-1-0.7-4.8-4.9-5.7-5.4c-0.9-0.5,0.1-1,0-2.1c-0.1-1.1-0.2-2.8-0.7-3.3
	c-0.5-0.5-1.1-1.9-0.3-2.5c0.8-0.6-0.1-1.6-2.2-2.6c-2.1-1-4.2-1.6-4.2-1.6s1.1-1.5,0.5-2.4c-0.6-0.9-2.1-1-2-2.2
	c0.1-1.2-1.5-2.8-2.5-3.6c-1-0.8-1.3-2.8-1.3-2.8s0.1,0.5,2.1,0.7c2,0.2,3.8,0.2,7.5,1.5c2.5,0.9,2.4,0.7,2.3,0.7c0,0,0,0,0,0
	c0,0,0,0,0,0c0,0,0.1,0.1,0.3,0.1c0.9,0.5,1.4,2.7,1.8,4.4c0.4,1.7,1.1,1.9,2.1,3c1,1.1,0.8,2,1,3.1c0.2,1.1-0.3,0.7-0.7,1.4
	c-0.4,0.7,0.6,0.9,1.7,3.2c0.6,1.3,0.8,1.8,0.8,1.9c0.1-0.2,0.5-1,0.6-0.7c0.1,0.3,1.4,3.3,1.9,5.7
	C118,128.4,117.2,128.7,116.8,130.1z M129.9,87.2c-7.1,7.5-5.6,6.5-12.1,6.1c-6.5-0.4-17-6.9-37.6-4.5C59.5,91.2,47.8,100,47.8,100
	s-6.9-4.2-11.4-17.8c-4.5-13.6-0.9-27.7,12.5-33.8c13.4-6.1,25.4-11.6,54.9-12.5c30.1-1,32.8,13.1,33.4,18.9
	C137.9,60.7,136.9,79.7,129.9,87.2z M151.9,22.7c-0.8-0.6-1.3-0.6-2.4-1.8c-1.1-1.2-3.4-1.9-3.4-1.9s0.8,1.6,1.2,2.2
	c0.4,0.6,3,4.1,3,4.1s-2.2-2.4-3-2.6c-0.8-0.2-2.9-1.8-3.5-2.9c-0.6-1.1-2.8-1.7-3.7-2.6c-0.9-0.9-5.3-1.9-7.1-2.6
	c-1.8-0.8-10.1-3.4-10.1-3.4s3.8-0.6,4.7,0c0.9,0.6,0.8,0,1.6,0.5c0.8,0.5,2,0.5,2.8,0.7c0.8,0.2,1.3,0.5,3,1.3
	c1.7,0.8,2.7,0.1,2.4,0c-0.3-0.1-2.6-1.6-3.8-2c-1.2-0.4-2-0.5-3.1-0.5c-1.1,0-1.3-0.9-2.4-1.4c-1.1-0.5-1.2-0.6-1.6-0.6
	s1.3,0.9-6.1-0.4s-9.2-0.3-9.2-0.3V7.9c0,0,0.8-0.3,1.2-0.4c0.4-0.1,2.8,0,3.4,0c0.6,0,3.9,0.3,5.2,0.4c1.3,0.1,2.7,0.2,4.9,0
	c2.2-0.2,3.2,0.9,4.7,1c1.5,0.1,3.3,1,4.7,1.4c1.4,0.4,3.8,1.4,4.7,1.9c0.9,0.5,2.5,1.2,4.3,2.3c1.8,1.1,1.7,1,2.5,1.6
	c0.8,0.6,1.8,1,2.9,1.5c1.1,0.5,0.8,0.9,1.3,2.2c0.5,1.3,1.6,1.4,2.5,2.4c0.9,1,1.1,1.3,1.5,1.7c0.4,0.4,0.2,1.9,0.4,2.8
	c0.2,0.9,0.4,3,0.4,3s-0.7-1.2-1.2-2.2c-0.5-1-0.5-1.3-1-2.2C153.1,24.3,152.7,23.3,151.9,22.7z M152.4,29.7c0,0,2.1,0.9,2.2,1.3
	c0.1,0.4,1.3,0.9,2.3,1.3c1,0.4,1.3,0.6,2,0.9c0.7,0.3,1.5,0.5,2.6,1.1c1.1,0.6,0,0,0,1.6c0,1.6,0.8,1.7,1.3,1.8
	c0.5,0.1,2.4,1.5,2.6,1.8c0.2,0.3,0.7,2,0.8,2.4c0.1,0.4,0.6,2.9,0.8,3.7c0.2,0.8,0.3,1.6,0.4,2c0.1,0.4,0.4,3.3,0.4,3.3l-1.6-3.9
	c0,0-1.4-4-1.6-4c-0.2,0-2.5-1.5-2.5-1.5s-3-0.4-3.5-0.7c-0.5-0.3-1.4-1.2-1.7-1.7c-0.3-0.5-2.2-3.5-2.3-3.8
	C154.5,35,152.4,29.7,152.4,29.7z M154.6,95.6c1.7-3.1,2.1-12.1,2-12.9c-0.1-0.8-0.9-3.4-0.4-3.9c0.4-0.5,2.4-3.2,2.4-5.4
	c0-2.3,0.6-4,1.7-5.3c1.2-1.4,0-4.9,0-4.9s0.7-1.7,0.4-2.7c-0.3-1-1.4-0.8-1.4-3.1c0-2.3,0.8-3.7,1-2.6c0.2,1.1,1.2,2.6,1.2,2.6
	s0.2-1.4,0-3.6c-0.2-2.3-1.9-1.8-2.2-2c-0.3-0.2-0.8-2.3-0.8-2.3l0-2.4c0,0-0.1-2.2,0-2.5c0.1-0.4,1.4-1.2,1.9-1
	c0.4,0.2,1.3,1.4,1.5,2c0,0,1.6,1.7,2.2,3c0.5,1.3,1.4,1.8,1.6,5.6c0.3,3.8,0.4,4.8,0.4,8.9c0,4.1-1,8.6-1,8.6s-0.5-5.4-0.8-4.5
	c-0.4,0.9-0.4,3.4-1.2,5c-0.7,1.5,0,4.1-3.5,13.6C156.2,95.1,154.6,95.6,154.6,95.6z"/>
<g>
</g>
<g>
</g>
<g>
</g>
<g>
</g>
<g>
</g>
<g>
</g>
</svg>
