<?xml version="1.0" encoding="utf-8"?>
<!-- Generator: Adobe Illustrator 19.1.1, SVG Export Plug-In . SVG Version: 6.00 Build 0)  -->
<svg version="1.1" id="Layer_1" xmlns="http://www.w3.org/2000/svg" xmlns:xlink="http://www.w3.org/1999/xlink" x="0px" y="0px"
	 viewBox="-366 272.6 238 16.4" style="enable-background:new -366 272.6 238 16.4;" xml:space="preserve">
<style type="text/css">
	.st0{fill:#FFFFFF;}
</style>
<g>
	<path class="st0" d="M-365.5,280.8L-365.5,280.8c0-4.2,3.1-8,7.8-8c4.6,0.1,7.7,3.8,7.7,8l0,0c0,4.2-3.1,7.9-7.8,7.9
		C-362.5,288.7-365.5,285-365.5,280.8z M-351.2,280.8L-351.2,280.8c0-3.8-2.8-7-6.6-7c-3.8,0-6.5,3.1-6.5,6.9l0,0
		c0,3.8,2.8,6.9,6.6,6.9C-354,287.7-351.2,284.6-351.2,280.8z"/>
	<path class="st0" d="M-346.2,282.1v-9h1.2v8.9c0,3.6,2,5.7,5.2,5.7c3.1,0,5.1-1.9,5.1-5.6v-9h1.1v8.8c0,4.4-2.6,6.8-6.3,6.8
		C-343.6,288.7-346.2,286.4-346.2,282.1z"/>
	<path class="st0" d="M-329,273.1h6.5c1.9,0,3.4,0.6,4.3,1.5c0.7,0.7,1.2,1.8,1.2,2.9l0,0c0,2.6-1.9,4-4.5,4.4l5.1,6.6h-1.6
		l-4.9-6.4h-5v6.4h-1.1V273.1z M-322.7,281.1c2.6,0,4.5-1.3,4.5-3.5l0,0c0-2.1-1.6-3.4-4.4-3.4h-5.2v6.9H-322.7z"/>
	<path class="st0" d="M-306,273.1h1.1v14.3h9v1.1H-306V273.1z"/>
	<path class="st0" d="M-292.5,273.1h1.1v15.4h-1.1V273.1z"/>
	<path class="st0" d="M-286.4,273.1h10.8v1.1h-9.7v6.3h8.7v1.1h-8.7v7h-1.1C-286.4,288.6-286.4,273.1-286.4,273.1z"/>
	<path class="st0" d="M-271.7,273.1h10.9v1.1h-9.8v6h8.8v1.1h-8.8v6.2h9.9v1.1h-11V273.1z"/>
	<path class="st0" d="M-251.6,280.8L-251.6,280.8c0-4.4,3.3-8,8-8c2.9,0,4.6,1,6.1,2.4l-2.2,2.5c-1.2-1.1-2.4-1.7-3.9-1.7
		c-2.6,0-4.5,2.2-4.5,4.8l0,0c0,2.6,1.8,4.8,4.5,4.8c1.8,0,2.8-0.7,4-1.8l2.2,2.2c-1.6,1.7-3.3,2.7-6.3,2.7
		C-248.2,288.7-251.6,285.3-251.6,280.8z"/>
	<path class="st0" d="M-235.7,280.8L-235.7,280.8c0-4.4,3.4-8,8.2-8c4.7,0,8.1,3.5,8.1,7.9l0,0c0,4.4-3.4,7.9-8.2,7.9
		S-235.7,285.2-235.7,280.8z M-222.9,280.8L-222.9,280.8c0-2.7-1.9-4.9-4.7-4.9c-2.7,0-4.6,2.2-4.6,4.8l0,0c0,2.6,1.9,4.8,4.7,4.8
		C-224.8,285.6-222.9,283.5-222.9,280.8z"/>
	<path class="st0" d="M-218.5,273.1h3.7l4,10.8l4-10.8h3.6l-6.1,15.5h-3L-218.5,273.1z"/>
	<path class="st0" d="M-200.6,273.1h11.6v3h-8.2v3.1h7.2v3h-7.2v3.2h8.3v3h-11.7L-200.6,273.1L-200.6,273.1z"/>
	<path class="st0" d="M-185.9,273.1h7c2,0,3.5,0.5,4.5,1.6c0.9,0.9,1.3,2.1,1.3,3.5l0,0c0,2.5-1.3,4-3.3,4.8l3.8,5.5h-4l-3.3-4.9
		h-2.7v4.9h-3.4L-185.9,273.1L-185.9,273.1z M-179.1,280.6c1.6,0,2.6-0.9,2.6-2.2l0,0c0-1.4-1-2.2-2.7-2.2h-3.4v4.4H-179.1z"/>
	<path class="st0" d="M-169.4,273.1h11.6v3h-8.2v3.1h7.2v3h-7.2v3.2h8.3v3h-11.7L-169.4,273.1L-169.4,273.1z"/>
	<path class="st0" d="M-154.7,273.1h6c4.8,0,8.2,3.3,8.2,7.6l0,0c0,4.3-3.3,7.7-8.2,7.7h-6V273.1z M-151.3,276.2v9.3h2.6
		c2.8,0,4.6-1.9,4.6-4.6l0,0c0-2.7-1.9-4.6-4.6-4.6h-2.6V276.2z"/>
</g>
<g>
	<path class="st0" d="M-137.9,278l0.3-0.4c0.5,0.5,1,0.7,1.7,0.7c0.7,0,1.1-0.4,1.1-0.8v0c0-0.5-0.2-0.7-1.3-0.9
		c-1.1-0.2-1.6-0.6-1.6-1.4v0c0-0.8,0.7-1.3,1.6-1.3c0.7,0,1.2,0.2,1.7,0.6l-0.3,0.4c-0.5-0.4-0.9-0.5-1.4-0.5c-0.6,0-1,0.4-1,0.8v0
		c0,0.5,0.3,0.7,1.3,1c1.1,0.2,1.6,0.6,1.6,1.4v0c0,0.8-0.7,1.4-1.7,1.4C-136.7,278.8-137.3,278.5-137.9,278z"/>
	<path class="st0" d="M-133.1,273.8h0.6l1.8,2.7l1.8-2.7h0.6v4.9h-0.6v-4l-1.8,2.6h0l-1.8-2.6v4h-0.5V273.8z"/>
</g>
</svg>
