<svg id="Layer_1" data-name="Layer 1" xmlns="http://www.w3.org/2000/svg" viewBox="0 0 200 200"><defs><style>.cls-1{fill:#b1b1b2;}.cls-2{fill:none;stroke:#b1b1b2;stroke-miterlimit:10;stroke-width:3.6px;}</style></defs><title>icon</title><rect class="cls-1" x="121.42" y="37.8" width="5.18" height="34.54" rx="2.42" ry="2.42" transform="translate(179.08 -68.95) rotate(90)"/><rect class="cls-1" x="85.01" y="49.82" width="4.31" height="28.71" rx="2.01" ry="2.01" transform="translate(151.34 -22.98) rotate(90)"/><rect class="cls-1" x="85.44" y="49.09" width="4.51" height="30.06" rx="2.1" ry="2.1" transform="translate(175.39 128.24) rotate(180)"/><rect class="cls-1" x="121.42" y="48.63" width="5.18" height="34.54" rx="2.42" ry="2.42" transform="translate(189.91 -58.11) rotate(90)"/><rect class="cls-1" x="121.42" y="59.47" width="5.18" height="34.54" rx="2.42" ry="2.42" transform="translate(47.27 200.75) rotate(-90)"/><rect class="cls-1" x="104.45" y="53.34" width="5.18" height="68.48" rx="2.59" ry="2.59" transform="translate(19.47 194.62) rotate(-90)"/><rect class="cls-1" x="104.45" y="64.17" width="5.18" height="68.48" rx="2.59" ry="2.59" transform="translate(8.63 205.45) rotate(-90)"/><rect class="cls-1" x="104.45" y="75.01" width="5.18" height="68.48" rx="2.59" ry="2.59" transform="translate(-2.21 216.29) rotate(-90)"/><rect class="cls-1" x="104.45" y="85.85" width="5.18" height="68.48" rx="2.59" ry="2.59" transform="translate(-13.04 227.13) rotate(-90)"/><rect class="cls-2" x="59.34" y="36.06" width="94.8" height="123.18" rx="24.69" ry="24.69"/><rect class="cls-1" x="81.06" y="31.67" width="51.97" height="11.95" rx="5.97" ry="5.97"/><rect class="cls-1" x="96.02" y="20.35" width="22.05" height="14.47" rx="7.23" ry="7.23"/></svg>