<svg id="Layer_1" data-name="Layer 1" xmlns="http://www.w3.org/2000/svg" viewBox="0 0 200 200"><defs><style>.cls-1{fill:#b1b1b2;stroke:#292c31;stroke-miterlimit:10;stroke-width:5.87px;}.cls-2{fill:#292c31;}</style></defs><title>icon</title><rect class="cls-1" x="27.77" y="80.06" width="115.21" height="65.88" rx="2.36" ry="2.36"/><rect class="cls-1" x="39.61" y="67.12" width="115.21" height="65.88" rx="2.36" ry="2.36"/><rect class="cls-1" x="55.24" y="52.82" width="115.21" height="65.88" rx="2.36" ry="2.36"/><path class="cls-2" d="M121.28,94.15a8.62,8.62,0,0,1-2.46,6.81A7.35,7.35,0,0,1,115,102.8v5.42h-4.32v-5.53a7.39,7.39,0,0,1-4.7-3.62,12.65,12.65,0,0,1-1.59-5.67l4.89-.35a7.25,7.25,0,0,0,1.54,4.27,2.62,2.62,0,0,0,2.11.95,3.17,3.17,0,0,0,2.67-1.65,4.09,4.09,0,0,0,.51-2.24,6.33,6.33,0,0,0-1.89-4.19q-1.54-1.43-4.57-4.3a18.65,18.65,0,0,1-3.4-4.11,10,10,0,0,1-1.33-5.05,9.42,9.42,0,0,1,1.24-4.78,6.83,6.83,0,0,1,4.51-3.4V63.3H115v5.23a7.13,7.13,0,0,1,3.41,1.73,8.5,8.5,0,0,1,2.65,5.81l-4.92.89A6.17,6.17,0,0,0,115,73.7a2.41,2.41,0,0,0-2-.81,2.33,2.33,0,0,0-2.13,1.24,4.79,4.79,0,0,0-.59,2.49,7.56,7.56,0,0,0,2,4.76,19.1,19.1,0,0,0,2.24,2.13,31.27,31.27,0,0,1,2.38,2.08,18.47,18.47,0,0,1,2.89,3.73A10.61,10.61,0,0,1,121.28,94.15Z"/></svg>