<svg id="Layer_1" data-name="Layer 1" xmlns="http://www.w3.org/2000/svg" viewBox="0 0 200 200"><defs><style>.cls-1{fill:#b1b1b2;}</style></defs><title>icon</title><path class="cls-1" d="M114.31,115.65q0.27,10.92-6.13,17a18.33,18.33,0,0,1-9.51,4.58v13.53H87.88v-13.8a18.44,18.44,0,0,1-11.73-9,31.56,31.56,0,0,1-4-14.16l12.2-.88q0.81,7.48,3.85,10.65a6.53,6.53,0,0,0,5.26,2.36,7.91,7.91,0,0,0,6.67-4.11,10.21,10.21,0,0,0,1.28-5.59q0-5.19-4.72-10.45Q92.87,102.17,85.32,95a46.54,46.54,0,0,1-8.49-10.25,25,25,0,0,1-3.31-12.61,23.51,23.51,0,0,1,3.1-11.93,17.05,17.05,0,0,1,11.26-8.49V38.69H98.67V51.74a17.8,17.8,0,0,1,8.5,4.31,21.2,21.2,0,0,1,6.61,14.49L101.5,72.77a15.4,15.4,0,0,0-3-8.16,6,6,0,0,0-5-2,5.82,5.82,0,0,0-5.32,3.1,12,12,0,0,0-1.48,6.2q0,5.8,5,11.86a47.64,47.64,0,0,0,5.6,5.32,78,78,0,0,1,5.93,5.19,46.08,46.08,0,0,1,7.21,9.3Q114.17,110.19,114.31,115.65Z"/><path class="cls-1" d="M160.83,115.65q0.27,10.92-6.13,17a18.33,18.33,0,0,1-9.51,4.58v13.53H134.4v-13.8a18.44,18.44,0,0,1-11.73-9,31.56,31.56,0,0,1-4-14.16l12.2-.88q0.81,7.48,3.85,10.65a6.53,6.53,0,0,0,5.26,2.36,7.91,7.91,0,0,0,6.67-4.11,10.21,10.21,0,0,0,1.28-5.59q0-5.19-4.72-10.45-3.84-3.57-11.39-10.72a46.54,46.54,0,0,1-8.49-10.25A25,25,0,0,1,120,72.17a23.51,23.51,0,0,1,3.1-11.93,17.05,17.05,0,0,1,11.26-8.49V38.69h10.78V51.74a17.8,17.8,0,0,1,8.5,4.31,21.2,21.2,0,0,1,6.61,14.49L148,72.77a15.4,15.4,0,0,0-3-8.16,6,6,0,0,0-5-2,5.82,5.82,0,0,0-5.32,3.1,12,12,0,0,0-1.48,6.2q0,5.8,5,11.86a47.64,47.64,0,0,0,5.6,5.32,78,78,0,0,1,5.93,5.19,46.08,46.08,0,0,1,7.21,9.3Q160.69,110.19,160.83,115.65Z"/><path class="cls-1" d="M64.47,115.65q0.27,10.92-6.13,17a18.33,18.33,0,0,1-9.51,4.58v13.53H38v-13.8a18.44,18.44,0,0,1-11.73-9,31.56,31.56,0,0,1-4-14.16l12.2-.88q0.81,7.48,3.85,10.65a6.53,6.53,0,0,0,5.26,2.36,7.91,7.91,0,0,0,6.67-4.11,10.21,10.21,0,0,0,1.28-5.59q0-5.19-4.72-10.45Q43,102.17,35.48,95A46.54,46.54,0,0,1,27,84.77a25,25,0,0,1-3.31-12.61,23.51,23.51,0,0,1,3.1-11.93A17.05,17.05,0,0,1,38,51.74V38.69H48.83V51.74a17.8,17.8,0,0,1,8.5,4.31,21.2,21.2,0,0,1,6.61,14.49L51.66,72.77a15.4,15.4,0,0,0-3-8.16,6,6,0,0,0-5-2,5.82,5.82,0,0,0-5.32,3.1,12,12,0,0,0-1.48,6.2q0,5.8,5,11.86a47.64,47.64,0,0,0,5.6,5.32,78,78,0,0,1,5.93,5.19,46.08,46.08,0,0,1,7.21,9.3Q64.33,110.19,64.47,115.65Z"/></svg>