<svg id="Layer_1" data-name="Layer 1" xmlns="http://www.w3.org/2000/svg" viewBox="0 0 238.46 17.87"><defs><style>.cls-1{fill:#fff;}</style></defs><title>MyLifeCovered_V1_White</title><path class="cls-1" d="M9.7,12.4L9.95,13q0.12-.34.25-0.64t0.3-.62L16.32,1.21A0.69,0.69,0,0,1,16.64.88,1.5,1.5,0,0,1,17.12.82h1.72V18h-2V5.38q0-.25,0-0.54t0-.59L11,15a0.93,0.93,0,0,1-.84.54H9.78A0.92,0.92,0,0,1,8.94,15l-6-10.79Q3,4.52,3,4.82C3,5,3,5.21,3,5.38V18h-2V0.82H2.66a1.51,1.51,0,0,1,.48.06,0.69,0.69,0,0,1,.32.34L9.41,11.8A4.42,4.42,0,0,1,9.7,12.4Z" transform="translate(-0.95 -0.34)"/><path class="cls-1" d="M32.05,11.17V18H29.73V11.17L23.43,0.82h2A0.73,0.73,0,0,1,26,1a1.48,1.48,0,0,1,.31.38L30.21,8a8.26,8.26,0,0,1,.4.79q0.16,0.37.29,0.73,0.13-.37.29-0.74A6.54,6.54,0,0,1,31.59,8l3.92-6.68A1.54,1.54,0,0,1,35.81,1,0.68,0.68,0,0,1,36.3.82h2.06Z" transform="translate(-0.95 -0.34)"/><path class="cls-1" d="M52.28,16.06h7.44v2H50V0.82h2.33V16.06Z" transform="translate(-0.95 -0.34)"/><path class="cls-1" d="M67.45,18H65.12V0.82h2.33V18Z" transform="translate(-0.95 -0.34)"/><path class="cls-1" d="M85.05,0.82v1.9H76.8v6h7.06v1.9H76.8V18H74.46V0.82h10.6Z" transform="translate(-0.95 -0.34)"/><path class="cls-1" d="M101,0.82v1.9H92.78V8.42h6.68v1.82H92.78v5.87H101V18H90.44V0.82H101Z" transform="translate(-0.95 -0.34)"/><path class="cls-1" d="M125.88,13.49a0.82,0.82,0,0,1,.29.05,0.79,0.79,0,0,1,.28.19L128,15.42a6.68,6.68,0,0,1-2.65,2.08,9.26,9.26,0,0,1-3.76.7,9,9,0,0,1-3.57-.68,7.73,7.73,0,0,1-2.68-1.87,8.25,8.25,0,0,1-1.69-2.83,10.46,10.46,0,0,1-.59-3.56,9.37,9.37,0,0,1,.67-3.59,8.38,8.38,0,0,1,1.88-2.83A8.47,8.47,0,0,1,118.56,1a10.06,10.06,0,0,1,3.71-.66,9.47,9.47,0,0,1,1.85.17,9.09,9.09,0,0,1,1.63.48,7.69,7.69,0,0,1,1.39.73,6.74,6.74,0,0,1,1.13.94L126.9,4.5a1.72,1.72,0,0,1-.31.31,0.81,0.81,0,0,1-.5.14,0.9,0.9,0,0,1-.41-0.1l-0.41-.23-0.47-.3a3.68,3.68,0,0,0-.61-0.3,5.09,5.09,0,0,0-.83-0.23,5.66,5.66,0,0,0-1.11-.1,5.08,5.08,0,0,0-2,.39,4.41,4.41,0,0,0-1.57,1.12,5.16,5.16,0,0,0-1,1.76,6.89,6.89,0,0,0-.37,2.32,7.2,7.2,0,0,0,.37,2.39,5.24,5.24,0,0,0,1,1.76,4.22,4.22,0,0,0,1.47,1.09,4.39,4.39,0,0,0,1.8.37,8.59,8.59,0,0,0,1-.05,4.14,4.14,0,0,0,.85-0.19,3.92,3.92,0,0,0,.74-0.34,4.93,4.93,0,0,0,.71-0.52,1.43,1.43,0,0,1,.31-0.2A0.82,0.82,0,0,1,125.88,13.49Z" transform="translate(-0.95 -0.34)"/><path class="cls-1" d="M149.55,9.26a9.39,9.39,0,0,1-.65,3.53,8.33,8.33,0,0,1-4.7,4.73,10.44,10.44,0,0,1-7.43,0A8.34,8.34,0,0,1,132,12.79a9.39,9.39,0,0,1-.65-3.53A9.4,9.4,0,0,1,132,5.74a8.39,8.39,0,0,1,1.85-2.83A8.55,8.55,0,0,1,136.76,1a9.78,9.78,0,0,1,3.72-.68A9.66,9.66,0,0,1,144.2,1a8.57,8.57,0,0,1,2.86,1.89,8.44,8.44,0,0,1,1.84,2.83A9.37,9.37,0,0,1,149.55,9.26Zm-4.15,0a7.57,7.57,0,0,0-.34-2.33,5,5,0,0,0-1-1.76,4.17,4.17,0,0,0-1.54-1.1,5.31,5.31,0,0,0-2.08-.38,5.39,5.39,0,0,0-2.09.38,4.15,4.15,0,0,0-1.55,1.1,4.94,4.94,0,0,0-1,1.76,7.56,7.56,0,0,0-.34,2.33,7.6,7.6,0,0,0,.34,2.35,4.94,4.94,0,0,0,1,1.76,4.1,4.1,0,0,0,1.55,1.1,5.46,5.46,0,0,0,2.09.38,5.38,5.38,0,0,0,2.08-.38,4.11,4.11,0,0,0,1.54-1.1,5,5,0,0,0,1-1.76A7.61,7.61,0,0,0,145.4,9.26Z" transform="translate(-0.95 -0.34)"/><path class="cls-1" d="M151.74,0.53H155a1.45,1.45,0,0,1,.86.24,1.31,1.31,0,0,1,.48.64l3.38,9.36q0.23,0.61.46,1.33t0.44,1.51q0.17-.79.39-1.51t0.44-1.33l3.36-9.36a1.39,1.39,0,0,1,1.32-.88h3.29l-7,17.48h-3.67Z" transform="translate(-0.95 -0.34)"/><path class="cls-1" d="M184.52,0.53V3.65h-7.18V7.73h5.5v3h-5.5v4.16h7.18V18H173.27V0.53h11.26Z" transform="translate(-0.95 -0.34)"/><path class="cls-1" d="M193.28,11.54V18h-4.06V0.53h5.69a11.68,11.68,0,0,1,3.23.39A6.08,6.08,0,0,1,200.33,2a4.11,4.11,0,0,1,1.23,1.64,5.45,5.45,0,0,1,.38,2.06,5.55,5.55,0,0,1-.23,1.61,4.87,4.87,0,0,1-.68,1.4,5.24,5.24,0,0,1-1.1,1.15,5.88,5.88,0,0,1-1.51.83,3.79,3.79,0,0,1,.76.5,3,3,0,0,1,.62.73L203.53,18h-3.67a1.56,1.56,0,0,1-1.46-.77l-2.9-5.08a1.23,1.23,0,0,0-.45-0.48,1.51,1.51,0,0,0-.73-0.14h-1Zm0-2.8h1.63a4.17,4.17,0,0,0,1.41-.21,2.55,2.55,0,0,0,1-.58,2.22,2.22,0,0,0,.54-0.87A3.35,3.35,0,0,0,198,6a2.25,2.25,0,0,0-.75-1.8,3.49,3.49,0,0,0-2.32-.65h-1.63V8.75Z" transform="translate(-0.95 -0.34)"/><path class="cls-1" d="M218.84,0.53V3.65h-7.18V7.73h5.5v3h-5.5v4.16h7.18V18H207.58V0.53h11.26Z" transform="translate(-0.95 -0.34)"/><path class="cls-1" d="M239.41,9.26a9.17,9.17,0,0,1-.65,3.5,8.18,8.18,0,0,1-1.84,2.77A8.36,8.36,0,0,1,234,17.36a10.13,10.13,0,0,1-3.71.65h-6.79V0.53h6.79a10.06,10.06,0,0,1,3.71.66A8.48,8.48,0,0,1,236.91,3a8.12,8.12,0,0,1,1.84,2.77A9.13,9.13,0,0,1,239.41,9.26Zm-4.15,0a7.61,7.61,0,0,0-.34-2.34,5,5,0,0,0-1-1.77A4.2,4.2,0,0,0,232.41,4a5.24,5.24,0,0,0-2.08-.39h-2.71V14.89h2.71a5.24,5.24,0,0,0,2.08-.39A4.2,4.2,0,0,0,234,13.39a5,5,0,0,0,1-1.77A7.66,7.66,0,0,0,235.26,9.26Z" transform="translate(-0.95 -0.34)"/></svg>