<?xml version="1.0" encoding="utf-8"?>
<!-- Generator: Adobe Illustrator 19.2.1, SVG Export Plug-In . SVG Version: 6.00 Build 0)  -->
<!DOCTYPE svg PUBLIC "-//W3C//DTD SVG 1.1//EN" "http://www.w3.org/Graphics/SVG/1.1/DTD/svg11.dtd">
<svg version="1.1" id="Layer_1" xmlns="http://www.w3.org/2000/svg" xmlns:xlink="http://www.w3.org/1999/xlink" x="0px" y="0px"
	 viewBox="0 0 324.6 324.6" style="enable-background:new 0 0 324.6 324.6;" xml:space="preserve">
<style type="text/css">
	.st0{fill:#EF4343;}
</style>
<path class="st0" d="M131.5,106c0,0-7.2-0.2-11.1,1.1c-3.9,1.3-5.5,1.9-5.5,1.9s5.8-3.1,7.5-3.4c-1.2,0.2-4.7,0.7-4.7,0.7
	s4.7-3.2,9.5-3.3c0.7,0,1.4,0,2,0c0,0,0,0,0,0c-1-0.5-6.6-1.4-8.8-0.8c-2.2,0.6-5.3,2.8-6.7,4.3c-1.4,1.5-1.1,2.1-2.3,3.6
	c-1.2,1.5-0.4,2-0.4,2s0.1,0.4,1.9-3.1c1.8-3.5,6.5-4.8,6.5-4.8s-1.8,1-3.1,2c-1.3,1-2.1,2.5-3.1,3.9c-1,1.3-1.6,2.3-1.6,2.3
	s3.5-0.8,4.6-1.2c1.1-0.4,1.9-0.2,1.5,0c-0.4,0.2-2.4,1-3.4,1.1c-1,0.1-3.4,0.5-4.2,0.9c-0.8,0.4-1.3,0.4-0.9,2.3c0.4,1.9,9,2.8,7,2
	c-2.3-0.8-6.1-2.1-6.1-2.1s8.5,0,9.7-0.1c1.1-0.1-8.9-1.6-8.9-1.6s4.8-0.7,9.5-0.6c4.7,0.2,4.7,0.2,4.7,0.2s-1.6-0.9-4.3-1.1
	c-2.6-0.2-3.4-0.3-3.4-0.3s5.3-0.6,8.2-0.3c2.9,0.2,7.8,0.2,7.8,0.2s-7.3-1-10.4-1.1c-3.1-0.2-4.4-0.3-4.4-0.3s6.1-0.1,5.3-0.8
	s-7.4,0.5-7.4,0.5s4.4-2.9,8.9-3.4C130.1,106.1,131.5,106,131.5,106z"/>
<path class="st0" d="M97.9,243.1c1.6,1.1,7.4-0.1,9.6-1c1.6-0.6,1.9-3,2.2-4.2c-1.5-1.3-4.2-6.1-6.5-9.1c-1.9-2.5-5.1-8.6-6.4-11.1
	c-1.6-1.4-2.1-2.6-2.9-4.3c-0.6-1.3-1.4-2.9-2.9-5.2c-3.1-4.6-10.3-8.8-11.8-9.7c-0.9,0.8-4.1,3.4-10.9,5.7c-4.7,1.6-8.3,1-10.6,0.2
	c0.8,1.1,3.3,3.9,11.1,11.8c11.6,11.6,11.4,10.1,13.4,11.8c2.1,1.7,6.2,9.5,6.2,9.5s0,0-0.7,0.4c-0.7,0.4,0.2,2.3-0.7,3
	c-0.9,0.8-1.1,2.5-1.8,3.5c-0.8,1-4.9,2.5-9.9,4.8c-5,2.3-11.2,3.5-12.9,5.3c-1.7,1.8-0.3,7.3,4.4,9.1c4.8,1.8,14.5-0.7,25.2-2.4
	c10.6-1.7,12.8,0.5,18.8-0.1c6-0.7,9.9-5.2,10.1-7.8c0.2-2.6-1.5-2.7-2.1-4.4c-0.5-1.7-1.3-3.3-3.8-8c-2.5-4.7-3.4-1.9-4.6-2.7
	c0.1,0.6,0.4,1.2,1.1,0.8c1.3-0.9,2.3,1.4,2.3,1.4s-0.9,1-2.4,2.9c-1.6,1.9-0.8,5.9-6.1,6.3c-5.3,0.4-9.4-5.7-11.8-5.8
	c-2.3-0.1-1.6,1.3-3.4,0c-1.7-1.3-0.9-3.7-0.9-3.7C88.6,239,91,238.5,97.9,243.1z M79.1,262.9c-0.8,0.8-5.5,1.7-11.2,0
	c-5.6-1.7-5.3-8-2.7-8.8c2.6-0.8,12.9-5,12.9-5s-1.5,1-2.3,2.4s2.3,1.5,3.7,1.3c1.4-0.2,1.3,2.1,2.4,3.8c1.1,1.7,3.5,4.1,3.5,4.1
	C82,259.8,79.8,262.1,79.1,262.9z M95.5,255.3c4.6-0.3,6.6,4.1,5.4,3.6c-1.2-0.5-5.8-1-9.8-1.7c-3.9-0.8-4.8-4.3-4.8-4.3
	C88.9,255.4,91,255.6,95.5,255.3z"/>
<path class="st0" d="M162.9,302.9c3.3-5.2,1.8-18.3,2-21.6c0.1-3.3-1.6-7.9-1.6-7.9s0.2-2.1-1.5-5.1c-1.7-3-5.6-8.1-6.4-8.7
	c-0.8-0.5-2.2,0-2.2,0s-0.3-1.2-1.3-4.1c-1-2.9-1.7-10.8-1.8-13.1c-0.1-1.1,0.1-3.1,0.2-4.8c-0.3-1.8-0.3-3.7-0.4-5.5
	c0-1.9,0-3.6-0.4-5.3c-0.7-3.4-3.6-5.6-4.9-6.4c0,1.6-0.2,5.1-1.7,7c-1.8,2.4-10.1,7.8-16.8,10.5c-3.5,1.4-6.6,1.2-8.9,0.6
	c1,1.4,3.1,4.5,6,9.3c4,6.7,9,10.7,11.8,12.9c2.8,2.2,4.3,7.6,3.6,7.5c-0.8-0.1-2.1-0.7-1.5,0.4c0.5,1.1,0.3,2.8,0.2,6
	c-0.1,3.1,0.8,7.2,0.2,10c-0.5,2.8-2.2,6.8-2.2,6.8c-1.7,2.9-3.7,8.1-3.1,13.4c0.5,5.3,9.9,5.2,14.3,5.4
	C150.9,310.5,159.6,308.1,162.9,302.9z M164.2,282.8c0.7,0.8-0.1,2.3-1.4,3.3c-1.3,1-3.3,1.2-5.5,0c0,0,2.5,0.1,3.6-1.1
	S163.5,282.1,164.2,282.8z M145.6,268.3c4.7-0.5,5.7-2.2,8.1-1.8c2.4,0.3,2.4,0.2,2-1.2c-0.4-1.3-2.1-4.6-2.1-4.6s0.2-1.2,1.1,0
	c0.9,1.2,4.7,7.2,3.6,8.7c-1.1,1.5-3.3,0-3.3,0s-0.9-2.9-2.7-2.1c-1.8,0.9-6.6,2.7-9.8,2.3c-3.2-0.4-3,0.4-3.1-1.3
	C139.5,268.3,141,268.8,145.6,268.3z M138.8,307.5c-5.3-1.8-6.5-2.9-5.3-9.9c1.2-6.9,3.9-6.2,3.9-6.2s-0.8,2.5,0.9,3.3
	c1.6,0.8,3.1-0.4,7.2,0.5c4,1,5.6,0.8,6.6,0c1-0.8,1.3-3.9,5.1-4.6c3.8-0.7,7,1.4,7.2,2.6c0.1,1.2-0.7,9.1-6.8,12.3
	C151.3,308.7,144.1,309.4,138.8,307.5z"/>
<path class="st0" d="M101.1,200.6c3-7.4,13.8-12.8,22-13.5c1.3-0.1,2-0.6,2.8-1.1c-11.4-1.5-19.3-12.3-21.1-14.9
	c-1.4-0.2-4.4-0.7-9.4-1.7c-7.8-1.6-18.8,0.1-22.1,0.3c-3.4,0.2-7.2-1-13.2,0.3c-6.1,1.3-12.9,7-12.5,18c0.3,7.8,5.1,12.6,7.9,14.8
	l0.1-0.1c0,0,4.9,3.5,12.5,0.9c7.7-2.6,10.8-5.7,10.8-5.8l0.2-0.2l0.3,0.2c0,0,0.1,0.1,0.2,0.1l0,0c0,0-0.2-2.5-2.2-7.6
	c-2-5.1-2-5.1-2-5.1s5.2,9.8,5.5,11.8c0.3,1.9,1.7,2,1.6,0.9c-0.1-1.1-1-5.9-1.6-7.9c-0.6-1.9,2.6,4.7,2.9,7.2
	c0.3,2.4,0.9,1.4,1.5,2.3c0.6,0.9,1,1.6,0.8-0.8c-0.2-2.3,0-1.4,0.6,0.4c0.6,1.8,1.5,4.2-0.3,2.4c-1.8-1.8-2.5-0.9-1.8-0.5
	c0,0,0,0,0,0c2.5,1.8,5.4,4.2,7.1,6.8c1.6,2.3,2.3,4,3,5.3c0.7,1.5,1.2,2.5,2.4,3.7l6.5,0.7c-0.3-1.4-0.9-2.8-1.5-4.2
	C100.5,209.6,99,205.8,101.1,200.6z M77.2,175.4c-1.9-3.6-6.1-5.1-5.9-5.1c3.3,0.8,3.7,0.6,6,3.1c2.3,2.5,2.8,9.4,2.8,9.4
	S79.1,179,77.2,175.4z"/>
<path class="st0" d="M39.7,144.6c5,2.3,15.4,0.8,24.1-0.8c8.7-1.5,14.2-5.5,14.2-5.5s0.2,0.1,1.3-5.9c1-6,3.6-12.5,7.5-20.9
	c2.8-6.1,4.2-8.8,4.8-9.9l-9,1.3l-0.4-4.1c0,0-0.5-0.8,2.7-0.3c3.3,0.4,4-0.3,4.9-2.3c0.9-2,0.1-6-1.8-5c-2,1-1.2,2.6-2,1.8
	c-0.8-0.8-5.7-3.7-8.7-4.9c-2.9-1.2-7-1.2-11.9,0.1c-4.9,1.3-8.7,6.8-8.7,6.8s-5,6.8-9.8,13.1c-4.8,6.3-7.2,11.8-10.8,19.5
	c-3.7,7.7-4.4,5.3-4.1,9.3C32.2,141,34.7,142.3,39.7,144.6z M79.3,108c0,0-0.4,1.9,0,4.6c0.4,2.7,0.8,4.1,0.8,4.1s0.4-2.3,1-4.3
	c0.7-2,2.6-5.5,3.7-6c1-0.5,1.5-0.5,1.5-0.5s-3.2,2.1-4.4,6.9c-1.2,4.8-1,8.3-0.8,8.4c0.2,0.2,0.5-5.2,2.4-7.7
	c1.8-2.5,2.8-3.5,2.8-3.5s-3.2,5.2-3.6,8.3c-0.4,3.1-1.3,4.1-1.5,4.9c-0.2,0.8-0.3,0.4-1.1-3.6C79.4,115.7,77.7,111,79.3,108z
	 M66,107.9c1.2-2.4,4-5.1,5.3-6.8c0.6-0.8,2.3,0.8,2.3,0.8l4.4,6.5l-0.8,1.2c0,0.2-0.1,0.5-0.1,0.9c0,0.7,0.7,3.6,1.3,5.2
	c0.6,1.6,1,4,1,4v0.2c-1.2-4.5-2.3-4.6-2.7-7c-0.2-1.4-0.1-2.4,0-3c-0.4,0.1-1.2,0.3-1.6,0.8c-0.4,0.4-0.6,0.6-0.8,0.7
	c0.5,0.4,2,3.4,2,3.4s-2.1-2.6-2.6-3.2c-0.1,0-0.2,0.1-0.4,0.1c-0.8,0.3-0.8,0.9-0.7,1.3c0.6,0.3,1.6,1.2,3.4,3.2
	c3.6,4.1,5,9.4,4.9,9c-0.1-0.4-3-5-4.6-7.2c-1.7-2.2-4.4-4.8-4.4-4.8c-0.7,0-1.8,0-2.9,0.3c-1.3,0.3-1.3,0.6-1.4,0.8
	c1.7,1.1,5.5,5.7,7.6,8.9c2.8,4.3,4.3,6.6,4.3,6.6v0.6c0,0-3.5-4.3-6.6-9.4c-3.1-5-6.2-6.1-6.3-6.2c-1.3,0.6-4.3,2.6-4.3,2.6
	s0.3-0.9,0.9-2.6C63.6,113.1,64.8,110.3,66,107.9z M54.7,125.8c1.1-2.2,2.3-4.8,4.3-6.7c2-1.8,3.7-6,3.7-6c-0.9,2.8-0.3,2.5-0.9,3.8
	c-0.6,1.3-1.9,2.7-3.8,4.9c-1.8,2.2-1.9,4-3.2,5.8c-1.3,1.8-4.8,4.7-4.6,4.5C50.5,131.9,53.6,128,54.7,125.8z M61.6,142.3
	c4.6-1.8,3.7-3.4,6.6-4.8c3.7-1.7,6.4,1.9,8.1-3.2c0.9-2.7-1.2-5.5-5-4c-3.8,1.5-3.4-2.5-9.8,4.7c0.5-1,2-4.1,3.7-5.3
	s4.9,0.7,8.8-2.6c1.2-1.1,1.7-0.1,2.5,0.7c0.8,0.8,2.5,4,2.5,4s-0.8,3.6-1.1,5.3c-1.2,0.8-9.2,8.1-30.7,7.3
	C47.2,144.4,57,144.1,61.6,142.3z"/>
<path class="st0" d="M66.4,113.9l0.2,0.1l0,0l0,0c0.3-0.6,0.7-1,2-1.3c1.2-0.2,2.3-0.3,3-0.3c0.1-0.7,0.6-1.2,1.3-1.5
	c0.1,0,0.3-0.1,0.4-0.1l0.3-0.1l0.1-0.1c0.1-0.1,0.2-0.2,0.5-0.4l0.1-0.1c0.6-0.6,1.4-0.9,2-1l0.1,0l0.4-0.6l-4-6
	c-0.3-0.3-0.8-0.6-1-0.7c-0.4,0.5-0.8,1-1.3,1.5c-1.3,1.5-3,3.4-3.8,5c-1.1,2.2-2.3,4.9-2.9,6.7c0,0.1-0.1,0.2-0.1,0.3
	c0.8-0.5,1.7-1,2.3-1.3L66.4,113.9z"/>
<path class="st0" d="M37.1,110l0,0.2c0,0.3,0,0.6,0,0.9c0,0.2,0,0.3,0,0.5c0,0.1,0,0.3,0.1,0.4c0,0.3,0.1,0.6,0.1,0.9
	c0,0.3,0.1,0.6,0.2,0.8c0.1,0.3,0.1,0.5,0.2,0.8c0.1,0.3,0.2,0.5,0.2,0.8c0.1,0.2,0.2,0.5,0.2,0.7c0.1,0.2,0.2,0.5,0.3,0.7
	c0.2,0.4,0.4,0.9,0.6,1.2c0.1,0.2,0.2,0.4,0.4,0.7c1.9-3.8,3.9-7.3,6.8-11c3.8-5.1,7.9-10.5,9.2-12.4c-0.1,0-0.3-0.1-0.4-0.1
	c-0.2-0.1-0.5-0.1-0.7-0.1c-0.3,0-0.5-0.1-0.8-0.1c-0.3,0-0.5,0-0.8-0.1c-0.3,0-0.6,0-0.9,0c-0.1,0-0.3,0-0.4,0c-0.1,0-0.3,0-0.4,0
	c-0.3,0-0.6,0-0.9,0.1c-0.3,0-0.6,0.1-0.9,0.2c-0.3,0.1-0.6,0.1-0.9,0.2c-0.6,0.2-1.2,0.3-1.8,0.6c-0.6,0.2-1.2,0.6-1.8,0.9
	c-0.3,0.2-0.6,0.4-0.9,0.5l-0.4,0.3l-0.4,0.3c-1.1,0.8-2.1,1.9-2.9,3c-0.8,1.1-1.4,2.4-1.9,3.7c-0.1,0.3-0.2,0.6-0.3,1
	c-0.1,0.3-0.1,0.7-0.2,1l-0.1,0.5c0,0.2,0,0.3-0.1,0.5c0,0.3-0.1,0.6-0.1,0.9c0,0.3,0,0.7-0.1,1c0,0.2,0,0.3,0,0.5L37.1,110
	L37.1,110L37.1,110L37.1,110z"/>
<path class="st0" d="M55.9,94.5c0.3-0.4,4.1-5.8,9.2-7.2c0.8-0.2,1.6-0.4,2.4-0.5c-0.1-0.1-0.4-0.2-0.7-0.5c-0.3-0.2-0.6-0.4-1-0.6
	c-0.4-0.2-0.8-0.5-1.4-0.7c-0.5-0.3-1.1-0.5-1.7-0.8c-0.6-0.3-1.3-0.5-2.1-0.8c-0.2-0.1-0.4-0.1-0.6-0.2c-0.2-0.1-0.4-0.1-0.6-0.2
	c-0.4-0.1-0.8-0.2-1.3-0.3c-0.4-0.1-0.9-0.2-1.4-0.3c-0.5-0.1-0.9-0.2-1.4-0.2c-0.5-0.1-1-0.1-1.5-0.2c-0.5,0-1,0-1.6,0
	c-0.3,0-0.6,0-0.8,0c-0.3,0-0.5,0-0.8,0c-0.5,0-1.1,0.1-1.7,0.1c-2.2,0.2-4.5,0.8-6.8,1.7c-2.3,0.9-4.5,2.1-6.5,3.7
	c-2,1.5-3.9,3.4-5.4,5.5c-0.8,1-1.5,2.1-2.1,3.3c-0.3,0.6-0.6,1.1-0.9,1.7c-0.2,0.6-0.5,1.2-0.7,1.8c-0.9,2.4-1.4,4.8-1.7,7.2
	c-0.1,0.6-0.1,1.2-0.1,1.8c0,0.3,0,0.6,0,0.9l0,0.2l0,0.1c0,0,0,0,0,0l0,0.1l0,0.4c0,0.3,0,0.6,0,0.9c0,0.3,0,0.6,0.1,0.9
	c0,0.6,0.1,1.1,0.2,1.7c0.3,2.2,0.8,4.2,1.4,6.1c0.6,1.8,1.4,3.4,2.2,4.8c0.8,1.4,1.6,2.5,2.3,3.4c0.2,0.2,0.3,0.4,0.5,0.6
	c0.2,0.2,0.3,0.4,0.5,0.5c0.3,0.3,0.5,0.6,0.7,0.9c0.4,0.4,0.6,0.7,0.6,0.7c0.5-0.9,1.2-2,1.9-3.6c0.4-0.9,0.9-1.8,1.3-2.6
	c0.9-1.8,1.7-3.5,2.5-5.1c-0.3-0.3-0.5-0.6-0.8-1c-0.3-0.4-0.5-0.8-0.8-1.2c-0.1-0.2-0.3-0.4-0.4-0.7c-0.1-0.2-0.2-0.5-0.3-0.8
	c-0.1-0.3-0.2-0.5-0.3-0.8c-0.1-0.3-0.2-0.6-0.3-0.9c-0.1-0.3-0.2-0.6-0.3-0.9c-0.1-0.3-0.1-0.6-0.2-1c-0.2-0.6-0.2-1.3-0.2-2l0-0.3
	l0-0.1l0,0c0,0,0,0,0-0.1l0,0l0-0.1c0-0.2,0-0.3,0-0.5c0-0.3,0-0.7,0.1-1c0.1-0.4,0.1-0.7,0.2-1.1c0-0.2,0.1-0.4,0.1-0.6l0.1-0.5
	c0.1-0.4,0.2-0.7,0.3-1.1c0.1-0.3,0.3-0.7,0.4-1.1c0.6-1.4,1.3-2.7,2.3-3.9c1-1.2,2-2.3,3.3-3.1l0.5-0.3l0.5-0.3
	c0.3-0.2,0.6-0.4,1-0.5c0.7-0.3,1.3-0.6,2-0.8c0.7-0.3,1.3-0.4,2-0.6c0.3-0.1,0.7-0.1,1-0.2c0.3,0,0.7-0.1,1-0.1c0.3,0,0.6,0,1,0
	c0.2,0,0.3,0,0.5,0c0.2,0,0.3,0,0.5,0c0.3,0,0.6,0,0.9,0.1c0.3,0,0.6,0.1,0.9,0.1c0.3,0,0.5,0.1,0.8,0.2c0.3,0.1,0.5,0.1,0.8,0.2
	c0.2,0.1,0.4,0.1,0.6,0.2C55.8,94.6,55.9,94.5,55.9,94.5z"/>
<path class="st0" d="M83,99.1l0.3,2.7l0.9-0.1c-0.2-0.9-0.4-1.7-0.7-2.6c-0.1,0-0.2,0-0.3,0C83.1,99.1,83,99.1,83,99.1z"/>
<path class="st0" d="M37.1,109.9L37.1,109.9C37.1,109.9,37.1,109.9,37.1,109.9L37.1,109.9z"/>
<path class="st0" d="M33.3,130.9C33.3,130.9,33.3,130.9,33.3,130.9C33.3,130.9,33.2,130.9,33.3,130.9L33.3,130.9z"/>
<path class="st0" d="M67.5,86.8L67.5,86.8C67.5,86.8,67.5,86.8,67.5,86.8C67.5,86.8,67.5,86.8,67.5,86.8z"/>
<path class="st0" d="M32.4,130.4c-0.1-0.1-0.3-0.2-0.4-0.3c-0.1-0.1-0.3-0.3-0.5-0.4c-0.2-0.2-0.3-0.3-0.5-0.5
	c-0.2-0.2-0.4-0.4-0.6-0.6c-0.8-0.8-1.7-1.9-2.7-3.3c-0.9-1.4-1.9-3-2.6-4.9c-0.2-0.5-0.4-1-0.6-1.5c-0.2-0.5-0.3-1-0.5-1.5
	c-0.3-1.1-0.6-2.2-0.7-3.3c-0.1-0.6-0.2-1.2-0.2-1.8c0-0.3-0.1-0.6-0.1-0.9c0-0.3,0-0.6,0-0.9l0-0.5l0-0.1l0-0.1l0-0.2
	c0-0.3,0-0.6,0-0.9c0-0.6,0.1-1.3,0.1-1.9c0.3-2.5,0.9-5.1,1.9-7.6c0.2-0.6,0.5-1.2,0.8-1.8c0.3-0.6,0.6-1.2,1-1.8
	c0.7-1.2,1.4-2.3,2.3-3.4c1.7-2.1,3.6-4,5.8-5.6c2.2-1.6,4.5-2.8,6.9-3.7c2.4-0.8,4.8-1.4,7.1-1.5c0.6,0,1.1-0.1,1.7-0.1
	c0.3,0,0.6,0,0.8,0c0.3,0,0.6,0,0.8,0c0.5,0,1.1,0.1,1.6,0.1c0.5,0.1,1,0.1,1.5,0.2c0.5,0.1,1,0.2,1.5,0.3c0.5,0.1,0.9,0.2,1.4,0.3
	c0.4,0.1,0.9,0.3,1.3,0.4c0.2,0.1,0.4,0.1,0.6,0.2c0.2,0.1,0.4,0.2,0.6,0.2c0.8,0.3,1.5,0.6,2.1,0.9c0.6,0.3,1.2,0.6,1.7,0.9
	c0.5,0.3,1,0.6,1.3,0.8c0.4,0.3,0.7,0.5,0.9,0.7c0.5,0.4,0.8,0.5,0.8,0.5l-0.1,0.1c1.6-0.3,3.1-0.5,4.6-0.5c1.9,0,3.7,0.3,5.1,0.8
	c-2.1-2.7-4.7-5.1-7.5-7c-5.4-3.5-11.9-5.6-18.9-5.6c-19.2,0-34.8,15.6-34.8,34.8c0,11.8,5.9,22.3,15,28.6c0-0.2-0.1-0.5-0.1-0.8
	c-0.2-2.4,0-2.8,1-4.2c0.3-0.4,0.7-1,1.2-1.9l-0.1,0.1C33.2,131,32.9,130.8,32.4,130.4z"/>
<path class="st0" d="M35.1,77c-1.3,0.3-2.5,0.7-3.8,1.1c-11.6,4.7-20,17-20,31.4c0,15,9.1,27.8,21.5,32c-0.7-0.7-1.2-1.5-1.5-2.5
	c-9.7-6.4-16.2-17.3-16.2-29.8c0-14.6,8.9-27.2,21.5-32.7c-0.1,0-0.3,0.1-0.4,0.1C35.9,76.7,35.5,76.8,35.1,77z"/>
<path class="st0" d="M10.5,109.5c0-12.6,6.2-23.6,15.4-29.6C14.7,84.9,6.8,96.4,6.8,109.8c0,14.6,9.4,27,22.3,31
	C18.1,135.5,10.5,123.5,10.5,109.5z"/>
<path class="st0" d="M181.3,95.1c0-36.3,15.2-66.8,40.2-78.7c-3.3,0-8.1,1.6-11.2,2.4c-24.8,6.8-43.5,37.9-43.8,75.4l-20.7,1.3
	l-1.3,0c0,0,1.3,2.4,2.8,4c1.5,1.5,2.4,1.7,3.1,1.8c0.5,0.1,1,0.2,1.6,0.6l0.1,0.1c0,0.1,0.1,0.1,0.1,0.2c0.2,0.2,0.4,0.4,0.5,0.8
	c0,0,0,0,0.1,0c0.4-0.1,0.5-0.3,0.7-0.1l13-0.5v-4.7c0.9,41.1,24.1,74.1,52.7,74.9C197.3,161.7,181.3,131.1,181.3,95.1z"/>
<path class="st0" d="M183.1,94.2c0,36.6,15.7,68.4,38.3,78.3c0.2,0,0.3,0,0.5,0c1.5,0.7,20.1,5,22.1,5.4c-25.7-10-45.6-42.9-45.6-84
	c0-38,19.8-74.7,43.8-82.5c-2.1,0.4-15.7,4.1-17.7,4.9C200.8,25.1,183.1,56.6,183.1,94.2z"/>
<path class="st0" d="M200.1,93c0,42.4,20.8,77.9,48.2,85.4c2.3,0.7,18,1.5,27.7-2.1c12.3-5.4,23-16.5,30.5-31.2
	c7.2-14.7,11.4-33.3,11.4-53.4c0-8-0.7-15.8-1.9-23.1c-0.1-0.5-0.2-1-0.3-1.5c-0.2-0.7-0.3-1.4-0.5-2.2c-0.5-3.7-2.2-9.9-5.6-19.6
	c-9.5-24.3-29-37-48.1-37.4C221.5,7.3,200.1,60,200.1,93z M233.6,42.2c1.3-1.6,2.7-3.3,4.2-4.8c1.5-1.6,3.2-3,5-4.4
	c1.8-1.4,3.8-2.5,5.9-3.6c2.1-1,4.4-1.8,6.8-2.4c0.6-0.1,1.2-0.2,1.8-0.4c0.6-0.1,1.2-0.2,1.9-0.2c0.6-0.1,1.2-0.1,1.8-0.1l0.9,0
	c0,0,0.1,0,0.2,0l0.1,0l0.2,0l0.5,0l0.9,0c0.3,0,0.6,0,0.9,0.1c0.6,0.1,1.3,0.1,1.9,0.2c0.6,0.1,1.2,0.2,1.9,0.3
	c0.3,0.1,0.6,0.1,0.9,0.2l0.9,0.2c2.5,0.7,4.9,1.7,7.2,2.9c2.3,1.3,4.4,2.8,6.5,4.5c4.1,3.4,7.5,7.5,10.5,12.1
	c1.5,2.3,2.8,4.7,4,7.1c0.6,1.2,1.2,2.5,1.7,3.7c0.6,1.3,1,2.5,1.5,3.8c1.9,5.2,3.3,10.5,4.2,16c0.2,1.4,0.5,2.7,0.6,4.1l0.3,2.1
	l0.2,2.1c0.1,1.4,0.2,2.8,0.3,4.2c0.1,1.4,0.1,2.7,0.1,4.2c0,5.6-0.4,11.2-1.2,16.7c-0.5,2.7-1,5.5-1.7,8.2c-0.6,2.7-1.5,5.4-2.4,8
	c-0.5,1.3-0.9,2.6-1.5,3.9c-0.5,1.3-1.1,2.5-1.7,3.8c-1.2,2.5-2.5,4.9-4,7.2c-1.5,2.3-3,4.5-4.8,6.6c-0.4,0.5-0.9,1-1.3,1.5
	c-0.5,0.5-0.9,1-1.4,1.5c-0.5,0.5-1,1-1.4,1.4c-0.5,0.4-1,0.9-1.5,1.3c-2.1,1.7-4.3,3.3-6.6,4.6c-2.3,1.3-4.8,2.3-7.4,3l-1,0.3
	c-0.3,0.1-0.6,0.2-1,0.2c-0.6,0.1-1.3,0.2-1.9,0.4c-0.7,0.1-1.3,0.1-2,0.2c-0.2,0-0.3,0-0.5,0l-0.5,0l-0.9,0l-0.5,0l-0.2,0l-0.1,0
	c0,0-0.2,0-0.2,0l-1,0c-0.6,0-1.3,0-1.9-0.1c-0.6-0.1-1.3-0.2-1.9-0.2c-0.6-0.1-1.2-0.3-1.9-0.4c-2.4-0.6-4.8-1.4-7-2.5
	c-2.2-1.1-4.2-2.3-6-3.7c-1.8-1.4-3.6-2.9-5.1-4.5c-1.6-1.6-2.9-3.3-4.2-4.9c-5.1-6.8-8.2-13.9-10.3-20.3c-2.1-6.4-3.2-12.2-3.8-17
	c-0.6-4.8-0.8-8.6-0.9-11.2c0-1.3,0-2.3,0-2.9c0-0.7,0-1,0-1v0c0,0,0-0.3,0-1c0-0.7,0-1.7,0.1-2.9c0.1-2.6,0.4-6.4,1.1-11.1
	c0.1-0.6,0.2-1.2,0.3-1.8c0.1-0.6,0.2-1.3,0.4-1.9c0.2-1.3,0.6-2.7,0.9-4.1c0.7-2.8,1.5-5.9,2.6-9c1.1-3.2,2.4-6.5,4.2-9.9
	C229,48.9,231.1,45.5,233.6,42.2z"/>
<path class="st0" d="M238.8,94.5c0,0.7,0.1,1.5,0.2,2.5c0,0.5,0.1,1,0.2,1.6c0.1,0.6,0.2,1.2,0.3,1.8c0.2,1.3,0.5,2.6,0.9,4.1
	c0.4,1.5,1,3,1.6,4.7c1.4,3.2,3.3,6.8,6.1,9.9c1.4,1.6,3,3,4.8,4.3c0.9,0.6,1.9,1.1,2.9,1.6c1,0.4,2.1,0.8,3.2,1
	c1.1,0.2,2.2,0.3,3.3,0.2l0.5,0l0.2,0c0.1,0,0.1,0,0.2,0c0.3,0,0.5-0.1,0.8-0.1c0.6-0.1,1.1-0.2,1.7-0.4c1.1-0.3,2.2-0.8,3.3-1.4
	c1.1-0.6,2.1-1.3,3-2.1c1.9-1.6,3.6-3.6,5.1-5.9c1.5-2.2,2.7-4.7,3.7-7.3c1-2.6,1.7-5.3,2.2-8.1c0.4-2.1,0.6-4.2,0.7-6.3l-17.5,1.1
	c-0.9,2.1-2.5,3.4-4.3,3.4c-1.7,0-3.1-1.1-4.1-2.8h0l0,0c-0.6-1.2-1-2.8-1-4.5c0-2,0.5-3.8,1.3-5.2v0l0,0c0.9-1.6,2.3-2.6,3.8-2.6
	c1.3,0,2.5,0.8,3.4,2l17.9-1.4c0-0.2-0.1-0.4-0.1-0.6c-0.4-2.8-1.1-5.6-2-8.2c-0.9-2.6-2.1-5.2-3.5-7.5c-1.4-2.3-3.1-4.4-5.1-6.2
	c-1-0.9-2-1.6-3.1-2.3c-1.1-0.6-2.3-1.1-3.5-1.5c-0.6-0.2-1.2-0.3-1.8-0.4c-0.3,0-0.6-0.1-0.9-0.1c-0.3,0-0.6,0-0.9-0.1l-0.4,0
	l-0.5,0c-0.3,0-0.7,0-0.9,0c-0.3,0-0.6,0.1-0.9,0.1c-0.3,0.1-0.6,0.1-0.9,0.2c-1.2,0.2-2.3,0.6-3.4,1.1c-1.1,0.5-2.1,1-3,1.7
	c-1.9,1.3-3.5,2.9-4.9,4.5c-2.8,3.3-4.6,7-5.9,10.3c-0.6,1.7-1.1,3.3-1.5,4.8c-0.3,1.5-0.6,2.9-0.8,4.2c-0.4,2.5-0.5,4.5-0.5,5.9
	c0,0.7,0,1.2,0,1.6c0,0.3,0,0.5,0,0.5c0,0,0,0.2,0,0.5C238.8,93.3,238.8,93.8,238.8,94.5z"/>
<path class="st0" d="M220.1,75.3c-0.1,0.7-0.2,1.3-0.4,1.9c-0.1,0.6-0.2,1.2-0.3,1.8c-0.1,0.6-0.2,1.2-0.3,1.7
	c-0.1,0.6-0.1,1.1-0.2,1.6c-0.1,0.5-0.1,1-0.2,1.5c0,0.5-0.1,1-0.1,1.4c-0.2,1.9-0.2,3.4-0.3,4.7c-0.1,1.3,0,2.3-0.1,2.9
	c0,0.7,0,1,0,1c0,0,0,0.4,0,1c0,0.7,0,1.7,0.1,2.9c0.1,1.3,0.1,2.9,0.3,4.7c0,0.5,0.1,0.9,0.1,1.4c0.1,0.5,0.1,1,0.2,1.5
	c0.1,0.5,0.1,1.1,0.2,1.6c0.1,0.6,0.2,1.1,0.3,1.7c0.1,0.6,0.2,1.2,0.3,1.8c0.1,0.6,0.3,1.3,0.4,1.9c0.2,1.3,0.6,2.6,0.9,4
	c0.8,2.8,1.7,5.8,2.8,8.9c1.2,3.1,2.7,6.3,4.5,9.5c1.8,3.2,4,6.5,6.5,9.6c2.6,3.1,5.6,6,9.1,8.4c1.7,1.2,3.6,2.3,5.6,3.2
	c2,0.9,4.1,1.6,6.2,2c2.2,0.5,4.4,0.6,6.6,0.5l0.9,0l0.5,0c0.2,0,0.3,0,0.4,0c0.5-0.1,1.1-0.1,1.6-0.2c0.6-0.1,1.1-0.2,1.7-0.3
	c0.3,0,0.6-0.1,0.8-0.2l0.8-0.2c2.2-0.7,4.4-1.6,6.5-2.7c2.1-1.2,4.1-2.6,5.9-4.2c3.8-3.2,7.1-7.1,9.8-11.4c0.3-0.5,0.7-1.1,1-1.6
	c0.3-0.6,0.6-1.1,1-1.7c0.3-0.6,0.6-1.1,0.9-1.7c0.3-0.6,0.6-1.1,0.9-1.7c0.6-1.2,1.1-2.4,1.6-3.6c0.5-1.2,1-2.4,1.5-3.7
	c1.8-5,3.2-10.2,4.1-15.5c0.9-5.3,1.4-10.7,1.4-16.1c0-1.3,0-2.7-0.1-4.1c-0.1-1.3-0.1-2.7-0.2-4l-0.2-2l-0.2-2
	c-0.1-1.3-0.4-2.7-0.5-4c-0.8-5.3-2.1-10.6-3.9-15.6c-0.5-1.2-0.9-2.5-1.4-3.7c-0.5-1.2-1-2.4-1.6-3.6c-1.2-2.4-2.4-4.7-3.8-6.9
	c-2.8-4.4-6-8.4-9.9-11.7c-1.9-1.6-3.9-3.1-6.1-4.3c-2.1-1.2-4.4-2.1-6.7-2.8l-0.9-0.2c-0.3-0.1-0.6-0.2-0.9-0.2
	c-0.6-0.1-1.2-0.2-1.7-0.4c-0.6-0.1-1.2-0.1-1.8-0.2c-0.3,0-0.6-0.1-0.9-0.1l-0.9,0l-0.4,0l-0.2,0l-0.1,0c0,0,0,0-0.1,0l-0.9,0
	c-0.6,0-1.2,0-1.8,0.1c-0.6,0.1-1.1,0.1-1.7,0.2c-0.6,0.1-1.1,0.2-1.7,0.3c-2.2,0.5-4.4,1.2-6.4,2.1c-2,1-4,2.1-5.7,3.3
	c-3.6,2.5-6.6,5.5-9.2,8.7c-5.1,6.4-8.5,13.2-10.8,19.5c-1.1,3.1-2,6.1-2.7,9C220.6,72.7,220.3,74,220.1,75.3z M238.3,92.4
	c0,0,0-0.2,0-0.5c0-0.4,0-0.9,0-1.6c0.1-1.4,0.2-3.4,0.6-6c0.4-2.6,1-5.6,2.1-9.1c1.2-3.4,2.8-7.2,5.5-10.8c1.4-1.8,3-3.5,4.9-5
	c1-0.7,2.1-1.4,3.2-2c1.2-0.6,2.4-1,3.7-1.3c0.3-0.1,0.7-0.1,1-0.2c0.3-0.1,0.7-0.1,1-0.1c0.4-0.1,0.7-0.1,1-0.1l0.5,0
	c0,0,0.1,0,0.1,0l0.1,0l0.1,0l0.3,0c0.3,0,0.7,0,1,0c0.3,0,0.7,0.1,1,0.1c0.7,0.1,1.4,0.2,2.1,0.4c1.4,0.4,2.7,0.9,3.9,1.6
	c1.3,0.7,2.4,1.5,3.6,2.4c2.2,1.8,4.1,4.1,5.7,6.5c1.6,2.5,2.9,5.1,4,7.9c1,2.8,1.8,5.7,2.3,8.7c0,0.3,0.1,0.6,0.1,0.9l3.8-0.3
	c2.2-0.4,3.4,2.2,3.4,5.1c0,3-1.2,5.1-2.7,5.1l-3.9,0.2c-0.1,2.4-0.2,4.7-0.6,7.1c-0.5,3-1.2,5.9-2.1,8.8c-1,2.8-2.2,5.6-3.8,8.2
	c-1.6,2.6-3.5,4.9-5.8,6.8c-1.1,1-2.4,1.8-3.7,2.6c-1.3,0.7-2.7,1.3-4.1,1.7c-0.7,0.2-1.4,0.3-2.2,0.5c-0.4,0-0.8,0.1-1.2,0.1
	c-0.1,0-0.2,0-0.3,0l-0.2,0l-0.5,0l-0.2,0l-0.1,0l-0.1,0c0,0-0.2,0-0.1,0l-0.5,0c-0.4,0-0.7,0-1.1-0.1c-0.4,0-0.7-0.1-1.1-0.1
	c-0.3-0.1-0.7-0.1-1-0.2c-1.4-0.3-2.7-0.8-3.9-1.4c-1.2-0.6-2.3-1.3-3.3-2.1c-1-0.8-1.9-1.6-2.8-2.5c-0.8-0.9-1.6-1.8-2.3-2.7
	c-2.7-3.8-4.2-7.7-5.3-11.1c-1-3.5-1.6-6.6-1.9-9.2c-0.3-2.6-0.4-4.6-0.4-6c0-0.7,0-1.2,0-1.6C238.3,92.6,238.3,92.4,238.3,92.4
	L238.3,92.4z"/>
<path class="st0" d="M290.8,92.8c1.1,0,2-1.6,2-3.7c0-2.2-0.9-4-2-4c-1.1,0-2,1.8-2,4C288.8,91.2,289.7,92.8,290.8,92.8z"/>
<path class="st0" d="M259.5,95.3c0,0,2.8-4.3,13.2-7c10.4-2.7,15.6-3,15.6-3s-25.4,0.9-27.8,2.4C257.2,89.7,259.5,95.3,259.5,95.3z"
	/>
<path class="st0" d="M108.7,40c-7.4,2.3-8.3,8.6-9.4,9.9c-1.1,1.3-1.2,4.7-0.7,5.2c0.6,0.5-0.1,1.6-0.1,1.6s-4,3.3-5.3,5.5
	c-1.3,2.3,1.2,3,2.2,3.9c1,0.9,0.5,2.1,0.5,2.6c0,0.5-0.8,0.6-0.9,1.6c-0.1,1,0.7,1.7,0.7,1.7s-0.1,0.1-0.4,0.4
	c-0.3,0.3,0.1,1.4,0.4,2.3c0.3,0.9-1.1,2-1.1,2s-0.5,1.5,0,4.1c0.5,2.5,5.4,5.3,5.4,5.3s0.4-0.1,0.6,0.3c2.5-3.6,8.4-8.4,11.6-9
	c2.2-0.4,3-1.3,5.6-2.2c2.6-0.9,4.8-0.1,8.1,1.4c3.3,1.5,6.8,3,8,3.4l0.4-1.1c0,0,10.7-15,3.9-28.1C131.6,37.7,114.6,38.2,108.7,40z
	 M97.2,63.9c1,0.1,2.6,1.9,3.2,1.9c0.5,0,1-0.5,1.1-0.6c0,0,0,0,0.1-0.1c0,0,0,0-0.1,0.1c-0.7,1-2.3,1.4-3.1,0.9
	c-0.8-0.4-0.8-0.3-1.9-0.9C95.7,64.5,96.3,63.8,97.2,63.9z M98.6,81.8c-1.2-0.1-2,1-2.7-0.2c0,0,2.5-0.7,4.4,0c1.9,0.7,2,1.5,2,1.5
	S99.8,81.9,98.6,81.8z M96.4,76.2c0.5-1.4,3.1,0.4,2,0C97.3,75.8,96.4,76.2,96.4,76.2z M99.2,71.7c-1.7-0.6-2.9,0.2-2.9,0.2
	c-1.1-2.3,2.5-0.7,4.2-0.5c1.7,0.3,1.9,1.2,1.9,1.2S100.9,72.3,99.2,71.7z M108.5,56.4c-0.4,0.4-0.8,1.1-2.2,1.9
	c-1.3,0.7-1.8-0.5-2.2-1.3c-0.4-0.8-1-0.8-1-0.8C105.4,54,108.9,56,108.5,56.4z M110.6,53.6c-0.5-0.3-3.2-0.8-4.7-1.1
	c-1.5-0.3-3.5,0.9-3.7,0.8c-0.2-0.1,0-0.8,0-0.8C106.9,49.3,111.2,53.9,110.6,53.6z M124.7,69.1c0.2,0,0.3-0.1,0.5-0.2
	c0.1,0,0.1-0.1,0.2-0.2c0.1-0.1,0.1-0.1,0.1-0.3l0-0.1l0-0.1c0,0,0-0.1,0-0.1c0-0.1,0-0.2,0-0.3c0-0.1,0-0.2,0-0.3
	c0-0.1-0.1-0.1-0.1-0.2c-0.1-0.1-0.2-0.2-0.3-0.2c-0.1,0-0.1-0.1-0.1-0.1s0.1,0,0.2,0c0.1,0,0.2,0,0.4,0.2c0.1,0.1,0.1,0.1,0.2,0.2
	c0.1,0.1,0.1,0.2,0.1,0.3c0,0.1,0,0.2,0,0.3c0,0.1,0,0.1,0,0.2c0,0,0,0,0,0.1l0,0.1c0,0.1-0.1,0.2-0.2,0.3c-0.1,0.1-0.2,0.2-0.3,0.2
	c-0.1,0.1-0.2,0.1-0.3,0.1c-0.1,0-0.2,0-0.3,0c-0.3,0-0.5-0.1-0.5-0.1S124.3,69.2,124.7,69.1z M122.6,71c0.1-0.1,0.1-0.2,0.1-0.2
	l0.1,0c0,0,0,0.1,0,0.2c0,0.1-0.1,0.4,0,0.6c0.1,0.3,0.2,0.4,0.6,0.4c0.2,0,0.4,0,0.6-0.1c0.2,0,0.4-0.1,0.7-0.2
	c0.5-0.1,1.1-0.2,1.5-0.3c0.2-0.1,0.5-0.1,0.7-0.3c0.2-0.1,0.4-0.3,0.6-0.5c0.4-0.4,0.8-0.9,1.3-1.3c0.4-0.5,0.8-1,1.2-1.5
	c0.3-0.5,0.7-1.1,0.9-1.7c0.2-0.6,0.3-1.2,0.1-1.7c-0.2-0.5-0.6-0.9-1.1-1.1c-0.5-0.3-1-0.4-1.5-0.4c-1-0.1-1.7,0.2-2.2,0.5
	c-0.2,0.1-0.4,0.3-0.5,0.4c-0.1,0.1-0.2,0.2-0.2,0.2l-0.1-0.1c0,0,0.2-0.3,0.7-0.6c0.2-0.2,0.6-0.4,0.9-0.5c0.4-0.1,0.9-0.2,1.4-0.2
	c0.5,0,1.1,0.1,1.6,0.4c0.5,0.2,1.1,0.7,1.4,1.3c0.2,0.7,0.2,1.4,0,2c-0.2,0.7-0.5,1.3-0.8,1.9c-0.3,0.6-0.7,1.1-1.1,1.7
	c-0.4,0.5-0.8,1-1.3,1.5c-0.2,0.2-0.5,0.4-0.8,0.6c-0.3,0.2-0.6,0.3-0.9,0.3c-0.6,0.1-1.1,0.1-1.6,0.2c-0.5,0-1,0.1-1.4,0
	c-0.2-0.1-0.5-0.2-0.6-0.4c-0.1-0.2-0.2-0.4-0.2-0.6C122.5,71.4,122.6,71.2,122.6,71z M126.7,63.9c0,0,2.9-0.5,2.7,1.4
	c-0.2,1.9-1.4,3.7-2.1,4.4c-0.7,0.6,1.1-1.4,1.4-2.9C129.1,65.3,129.5,64.3,126.7,63.9z"/>
<path class="st0" d="M182.6,199.2c-1.2-1.2-2.5-2.6-5.9-3.9c-2.4-0.9-4.6-2.6-6.9-4.3c-2.9-2.2-5.9-4.4-9.9-5.5
	c-7.6-2.1-12.9-3.5-18.4-3.2c-5.5,0.2-8.7,2.8-8.7,2.8l-0.1,0.1l-0.2,0c0,0-1.5,0-3.2,0.2l0,0.1c-1.4,0.2-2.1,0.7-2.9,1.2
	c-0.8,0.5-1.7,1.1-3.3,1.3c-8,0.7-18.4,5.9-21.3,13c-2,4.9-0.5,8.5,0.9,12.1c0.6,1.5,1.2,3,1.5,4.5c0.6,2.8,0.7,4.1,1.4,6
	c2.6,4.6,9.2,12.2,10.5,13.8c2.2,0.7,5.6,1.3,9.4-0.3c6.4-2.6,14.7-8,16.5-10.2c1.6-2.2,1.5-7.2,1.5-7.2l0-0.3
	c-0.3-0.7-1.5-4.6-4.6-9.7c-3.2-5.2-9.3-6.8-9-6.8c11,1.5,12.8,13,12.1,9.1c-0.6-3.9-4.9-10-4.9-10s1.1,0.8,3.8,4.7
	c2,2.8,2.9,7.8,3.2,10.7c0.6-1.3,2.2-2.2,2.2-2.2s-0.7,1.3-1.4,2.5c-0.3,0.5-0.3,1-0.3,1.5c0.6-0.4,1.7-1,3.7-1.1
	c3.1-0.2,3.8,0,3.8,0s-4.3,0.8-4.8,1.3c-0.4,0.5,1.8,1.4,2.9,2.7s1.5,3.2,1.5,3.2s-1.7-4.1-5.3-4.7c-0.3,0-0.5-0.1-0.7-0.1
	c1.6,1.2,3.8,3.3,4.4,6.4c0.4,1.8,0.4,3.7,0.4,5.5c0,0.8,0,1.5,0,2.3c0.6-0.2,2.9-0.9,11.2-3.4c11.4-3.5,17.6-11.9,20.2-18.1
	c2-4.7,2.1-8.6,2.1-12.3C183.6,200.2,183.1,199.7,182.6,199.2z M167.3,194.9c3.2,5.4,3.9,12.8,3.9,12.8s-2.7-13.3-13.5-20.1
	C157.7,187.6,164,189.5,167.3,194.9z M134.1,193.1c-7.3-4.4-13.4-4.2-13.4-4.2c5.7-1,1.2-0.9,7.1-0.1c5.4,0.7,14.3,9.7,15.6,11.1
	C142.8,199.3,140,196.7,134.1,193.1z M144.1,184.6c6.8,2.1,10.4,4.9,10.9,5.2c0.4,0.3,0.9-0.6,0.4-1.2c-0.5-0.7-5.2-4-5.2-4
	s2.7,0.8,5.4,2.6c2.7,1.8,3.4,3.7,3,3.5c-0.4-0.2-1.4-1-1.9-0.2c-0.4,0.8-0.6,1.5-3.6-0.3C150.1,188.3,144.1,184.6,144.1,184.6z
	 M168.6,222c-0.3,3-1.1,3.8-1.1,3.8s1-3.4,0-11.4C167.5,214.3,168.9,218.9,168.6,222z M170.4,220.3c-0.5-1.5-0.1,0.7-0.4,2.7
	c-0.3,2-1.4,3.5-1.4,3.5s1.4-3.2,0.9-12.5c0,0,2.1,4.9,2.3,7.1c0.2,2.2,0.3,2.7,0.3,2.7S170.9,221.8,170.4,220.3z M173.6,212.8
	c-0.1-0.6,0.3-0.6,0.3-0.6s1.9,3.5,2.1,5.4c0.1,1.9,0.1,1.9,0.1,1.9S173.7,213.4,173.6,212.8z M175.4,210.5c0,0,1.2,2.7,1.4,4.3
	C177,216.3,175.5,212.8,175.4,210.5z M182.2,205.6c0,0.4,0.1,0.8,0.1,1.3c0.3,1.4-0.1,3.7-0.1,3.7s-0.3-2.8-1-4.2
	c-0.1-0.2-0.2-0.4-0.3-0.6c-0.8,0.2-1.8,0.6-2.1,1.4c-0.5,1.2-2.1,1.9-3.4,2.4s-1.3,1.1-2.2,1c-0.9-0.1,0.3,1.4-1,1.4
	s-2.9-1.1-3.7-0.3c-0.8,0.8-3-0.3-3.8-0.7c-0.8-0.4-4.2,0.6-6.8,0.7c-2.6,0.1-5-0.1-5.8,0.1c-0.8,0.1-4.3,1.6-4.2,1
	c0.1-0.5,2.9-1.4,3.4-2.1c0.6-0.7,1.8-0.1,4.1,0c2.3,0.1,8.9-0.6,9.5-0.7c0.6-0.1,1.7,0.8,2.3,1.1c0.6,0.2,0.7-0.9,1.6-1.1
	c1-0.2,1.9,0.6,2.6,1c0.8,0.4,0.5-0.5,0.1-1.2c-0.3-0.8,0.1-0.3,1.4-0.1c1.3,0.3,1-0.3,1.4-1.1c0.3-0.8,2.4-0.5,3.1-1.2
	c0.7-0.6,0.5-1.9,0.8-2.5c0.1-0.2,0.6-0.3,1.1-0.4l0,0c-0.3-0.7-2.7-5.7-7.6-10.2c-0.3-0.3,9,7.3,9.8,8.6c0.3,0.5,0.4,0.9,0.5,1.4
	c0.1,0,0.1,0,0.1,0c1-0.3,0-2.1,0-2.1C184.8,203.4,183.1,205.2,182.2,205.6z"/>
<path class="st0" d="M130.1,100c-1.7-1.1-1.8-1.9-1.8-1.9l-10.9,1.1c0,0-0.4,0.5-0.6,0.7c-0.6,1.2-1.7,1.7-2.5,2.6
	c-0.6,0.7-2,3.5-2,3.5l0.9-0.1l2.7-2.3c0,0,3.8-2.9,8.7-2.5c6,0.6,9.7,3.3,9.7,3.3S132.5,101.6,130.1,100z"/>
<path class="st0" d="M122,94.9c-0.5-0.3-0.8,0.2-1.8,0.3c-1,0.1-1.1,0.4-1.1,1.1c0,0.8-0.9,2.1-0.9,2.1l7.5-0.7l-1.7-1.9
	C123.2,95.4,122.5,95.2,122,94.9z"/>
<path class="st0" d="M136,80.8c-1.7,0.6-5.5-1.7-11.5-4.2c-6-2.4-6.5-0.1-9.7,0.7c-3.2,0.7-5,1.8-8,4.1c-3,2.3-5.9,6.1-5.9,6.1
	c-0.9,1.3-2.4,4.7-2.4,4.7S98.3,93,97,94.7c-1.3,1.6-4.7,6.7-4.7,6.7l-0.1,0c-1.1,2.6-4.6,9.4-8.3,17.4c-3.2,7-3.9,11.9-5.1,17.7
	c-1,5.1-4.3,8.2-4.2,10.4c0.1,2.2,2,7.6,9,8.6c5.8,0.8,11-0.8,12.6-1.3h0c3.5-1.8,8.4-1.7,16.4-4.9c8-3.2,14.9-10.5,14.9-10.5
	c-2.7,4.4-8.6,8.4-14.9,11.2l0,0c2.6,5.2,2.7,16,1.3,16.6c-1.4,0.7-2.5-1.2-2.5-1.2s0,0,1.1,0.4c1.1,0.4,1.4-1.8,1.3-3.9
	c-0.2-3.7-3.1-11.2-3.1-11.2l0,0c-0.6,0.3-1.3,0.5-1.9,0.7c0,0,0,0,0,0c0.6,0.4,2.5,12.6,1.8,12.6c-0.7,0.1,0.1-0.4-0.7-1.4
	c-0.8-1-4.8-10-4.8-10c0,0,0,0,0,0c-0.7,0.2-2.4,0.7-3.1,0.9c0.9,1.1,2.2,5.2,4.8,10.4c3,6.1,3.3,3.1,7.4,9.9
	c-2.5-1.1-5.6-4.4-8.4-8.7c-1.5-2.3-4.6-9-5.4-11.2c-0.8,0.2-2.8,0.6-3.3,0.7c0.6,1.1,1.8,3.7,2.7,6.2c1.2,3.4,6,10.5,6,10.5
	s0,0,0,0c2.4,3.4,10,12.8,20.5,14c2.5-0.9,5.3-0.9,6-0.9c0.7-0.5,3.9-2.7,9.1-2.9c5.6-0.2,11,1.2,18.7,3.3c4.1,1.1,7.2,3.4,10.1,5.7
	c2.2,1.7,4.3,3.2,6.7,4.1c3.5,1.4,5,2.9,6.2,4.1c0.3,0.3,0.6,0.6,0.9,0.9c0-0.8,0-1.5,0-2.3c0-4.8-6.3-11.6-6.8-11.9
	c-0.5-0.3,0.3-2.4-5.7-11.1c-1.4-2-3.5-10.7-3.6-13.7c-0.1-2.9-2.5-13.4-3.3-16.2c-0.8-2.7-1-9.8-2.6-20c-1.6-10.2-4-12-6.4-15.9
	c-2.2-3.6-3-3.3-3-3.7c-0.1,0.4-0.2,0.8-0.5,1c-0.9,0.9-2.3,1.8-4.3,1.6c-1-0.1-1.9,0-3.2,0.1c-0.9,0.1-1.9,0.2-3.3,0.2
	c-0.7,0-1.3,0-1.7,0c-1.7,0-2.3-0.2-3.1-1.3c-0.4-0.5-0.9-0.8-1.3-1c-0.3,1.4-1.9,1.9-3,2.3c-1.1,0.5-1.1,1-1.1,1s1.1,0.2,3.4,0.5
	c2.3,0.3,4.1,1.2,4.1,1.2c-2.4-0.3-9-0.3-9-0.3s0.3,0.3,3.9,0.6c3.6,0.3,3.4,0.7,3,1.2c-0.3,0.6-0.7,1.1-0.7,1.1s-6.2-0.2-7.5,0
	c-1.3,0.2,5.3,0.2,10,1.4c4.7,1.1,5,1.9,5,1.9s-5.7-2.1-7.6-0.7c-2,1.3-4,1.8-3.4,2.1c0.7,0.2,5.7,2.1,5.7,2.1s-4.4-1.3-9.6-2.2
	S122,117,122,117s6.2,1.7,10.4,2.8c4.3,1.1,8.9,2.5,6.2,2.4c-2.6-0.1-12.3-2.2-14.5-2.5c-2.1-0.3-3.3-0.2-3.3-0.2s2.2,2,6.7,2.7
	c4.5,0.7,9.3,1.4,13.5,1.2c2.9-0.1,4.7-0.5,5.6-0.7c0.4-0.1,0.6-0.2,0.6-0.2s-0.2,0.1-0.6,0.2c-2.3,0.6-10.3,2.2-18.7,0.7
	c-10-1.8-9.9-2.2-10-1.8c-0.1,0.4-0.2,1.6,3.3,2.1c3.5,0.6,10.1,1.6,16,1.1c5.9-0.5,13.4-1.6,13.4-1.6s-6.1,3-16.4,2.7
	c-8.9-0.3-15.8-2.1-17.6-2.6c0.6,0.6,1.3,1.1,2,1.6c2.7,1.8,10.9,8.9,12.1,11.1c1.3,2.2-1.8,2.6-3.1,2.5l0,0c-1.3-0.2-1.7-1.5-2.9-5
	c-1.2-3.4-5.3-6.9-7.6-9.3c-2.4-2.4-6.2-4.7-6.5-4.9c-0.2-0.1-0.4,1.8-0.6,3.1c0.1,1.3,0.1,2.7,0,4.1c-0.4,5.3-1.6,10.5-1.1,11.8
	c0.5,1.2,0.5,1.7,0.5,1.7s-2.1-0.6-0.6-10.7c1.3-8.6,0.1-12.8,0.1-12.8s0.2-0.2-0.3-1.9c-0.5-1.7,0.7-3.7,1.4-6.4
	c0.7-2.7,1.6-2.2,2.7-4.6c1.2-2.4,2.6-3.3,2.6-3.3s0.9-1,1.4-1.6c0.4-0.6,0.8-1.1,1.2-2.2c0.4-1.2,0.4-2.2,1.1-2.3
	c0.7-0.1,1.8-0.2,2.4-0.5c0.5-0.4,0.5-0.3,0.9,0.3c0.4,0.5,1.7,0.4,4,1.2c2.4,0.8,3.1,2.8,3.1,2.8l1.5,1.2c0,0,3.3,3.2,4.2,5
	c0.5,0.2,1.4,0.7,2.1,1.5c0.7,0.9,0.9,1,4.1,0.9c1.3,0,2.3-0.1,3.2-0.2c1.3-0.1,2.3-0.2,3.4-0.1c1.6,0.2,2.8-0.6,3.5-1.3
	c0.2-0.2,0.3-0.6,0.3-1l0,0c0-0.1,0-0.2,0.1-0.3c0,0,0,0,0-0.1c0.1-0.6-0.1-0.8-0.4-1.1c0-0.1-0.1-0.1-0.1-0.2
	c-0.4-0.3-0.7-0.4-1.2-0.4c-0.8-0.1-1.8-0.3-3.5-2.1c-2.4-2.4-2.9-4.5-3.6-5.5c-0.7-1-7.7-6.8-7.7-6.8s3.7-0.9,4.6-1.3
	c1.7-0.8,3.8-2.9,4.5-3.4c0.8-0.5,4-0.1,4.7-2.1c0.7-2-0.7-3.6-3.7-3.3c-3,0.3-7.3,2.5-8.8,3C136.5,80.8,136.3,80.8,136,80.8z
	 M76,147.4c0,0,2.2,5.3,7.1,6.3c4.9,1,6.5,1,6.5,1S76.8,156.1,76,147.4z M175.8,191.8c0,0,2.5-0.1,4.9,2.6c2.4,2.6,2.6,3.7,2.6,3.7
	S180,193.9,175.8,191.8z M171.9,189.7c1.3-0.4,2.8-0.3,5.9,0.3c3.2,0.7,4.6,4.2,4.6,4.2s0,0-1.6-1.8c-1.6-1.8-4.6-1.4-6.7-2.2
	C172.8,189.7,172.2,189.7,171.9,189.7c-0.1,0-0.1,0.1-0.2,0.1C171.7,189.8,171.7,189.7,171.9,189.7z M137.2,160.2
	c-2.1,0-11.2-4.3-14.1-4.9c-2.9-0.6-0.1,1.9-0.4,3.6c-0.2,1.6,1.7,5,2.6,9.9c0.9,4.8-0.9,4,2.9,6.9c3.9,2.9,7.5,2.2,3.8,2.9
	c-3.7,0.7-8.6-0.5-10.5,0.1c-1.9,0.6-2.2,0.9-3.5,1.6c-1.3,0.7-2-1.1-2-1.1s0.8,0.3,1.6,0c0.8-0.3,0.3-7.7,0.5-12.4
	c0.2-4.7-3-16.4-3-16.4c4.3-1.6,6.1-3.5,6.1-3.5s3.1,3,7.9,6.9C131,155.1,139.3,160.2,137.2,160.2z M131.1,138.4
	c1.4-0.7,2.3-2.9,3.4-4c1.1-1.1,1.5-0.8,4.7-1.4c3.1-0.6,7.7-2.7,7.7-2.7c-5.8,4.6-11.1,4-5.1,4.5c6,0.5,9.4-3.5,9.4-3.5
	s-0.3,1.7-3.8,3.1c-3.5,1.5-10.9,0.9-12.1,1.2c-0.5,0.1-1,0.6-0.1,1c0.9,0.4,2.8,2.9,11.1,0c4-1.4,7.2-6.6,7.2-6.6
	c-2.9,6-6.6,7.4-11.3,8.4c-4.7,1-7.3,0.1-7.3,0.1s0.9,0.7,4,1.1c3.1,0.4,4.6-0.3,4.6-0.3s-0.6,0.3-2.5,0.9c-1.9,0.6-5.4,0.2-5.4,0.2
	s2.8,0.6,4.5,1.8c1.8,1.2,2.1,3.1,5.8,6.1c3.7,3,14.2,6.6,14.2,6.6s-3.7-0.5-6.2-1.4c-2.5-0.9-5.5-2.4-5.5-2.4s-6.4-4.1,0.6,0.7
	c7,4.8,14.2,4.7,14.2,4.7s-0.3,0.1-4-0.1c-3.8-0.3-9.7-2.8-14.1-6.6c-4.3-3.8-10.7-6.3-10.7-6.3s1.7,1.1,5.9,4.7
	c4.3,3.6,12.8,8.2,17.1,9.4c4,1.1,7.4,0.1,7.4,0.1s-1,0.7-5.4,0.7c-4.4,0-9.6-2.4-15.7-6.2c-6.1-3.8-8.4-6.7-11.9-9.7
	c-3.5-3-4.7-2.6-4.7-2.6l0.9-1C128,138.9,129.7,139,131.1,138.4z M109.1,137.9c0,0,0.3-3.6,1-8c0.7-4.4-0.1-8.4,0.9-8.8
	c0.9-0.4,2-0.2,4.2,2.3c0.4,0.1,0.7,0.8,0.7,0.8c-0.3-0.3-0.5-0.6-0.7-0.8c-0.3-0.1-0.7,0.1-1.1,0.8c-1,1.9-0.5,3.3-1.5,5
	c-0.9,1.7-2.6,4.9-2.8,6.3C109.6,136.9,109.1,137.9,109.1,137.9z M105.5,117.6c-1.6,2-4.6,6.7-4.6,6.7s2.2-4.9,3.9-7.2
	c1.6-2.4,2.9-7.3,2.9-7.3S107,115.6,105.5,117.6z M123.5,93.9c0,0-1.1,0.7-0.8-3c0.2-3.7-2-9.5-2-9.5s2.4,2.8,2.9,5.8
	S123.5,93.9,123.5,93.9z M125.3,92.2c-0.6,1.7-0.6,2.2-0.9,1.7c-0.3-0.6,1.2-1.2,0-11.1C124.4,82.8,125.9,90.5,125.3,92.2z"/>
<g>
</g>
<g>
</g>
<g>
</g>
<g>
</g>
<g>
</g>
<g>
</g>
</svg>
