<svg id="Layer_1" data-name="Layer 1" xmlns="http://www.w3.org/2000/svg" viewBox="0 0 200 200"><defs><style>.cls-1{fill:#b1b1b2;}.cls-2{fill:none;stroke:#b1b1b2;stroke-linejoin:round;stroke-width:4.03px;}</style></defs><title>icon</title><path class="cls-1" d="M131.77,62.19s4.37-12.92-11-14.92c0,0,2.11-12.62-12.55-11.52,0,0-1.73-7.1-14.17-4.71,0,0-10.06-3.95-14,4.88,0,0-12.37-.91-12.57,10.38,0,0-12.41,1.48-11.9,14.5,0,0-5.22,2.16-7.44,6.69h-0.1c-0.12.34-.23,0.7-0.34,1.07a9.3,9.3,0,0,0-.52,2.71c-0.37,4.19,1.31,8.9,9.21,11.52,0,0-4.37,12.92,11,14.92,0,0-2.11,12.62,12.55,11.52,0,0,1.73,7.1,14.17,4.71,0,0,10.06,3.95,14-4.88,0,0,12.37.91,12.57-10.38,0,0,12.41-1.48,11.9-14.5,0,0,5.22-2.16,7.44-6.69h0.1c0.12-.34.23-0.7,0.34-1.07a9.31,9.31,0,0,0,.52-2.71C141.35,69.52,139.66,64.81,131.77,62.19Zm-38.22,38A27.73,27.73,0,1,1,121.82,73,27.73,27.73,0,0,1,93.55,100.21Z"/><polygon class="cls-2" points="80.03 103.44 39.74 154.22 59.48 149.09 67.92 164 93.37 109.22 80.03 103.44"/><polygon class="cls-2" points="94.46 104.92 108.69 165.13 118.26 149.69 136.66 155.26 108.67 101.07 94.46 104.92"/><polygon class="cls-1" points="94.46 55.97 98.23 67.57 110.42 67.57 100.56 74.73 104.32 86.33 94.46 79.16 84.6 86.33 88.36 74.73 78.5 67.57 90.69 67.57 94.46 55.97"/><rect class="cls-1" x="94.1" y="54.03" width="0.36" height="0.36"/></svg>