<?xml version="1.0" encoding="utf-8"?>
<!-- Generator: Adobe Illustrator 21.0.0, SVG Export Plug-In . SVG Version: 6.00 Build 0)  -->
<svg version="1.1" id="Layer_1" xmlns:sketch="http://www.bohemiancoding.com/sketch/ns"
	 xmlns="http://www.w3.org/2000/svg" xmlns:xlink="http://www.w3.org/1999/xlink" x="0px" y="0px" viewBox="0 0 190 45"
	 style="enable-background:new 0 0 190 45;" xml:space="preserve">
<style type="text/css">
	.st0{fill:#515151;}
</style>
<title>TA Logo Desktop</title>
<desc>Created with bin/sketchtool.</desc>
<g id="Page-1" sketch:type="MSPage">
	<g id="Style-guide---Logos" transform="translate(-60.000000, -285.000000)" sketch:type="MSArtboardGroup">
		<g id="TA---Desktop" transform="translate(0.000000, 186.000000)" sketch:type="MSLayerGroup">
			<g id="TA-Logo-Desktop" transform="translate(60.000000, 99.000000)" sketch:type="MSShapeGroup">
				<path id="Fill-1-Copy" class="st0" d="M34.6,27.2h-0.8c-0.1-1.6,0-2.7-2.4-2.7H27v16.6c0,2.1,1.1,2.1,2.7,2.1V44
					c-1.4,0-2.7-0.1-4-0.1c-1.4,0-2.8,0-4.3,0.1v-0.8c1.6,0,2.7-0.1,2.7-2.1V24.5h-3.9c-2.6,0-2.8,0.7-3.3,2.7h-0.8l0.3-4.7h0.6
					c0.3,0.8,1.1,0.8,1.9,0.8h13.4c1.1,0,1.8-0.3,1.9-0.8h0.6L34.6,27.2"/>
				<path id="Fill-2-Copy" class="st0" d="M36.3,36.6v5.2c0,1.6,0.8,1.6,2,1.6V44c-1.1,0-2,0-3,0c-1.1,0-2.1,0-3.2,0v-0.6
					c1.1,0.1,2-0.2,2-1.5V30.6c0-1.6-0.8-1.6-2-1.6v-0.6c1.2,0,2.3,0,3.4,0c0.8,0,1.5,0,3,0c4.2,0,5.1,2.4,5.1,3.9
					c0,1.9-1.4,3.3-3.1,3.8c2,3,3.1,4.7,4,5.8c0.7,0.8,1.4,1.4,2.5,1.4V44c-0.6,0-1.1,0-1.7,0c-0.6,0-1.3,0-1.9,0
					c-2-2.2-3.5-4.8-5.1-7.3H36.3L36.3,36.6z M37.7,29.2c-0.6,0-0.9,0.1-1.3,0.1v6.5c0.3,0.1,0.8,0.1,1.2,0.1c2.7,0,3.8-1.8,3.8-3.4
					C41.3,30.6,40.3,29.2,37.7,29.2L37.7,29.2z"/>
				<path id="Fill-3" class="st0" d="M57.1,39.6c0.3,0.9,0.9,2.8,1.3,3.2c0.3,0.4,1,0.6,1.7,0.6V44c-0.8,0-1.7,0-2.5,0
					c-1.1,0-2.1,0-3.2,0v-0.6h0.4c0.6,0,1.2-0.1,1.2-0.7c0-0.2-0.2-0.9-0.3-1.3l-1.1-3.2h-5.2l-0.5,1.6c-0.3,0.9-0.6,2-0.6,2.6
					c0,1,0.7,1,1.5,1h0.5V44c-0.9,0-1.7,0-2.6,0c-0.9,0-1.8,0-2.7,0v-0.6c1.3-0.2,1.6-0.3,2.1-1.6c0.3-0.8,0.6-1.7,0.9-2.5l2.8-7.9
					c0.2-0.5,0.5-1.3,0.5-2c0-0.2,0-0.4,0-0.6c0.5-0.2,1-0.5,1.3-1h0.4L57.1,39.6L57.1,39.6z M49.6,37.2h4.5l-2.4-6.5h0L49.6,37.2
					L49.6,37.2z"/>
				<path id="Fill-4" class="st0" d="M75.3,44.2h-0.5L63.3,31.4v8.3c0,3.1,0.2,3.7,2.6,3.7V44c-1,0-2,0-2.9,0c-1,0-2,0-2.9,0v-0.6
					c1.3,0,2.4,0,2.4-2.8v-8.9c0-1.9-0.8-2.6-2.7-2.6v-0.6c0.7,0,1.3,0,2,0c0.6,0,1.2,0,1.8,0c0.9,1.4,3,3.4,5.5,6.2
					c1.9,2.1,3.9,4.3,5.4,5.9v-8.8c0-2-0.5-2.7-2.7-2.7v-0.6c1,0,2.1,0,3.1,0c0.9,0,1.7,0,2.6,0V29c-1.3,0-2.1,0.1-2.1,2.3V44.2"/>
				<path id="Fill-5-Copy" class="st0" d="M78.3,40.3h0.5c0.4,1.7,1.6,3.3,3.4,3.3c1.7,0,3-1.2,3-3c0-4.1-6.5-2.9-6.5-8.2
					c0-2.9,2-4.4,4.7-4.4c0.9,0,1.8,0.2,2.7,0.3l0.4,2.8H86c-0.2-1.6-1.3-2.5-2.8-2.5c-1.7,0-2.6,1.2-2.6,2.8c0,4.1,6.8,3,6.8,8.1
					c0,2.9-2.6,4.5-5.2,4.5c-1.1,0-2.3-0.3-3.4-0.8L78.3,40.3"/>
				<path id="Fill-6" class="st0" d="M99.8,39.6c0.3,0.9,0.9,2.8,1.3,3.2c0.3,0.4,1,0.6,1.7,0.6V44c-0.8,0-1.7,0-2.5,0
					c-1.1,0-2.1,0-3.2,0v-0.6h0.4c0.6,0,1.2-0.1,1.2-0.7c0-0.2-0.2-0.9-0.3-1.3l-1.1-3.2h-5.2l-0.5,1.6c-0.3,0.9-0.6,2-0.6,2.6
					c0,1,0.7,1,1.5,1h0.5V44c-0.9,0-1.7,0-2.6,0c-0.9,0-1.8,0-2.7,0v-0.6c1.3-0.2,1.6-0.3,2.1-1.6c0.4-0.8,0.6-1.7,0.9-2.5l2.8-7.9
					c0.2-0.5,0.5-1.3,0.5-2c0-0.2,0-0.4,0-0.6c0.5-0.2,1-0.5,1.3-1h0.4L99.8,39.6L99.8,39.6z M92.3,37.2h4.5l-2.4-6.5h0L92.3,37.2
					L92.3,37.2z"/>
				<path id="Fill-7" class="st0" d="M113.1,40.9c2-4.2,4.1-8.3,6-12.5c0.6,0,1.2,0,1.8,0c0.6,0,1.3,0,1.9,0V29
					c-0.7,0-1.3,0-1.5,0.3c-0.3,0.2-0.4,0.6-0.4,1.3c0,3.5,0.2,7.2,0.3,10.6c0,1.7,0.2,2.2,2.4,2.2V44c-1.2,0-2.4,0-3.6,0
					c-1.1,0-2.1,0-3.2,0v-0.6c0.8,0,1.3,0,1.7-0.2c0.4-0.2,0.6-0.6,0.6-1.5l-0.2-10.6h0L113.6,42c-0.2,0.5-0.7,1.6-0.9,2.2h-0.4
					c-1.9-4.2-4-8.4-6.1-12.6h0l-0.2,8c0,0.3,0,1.1,0,1.4c0,1.1,0.1,1.7,0.5,2c0.4,0.3,0.9,0.4,1.8,0.4V44c-0.9,0-1.8,0-2.7,0
					c-1,0-2,0-2.9,0v-0.6c1.6,0,2.5-0.4,2.6-3.4c0.1-3,0.2-6.1,0.2-9.1c0-0.8-0.1-1.3-0.4-1.5c-0.3-0.3-0.8-0.4-1.5-0.4v-0.6
					c0.8,0,1.6,0,2.3,0c0.5,0,1,0,1.4,0L113.1,40.9"/>
				<path id="Fill-8" class="st0" d="M129,35.5h2.9c1.8,0,1.8-1.4,1.8-1.9h0.4c0,0.5-0.1,1.7-0.1,2.5c0,0.7,0.1,1.8,0.1,2.5h-0.4
					c0-2.1-0.7-2.1-2.4-2.1H129v3.8c0,2.5,0.1,3.1,2.3,3.1h1.4c2.2-0.1,3.1-0.4,4-2.8l0.5,0.1c-0.4,1.1-0.7,2.2-0.9,3.4
					c-2.2,0-4.4,0-6.6,0c-1.6,0-3.3,0-4.9,0v-0.6c1.9,0,2.1-0.4,2.1-2.5V31c0-1.8-0.4-1.9-2.1-2v-0.6c1.5,0,3,0,4.5,0
					c2.1,0,4.2,0,6.4,0v3.3l-0.4,0.1c-0.3-2.1-1.3-2.7-3.5-2.7H129V35.5"/>
				<path id="Fill-9" class="st0" d="M142.4,36.6v5.2c0,1.6,0.8,1.6,2,1.6V44c-1.1,0-2,0-3,0c-1.1,0-2.1,0-3.2,0v-0.6
					c1.1,0.1,2-0.2,2-1.5V30.6c0-1.6-0.8-1.6-2-1.6v-0.6c1.2,0,2.3,0,3.4,0c0.8,0,1.5,0,3,0c4.2,0,5.1,2.4,5.1,3.9
					c0,1.9-1.4,3.3-3.1,3.8c2,3,3.1,4.7,4,5.8c0.7,0.8,1.4,1.4,2.5,1.4V44c-0.6,0-1.1,0-1.7,0c-0.6,0-1.3,0-1.9,0
					c-2-2.2-3.5-4.8-5.1-7.3H142.4L142.4,36.6z M143.7,29.2c-0.5,0-0.9,0.1-1.3,0.1v6.5c0.3,0.1,0.8,0.1,1.2,0.1
					c2.7,0,3.8-1.8,3.8-3.4C147.3,30.6,146.3,29.2,143.7,29.2L143.7,29.2z"/>
				<path id="Fill-10" class="st0" d="M154.9,30.6c0-1.6-0.8-1.6-2-1.6v-0.6c1,0,2,0,3,0c1,0,2,0,3.1,0V29c-1.2,0-2,0-2,1.6v11.2
					c0,1.6,0.8,1.6,2,1.6V44c-1.1,0-2,0-3,0c-1.1,0-2.1,0-3.2,0v-0.6c1.2,0,2,0,2-1.6V30.6"/>
				<path id="Fill-11" class="st0" d="M174.4,32.5h-0.6c-0.4-2.6-2.3-3.6-4.7-3.6c-2.5,0-6.2,1.7-6.2,7c0,4.5,3.2,7.7,6.6,7.7
					c2.2,0,4-1.5,4.4-3.8l0.5,0.1l-0.5,3.2c-0.9,0.6-3.4,1.2-4.9,1.2c-5.2,0-8.4-3.4-8.4-8.4c0-4.6,4-7.8,8.4-7.8
					c1.8,0,3.5,0.6,5.2,1.2L174.4,32.5"/>
				<path id="Fill-12" class="st0" d="M186.7,39.6c0.3,0.9,0.9,2.8,1.3,3.2c0.3,0.4,1,0.6,1.7,0.6V44c-0.8,0-1.7,0-2.5,0
					c-1.1,0-2.1,0-3.2,0v-0.6h0.4c0.6,0,1.2-0.1,1.2-0.7c0-0.2-0.2-0.9-0.3-1.3l-1.1-3.2h-5.2l-0.5,1.6c-0.3,0.9-0.6,2-0.6,2.6
					c0,1,0.7,1,1.5,1h0.5V44c-0.9,0-1.7,0-2.6,0c-0.9,0-1.8,0-2.7,0v-0.6c1.3-0.2,1.6-0.3,2.1-1.6c0.4-0.8,0.6-1.7,0.9-2.5l2.8-7.9
					c0.2-0.5,0.5-1.3,0.5-2c0-0.2,0-0.4,0-0.6c0.5-0.2,1-0.5,1.3-1h0.4L186.7,39.6L186.7,39.6z M179.2,37.2h4.5l-2.4-6.5h0
					L179.2,37.2L179.2,37.2z"/>
				<path id="Fill-13" class="st0" d="M187.2,31.8c-1,0-1.8-0.8-1.8-1.8c0-1,0.8-1.9,1.8-1.9c1,0,1.8,0.8,1.8,1.9
					C189,30.9,188.2,31.8,187.2,31.8L187.2,31.8z M187.2,28.4c-0.8,0-1.5,0.7-1.5,1.6c0,0.9,0.7,1.5,1.5,1.5c0.8,0,1.5-0.7,1.5-1.5
					C188.7,29.1,188,28.4,187.2,28.4L187.2,28.4z"/>
				<path id="Fill-14" class="st0" d="M187.3,29.8c0.1,0,0.2,0,0.3-0.1c0.1,0,0.1-0.1,0.1-0.2c0-0.1,0-0.2-0.1-0.3c0,0-0.1,0-0.2,0
					h-0.6v0.6H187.3L187.3,29.8z M186.5,29h0.8c0.1,0,0.2,0,0.3,0.1c0.2,0.1,0.2,0.2,0.2,0.4c0,0.1,0,0.2-0.1,0.3
					c0,0.1-0.1,0.1-0.2,0.2c0.1,0,0.1,0.1,0.2,0.1c0,0,0.1,0.1,0.1,0.2l0,0.2c0,0.1,0,0.1,0,0.1c0,0.1,0,0.1,0.1,0.1v0h-0.3
					c0,0,0,0,0-0.1c0,0,0-0.1,0-0.1l0-0.3c0-0.1,0-0.2-0.1-0.2c0,0-0.1,0-0.2,0h-0.5v0.8h-0.2V29L186.5,29z"/>
				<path id="Fill-15" class="st0" d="M12.3,43.1h-6v-1.2h5.8L12,41.1H6.4v-1.2h5.5l-0.1-0.9H6.4v-1.2h5.2l-0.1-0.9H6.4v-1.1h4.9
					l-0.1-0.9H6.4v-1.2h4.7l-0.1-0.9H6.4v-1.2h4.4L10.6,31H6.4v-1.2h4.1L10.3,29h-4v-1.2h3.8L10.1,27H6.4v-1.2h3.5L9.8,25h-2
					l0.6-11.2H6.9L7,14.9H6.4V0.1l-2,13.6H3.1l0.4,6.8L0,44h12.4L12.3,43.1L12.3,43.1z M6.4,21.8h1L7.4,23h-1V21.8L6.4,21.8z
					 M7.3,21H6.4v-1.2h0.8L7.3,21L7.3,21z M6.4,18.9v-1.1h0.7l0.1,1.1H6.4L6.4,18.9z M6.4,25v-1.2h1.1L7.5,25H6.4L6.4,25z M7,15.8
					l0.1,1.2H6.4v-1.2H7L7,15.8z"/>
				<path id="Fill-16" class="st0" d="M9.5,23H8.7l0,0.9h1L9.5,23"/>
				<path id="Fill-17" class="st0" d="M9.2,21H8.8l0,0.9h0.6L9.2,21"/>
			</g>
		</g>
	</g>
</g>
</svg>
